<?xml version="1.0" encoding="UTF-8" standalone="no"?>
<!-- Created with Inkscape (http://www.inkscape.org/) -->

<svg
   width="168.83255mm"
   height="54.541405mm"
   viewBox="0 0 168.83255 54.541405"
   version="1.1"
   id="svg21"
   sodipodi:docname="logo_scaled.svg"
   inkscape:version="1.1.1 (3bf5ae0d25, 2021-09-20)"
   inkscape:export-filename="/home/rory/Desktop/logo/logo.png"
   inkscape:export-xdpi="96"
   inkscape:export-ydpi="96"
   xmlns:inkscape="http://www.inkscape.org/namespaces/inkscape"
   xmlns:sodipodi="http://sodipodi.sourceforge.net/DTD/sodipodi-0.dtd"
   xmlns="http://www.w3.org/2000/svg"
   xmlns:svg="http://www.w3.org/2000/svg">
  <sodipodi:namedview
     id="namedview23"
     pagecolor="#ffffff"
     bordercolor="#666666"
     borderopacity="1.0"
     inkscape:pageshadow="2"
     inkscape:pageopacity="0.0"
     inkscape:pagecheckerboard="0"
     inkscape:document-units="mm"
     showgrid="false"
     inkscape:zoom="1.4142136"
     inkscape:cx="261.98306"
     inkscape:cy="98.28784"
     inkscape:window-width="1920"
     inkscape:window-height="1131"
     inkscape:window-x="0"
     inkscape:window-y="0"
     inkscape:window-maximized="1"
     inkscape:current-layer="text1735"
     fit-margin-top="3"
     fit-margin-left="5"
     fit-margin-bottom="5"
     fit-margin-right="5" />
  <defs
     id="defs18">
    <filter
       y="0"
       height="1"
       x="0"
       width="1"
       inkscape:menu-tooltip="Aquarelle paper effect which can be used for pictures as for objects"
       inkscape:menu="Textures"
       inkscape:label="Rough Paper"
       style="color-interpolation-filters:sRGB"
       id="filter14275">
      <feTurbulence
         type="fractalNoise"
         baseFrequency="0.04"
         numOctaves="5"
         seed="0"
         result="result4"
         id="feTurbulence14261" />
      <feDisplacementMap
         in="SourceGraphic"
         in2="result4"
         yChannelSelector="G"
         xChannelSelector="R"
         scale="10"
         result="result3"
         id="feDisplacementMap14263" />
      <feDiffuseLighting
         lighting-color="#e9e6d7"
         diffuseConstant="1"
         surfaceScale="2"
         result="result1"
         in="result4"
         id="feDiffuseLighting14267">
        <feDistantLight
           azimuth="235"
           elevation="40"
           id="feDistantLight14265" />
      </feDiffuseLighting>
      <feComposite
         operator="in"
         in="result3"
         in2="result1"
         result="result2"
         id="feComposite14269" />
      <feComposite
         in2="result1"
         result="result5"
         operator="arithmetic"
         k1="1.7"
         id="feComposite14271"
         k2="0"
         k3="0"
         k4="0" />
      <feBlend
         in="result5"
         in2="result3"
         mode="normal"
         id="feBlend14273" />
    </filter>
    <filter
       y="-0.00093232095"
       height="1.0010949"
       x="-0.00073625211"
       width="1.0022625"
       inkscape:menu-tooltip="Aquarelle paper effect which can be used for pictures as for objects"
       inkscape:menu="Textures"
       inkscape:label="Rough Paper"
       style="color-interpolation-filters:sRGB"
       id="filter14309">
      <feTurbulence
         type="fractalNoise"
         baseFrequency="0.04"
         numOctaves="5"
         seed="0"
         result="result4"
         id="feTurbulence14295" />
      <feDisplacementMap
         in="SourceGraphic"
         in2="result4"
         yChannelSelector="G"
         xChannelSelector="R"
         scale="10"
         result="result3"
         id="feDisplacementMap14297" />
      <feDiffuseLighting
         lighting-color="#e9e6d7"
         diffuseConstant="1"
         surfaceScale="2"
         result="result1"
         in="result4"
         id="feDiffuseLighting14301">
        <feDistantLight
           azimuth="235"
           elevation="40"
           id="feDistantLight14299" />
      </feDiffuseLighting>
      <feComposite
         operator="in"
         in="result3"
         in2="result1"
         result="result2"
         id="feComposite14303" />
      <feComposite
         in2="result1"
         result="result5"
         operator="arithmetic"
         k1="1.7"
         id="feComposite14305"
         k2="0"
         k3="0"
         k4="0" />
      <feBlend
         in="result5"
         in2="result3"
         mode="normal"
         id="feBlend14307" />
    </filter>
    <filter
       style="color-interpolation-filters:sRGB"
       inkscape:label="Roughen"
       id="filter16925"
       x="-0.0057337382"
       y="-0.0094545558"
       width="1.0114675"
       height="1.0189091">
      <feTurbulence
         type="fractalNoise"
         numOctaves="1"
         seed="80"
         baseFrequency="0.13962 0.433453"
         result="turbulence"
         id="feTurbulence16921" />
      <feDisplacementMap
         in="SourceGraphic"
         in2="turbulence"
         scale="50"
         yChannelSelector="G"
         xChannelSelector="R"
         id="feDisplacementMap16923" />
    </filter>
    <filter
       style="color-interpolation-filters:sRGB"
       inkscape:label="Roughen"
       id="filter17169"
       x="-0.0089776432"
       y="-0.0094496654"
       width="1.0179553"
       height="1.0188993">
      <feTurbulence
         type="fractalNoise"
         numOctaves="1"
         seed="80"
         baseFrequency="0.13962 0.433453"
         result="turbulence"
         id="feTurbulence17165" />
      <feDisplacementMap
         in="SourceGraphic"
         in2="turbulence"
         scale="50"
         yChannelSelector="G"
         xChannelSelector="R"
         id="feDisplacementMap17167"
         result="fbSourceGraphic" />
      <feColorMatrix
         result="fbSourceGraphicAlpha"
         in="fbSourceGraphic"
         values="0 0 0 -1 0 0 0 0 -1 0 0 0 0 -1 0 0 0 0 1 0"
         id="feColorMatrix17193" />
      <feTurbulence
         id="feTurbulence17195"
         type="fractalNoise"
         numOctaves="1"
         seed="80"
         baseFrequency="0.13962 0.433453"
         result="turbulence" />
      <feDisplacementMap
         in2="turbulence"
         id="feDisplacementMap17197"
         in="fbSourceGraphic"
         scale="50"
         yChannelSelector="G"
         xChannelSelector="R"
         result="fbSourceGraphic" />
      <feColorMatrix
         result="fbSourceGraphicAlpha"
         in="fbSourceGraphic"
         values="0 0 0 -1 0 0 0 0 -1 0 0 0 0 -1 0 0 0 0 1 0"
         id="feColorMatrix17221" />
      <feTurbulence
         id="feTurbulence17223"
         type="fractalNoise"
         numOctaves="1"
         seed="80"
         baseFrequency="0.13962 0.433453"
         result="turbulence" />
      <feDisplacementMap
         in2="turbulence"
         id="feDisplacementMap17225"
         in="fbSourceGraphic"
         scale="50"
         yChannelSelector="G"
         xChannelSelector="R"
         result="fbSourceGraphic" />
      <feColorMatrix
         result="fbSourceGraphicAlpha"
         in="fbSourceGraphic"
         values="0 0 0 -1 0 0 0 0 -1 0 0 0 0 -1 0 0 0 0 1 0"
         id="feColorMatrix17249" />
      <feTurbulence
         id="feTurbulence17251"
         type="fractalNoise"
         numOctaves="1"
         seed="80"
         baseFrequency="0.13962 0.433453"
         result="turbulence" />
      <feDisplacementMap
         in2="turbulence"
         id="feDisplacementMap17253"
         in="fbSourceGraphic"
         scale="50"
         yChannelSelector="G"
         xChannelSelector="R" />
    </filter>
    <filter
       style="color-interpolation-filters:sRGB"
       inkscape:label="Cubes"
       id="filter19569"
       x="-0.0018787299"
       y="-0.0022833901"
       width="1.0037575"
       height="1.0042557"
       inkscape:menu="Scatter"
       inkscape:menu-tooltip="Scattered cubes; adjust the Morphology primitive to vary size">
      <feTurbulence
         type="fractalNoise"
         numOctaves="1"
         seed="376"
         baseFrequency="0 0"
         result="turbulence"
         id="feTurbulence19565" />
      <feDisplacementMap
         in="SourceGraphic"
         in2="turbulence"
         scale="47.6293"
         yChannelSelector="G"
         xChannelSelector="R"
         id="feDisplacementMap19567"
         result="fbSourceGraphic" />
      <feColorMatrix
         result="fbSourceGraphicAlpha"
         in="fbSourceGraphic"
         values="0 0 0 -1 0 0 0 0 -1 0 0 0 0 -1 0 0 0 0 1 0"
         id="feColorMatrix19831" />
      <feTurbulence
         id="feTurbulence19833"
         baseFrequency="0.14"
         numOctaves="1"
         type="fractalNoise" />
      <feColorMatrix
         id="feColorMatrix19835"
         values="1 0 0 0 0 0 1 0 0 0 0 0 1 0 0 0 0 0 6 -3.5 "
         result="result5" />
      <feComposite
         in2="result5"
         id="feComposite19837"
         operator="in"
         in="fbSourceGraphic"
         result="result6" />
      <feMorphology
         id="feMorphology19839"
         result="result3"
         radius="5"
         operator="dilate"
         in="result6" />
      <feDisplacementMap
         in2="result3"
         id="feDisplacementMap19841"
         result="result4"
         scale="0"
         yChannelSelector="A"
         xChannelSelector="R"
         in="result3" />
      <feComposite
         in2="result4"
         id="feComposite19843"
         operator="arithmetic"
         result="result2"
         k1="1"
         k3="1"
         k2="0"
         k4="0" />
      <feBlend
         in2="result2"
         id="feBlend19845"
         mode="darken"
         in="result2" />
      <feConvolveMatrix
         id="feConvolveMatrix19847"
         order="3 3"
         kernelMatrix="2 0 0 0 1 0 0 0 -1 "
         targetX="1"
         targetY="1"
         divisor="2"
         edgeMode="duplicate" />
    </filter>
    <filter
       x="-0.022501783"
       width="1.046037"
       y="-0.021191681"
       height="1.0423256"
       style="color-interpolation-filters:sRGB"
       inkscape:label="Rough Paper"
       id="filter24721"
       inkscape:menu="Textures"
       inkscape:menu-tooltip="Aquarelle paper effect which can be used for pictures as for objects">
      <feGaussianBlur
         stdDeviation="0.01 0.01"
         result="blur"
         id="feGaussianBlur24705" />
      <feComposite
         in="SourceGraphic"
         in2="blur"
         operator="atop"
         result="composite1"
         id="feComposite24707" />
      <feComposite
         in2="composite1"
         operator="in"
         result="composite2"
         id="feComposite24709" />
      <feComposite
         in2="composite2"
         operator="in"
         result="composite3"
         id="feComposite24711" />
      <feTurbulence
         type="fractalNoise"
         numOctaves="2"
         seed="36"
         baseFrequency="0.150011 0.150011"
         result="turbulence"
         id="feTurbulence24713" />
      <feDisplacementMap
         in="composite3"
         in2="turbulence"
         xChannelSelector="R"
         scale="83.7047"
         yChannelSelector="G"
         result="map"
         id="feDisplacementMap24715" />
      <feColorMatrix
         values="1 0 0 0 0 0 1 0 0 0 0 0 1 0 0 0 0 0 7.37599 -1.65551 "
         result="colormatrix"
         id="feColorMatrix24717" />
      <feComposite
         in="composite3"
         in2="colormatrix"
         operator="atop"
         result="fbSourceGraphic"
         id="feComposite24719" />
      <feColorMatrix
         result="fbSourceGraphicAlpha"
         in="fbSourceGraphic"
         values="0 0 0 -1 0 0 0 0 -1 0 0 0 0 -1 0 0 0 0 1 0"
         id="feColorMatrix25045" />
      <feGaussianBlur
         id="feGaussianBlur25047"
         stdDeviation="0.5"
         in="fbSourceGraphic"
         result="result1" />
      <feTurbulence
         id="feTurbulence25049"
         type="fractalNoise"
         baseFrequency="0.04"
         numOctaves="10"
         result="result0" />
      <feGaussianBlur
         id="feGaussianBlur25051"
         result="result8"
         stdDeviation="1" />
      <feDisplacementMap
         in2="result0"
         id="feDisplacementMap25053"
         in="result1"
         xChannelSelector="R"
         yChannelSelector="B"
         scale="20"
         result="result2" />
      <feComposite
         in2="result8"
         id="feComposite25055"
         result="result7"
         operator="in"
         in="result2" />
      <feComposite
         in2="result7"
         id="feComposite25057"
         result="fbSourceGraphic"
         k2="0.15"
         in="result2"
         k1="2"
         operator="arithmetic"
         k3="0"
         k4="0" />
      <feColorMatrix
         id="feColorMatrix25059"
         values="1 0 0 -1 0 1 0 1 -1 0 1 0 0 -1 0 -0.8 -1 0 3.7 -2.6 "
         in="fbSourceGraphic"
         result="fbSourceGraphicAlpha"
         type="matrix" />
      <feGaussianBlur
         id="feGaussianBlur25061"
         stdDeviation="0.5"
         result="result9" />
      <feSpecularLighting
         id="feSpecularLighting25063"
         surfaceScale="10"
         specularExponent="3"
         result="result11"
         specularConstant="0.69999999">
        <feDistantLight
           id="feDistantLight25065"
           azimuth="235"
           elevation="55" />
      </feSpecularLighting>
      <feDiffuseLighting
         id="feDiffuseLighting25067"
         in="result9"
         lighting-color="#ffffff"
         result="result6"
         diffuseConstant="0.40000001"
         surfaceScale="50">
        <feDistantLight
           id="feDistantLight25069"
           elevation="10"
           azimuth="235" />
      </feDiffuseLighting>
      <feBlend
         in2="result11"
         id="feBlend25071"
         result="result10"
         mode="screen" />
      <feComposite
         in2="fbSourceGraphic"
         id="feComposite25073"
         in="result10"
         result="result2"
         operator="in" />
      <feComposite
         in2="fbSourceGraphic"
         id="feComposite25075"
         k3="0.9"
         k2="1"
         operator="arithmetic"
         result="fbSourceGraphic"
         k1="0"
         k4="0" />
      <feColorMatrix
         result="fbSourceGraphicAlpha"
         in="fbSourceGraphic"
         values="0 0 0 -1 0 0 0 0 -1 0 0 0 0 -1 0 0 0 0 1 0"
         id="feColorMatrix25095" />
      <feTurbulence
         id="feTurbulence25097"
         type="fractalNoise"
         baseFrequency="0.04"
         numOctaves="5"
         seed="0"
         result="result4" />
      <feDisplacementMap
         in2="result4"
         id="feDisplacementMap25099"
         in="fbSourceGraphic"
         yChannelSelector="G"
         xChannelSelector="R"
         scale="10"
         result="result3" />
      <feDiffuseLighting
         id="feDiffuseLighting25101"
         lighting-color="#e9e6d7"
         diffuseConstant="1"
         surfaceScale="2"
         result="result1"
         in="result4">
        <feDistantLight
           id="feDistantLight25103"
           azimuth="235"
           elevation="40" />
      </feDiffuseLighting>
      <feComposite
         in2="result1"
         id="feComposite25105"
         operator="in"
         in="result3"
         result="result2" />
      <feComposite
         in2="result1"
         id="feComposite25107"
         result="result5"
         operator="arithmetic"
         k1="1.7"
         k2="0"
         k3="0"
         k4="0" />
      <feBlend
         in2="result3"
         id="feBlend25109"
         in="result5"
         mode="normal" />
    </filter>
    <filter
       y="-0.0025578053"
       height="1.0041389"
       x="-0.00044173995"
       width="1.0017411"
       inkscape:menu-tooltip="Aquarelle paper effect which can be used for pictures as for objects"
       inkscape:menu="Textures"
       inkscape:label="Rough Paper"
       style="color-interpolation-filters:sRGB"
       id="filter25249">
      <feTurbulence
         type="fractalNoise"
         baseFrequency="1"
         numOctaves="4"
         seed="612"
         result="result4"
         id="feTurbulence25235" />
      <feDisplacementMap
         in="SourceGraphic"
         in2="result4"
         yChannelSelector="G"
         xChannelSelector="R"
         scale="10"
         result="result3"
         id="feDisplacementMap25237" />
      <feDiffuseLighting
         lighting-color="#e9e6d7"
         diffuseConstant="1"
         surfaceScale="2"
         result="result1"
         in="result4"
         id="feDiffuseLighting25241">
        <feDistantLight
           azimuth="235"
           elevation="40"
           id="feDistantLight25239" />
      </feDiffuseLighting>
      <feComposite
         operator="in"
         in="result3"
         in2="result1"
         result="result2"
         id="feComposite25243" />
      <feComposite
         in2="result1"
         result="result5"
         operator="arithmetic"
         k1="1.7"
         id="feComposite25245"
         k2="0"
         k3="0"
         k4="0" />
      <feBlend
         in="result5"
         in2="result3"
         mode="normal"
         id="feBlend25247" />
    </filter>
    <filter
       y="-0.0075298742"
       height="1.0150597"
       x="-0.0062666443"
       width="1.0125333"
       inkscape:menu-tooltip="Aquarelle paper effect which can be used for pictures as for objects"
       inkscape:menu="Textures"
       inkscape:label="Rough Paper"
       style="color-interpolation-filters:sRGB"
       id="filter42098">
      <feTurbulence
         type="fractalNoise"
         baseFrequency="0.04"
         numOctaves="5"
         seed="0"
         result="result4"
         id="feTurbulence42084" />
      <feDisplacementMap
         in="SourceGraphic"
         in2="result4"
         yChannelSelector="G"
         xChannelSelector="R"
         scale="10"
         result="result3"
         id="feDisplacementMap42086" />
      <feDiffuseLighting
         lighting-color="#e9e6d7"
         diffuseConstant="1"
         surfaceScale="2"
         result="result1"
         in="result4"
         id="feDiffuseLighting42090">
        <feDistantLight
           azimuth="235"
           elevation="40"
           id="feDistantLight42088" />
      </feDiffuseLighting>
      <feComposite
         operator="in"
         in="result3"
         in2="result1"
         result="result2"
         id="feComposite42092" />
      <feComposite
         in2="result1"
         result="result5"
         operator="arithmetic"
         k1="1.7"
         id="feComposite42094"
         k2="0"
         k3="0"
         k4="0" />
      <feBlend
         in="result5"
         in2="result3"
         mode="normal"
         id="feBlend42096" />
    </filter>
  </defs>
  <g
     inkscape:label="Layer 1"
     inkscape:groupmode="layer"
     id="layer1"
     transform="translate(-19.444053,-143.99585)">
    <g
       id="g42867"
       transform="matrix(0.42484136,0,0,0.42484136,50.787645,113.54682)"
       inkscape:export-filename="/home/rory/Desktop/logo/g42867.png"
       inkscape:export-xdpi="96"
       inkscape:export-ydpi="96">
      <path
         id="path469"
         style="fill:#000000;fill-opacity:0.988584;stroke-width:0.670292;filter:url(#filter14275)"
         d="m 446.48828,369.41797 c 0.56004,-0.0214 -7.26013,0.0547 -26.33594,0.0625 -1.18438,-0.007 -2.36612,-0.002 -3.54882,0.006 -1.2769,-3.4e-4 -1.41212,0.005 -2.79297,0.004 h 2.46679 c -4.54173,0.0378 -9.0625,0.2015 -13.49023,0.70118 -7.29347,0.82307 -14.38676,2.23382 -21.47266,3.64843 -4.32997,0.94489 -8.5902,2.03814 -12.80078,3.2168 h 28.14453 c 4.23554,-1.17238 8.5185,-2.26308 12.86524,-3.2168 7.34653,-1.43323 14.6842,-2.85189 22.24609,-3.64843 5.54495,-0.58409 14.08209,-0.74912 14.71875,-0.77344 z m -25.14648,0.0723 h 22.53515 c -7.29107,0.34691 -14.90981,0.0718 -22.53515,0 z m 105.75976,2.68165 c 0.56068,-0.0214 -7.25838,0.0549 -26.38672,0.0625 -1.18047,-0.007 -2.35834,-0.002 -3.53711,0.006 -1.25962,-3.4e-4 -1.39137,0.005 -2.75195,0.004 h 2.40234 c -4.52041,0.0389 -9.02058,0.20382 -13.42773,0.70117 -7.29347,0.82308 -14.38676,2.23188 -21.47266,3.64649 -0.65944,0.1439 -1.30579,0.31563 -1.96289,0.46484 h 28.20899 c 0.65761,-0.1495 1.30515,-0.3201 1.96484,-0.46484 7.34653,-1.43324 14.68421,-2.84994 22.2461,-3.64649 5.54494,-0.58409 14.08013,-0.74912 14.71679,-0.77343 z m -25.14648,0.0723 h 22.53711 c -7.29145,0.34692 -14.91137,0.0717 -22.53711,0 z M 351.46875,382.6582 c -0.60657,0.23235 -1.23214,0.4394 -1.83398,0.67774 -5.62722,2.22848 -9.67792,4.15368 -15.08008,6.61328 -0.32466,0.16122 -0.64416,0.32881 -0.96875,0.49023 h 28.03515 c 0.32889,-0.15989 0.6445,-0.33144 0.97461,-0.49023 5.31162,-2.43765 9.44754,-4.42263 15,-6.61328 0.60596,-0.23907 1.23682,-0.44505 1.84766,-0.67774 z m 88.31055,0 c -3.22823,1.07409 -6.42086,2.19792 -9.53125,3.42969 -3.75129,1.48558 -6.89052,2.88738 -10.10743,4.35156 h 28.00196 c 3.21355,-1.47412 6.36354,-2.88987 10.06836,-4.35156 3.13299,-1.23607 6.35194,-2.35876 9.60547,-3.42969 z m -117.25586,13.38282 c -4.28141,2.22898 -8.50123,4.51387 -12.58594,6.9082 -0.22503,0.1319 -1.00148,0.6189 -1.41992,0.87305 h 28.74219 c 4.38971,-2.69074 8.90736,-5.27674 13.51953,-7.78125 z m 86.05078,0 c -4.96369,2.51032 -9.84454,5.09494 -14.60938,7.78125 h 28.54297 c 4.57177,-2.69394 9.2521,-5.297 14.06836,-7.78125 z m -108.9043,13.38281 c -3.38274,2.43406 -6.52959,5.0337 -9.38672,7.78125 h 28.59571 c 2.92788,-2.76044 6.18471,-5.35015 9.69921,-7.78125 z m 84.82617,0 c -1.11967,0.69262 -2.38042,1.46147 -2.88476,1.77344 -2.72522,1.89519 -5.28948,3.91218 -7.71289,6.00781 h 28.74414 c 2.47287,-2.09442 5.06134,-4.12531 7.89453,-6.00781 0.92533,-0.60117 1.88002,-1.17929 2.81445,-1.77344 z m -99.45507,13.38281 c -0.0897,0.10966 -0.19646,0.21221 -0.28516,0.32227 -2.32312,2.88236 -3.63358,5.01933 -5.06641,7.45703 h 28.15625 c 0.50978,-0.82665 0.99138,-1.66229 1.55274,-2.47266 1.25668,-1.81411 2.62896,-3.58258 4.10351,-5.30664 z m 83.04101,0 c -0.93616,1.01224 -1.86741,2.02715 -2.71289,3.07617 -1.48394,1.84119 -2.45077,3.25734 -3.375,4.70313 h 28.23438 c 1.89561,-2.70455 4.10103,-5.28194 6.47851,-7.7793 z m -91.41015,13.38281 c -1.20467,2.5244 -2.47712,5.27509 -3.35157,7.7793 h 27.97461 c 0.87895,-2.62992 2.11235,-5.21994 3.38086,-7.7793 z m 81.9414,0 c -0.0649,0.10964 -0.0992,0.16683 -0.16601,0.2793 -0.96395,2.0525 -2.32063,4.83997 -3.44922,7.5 h 27.94726 c 1.07295,-2.53634 2.35609,-5.0466 3.54883,-7.5 0.0585,-0.0932 0.11774,-0.18598 0.17578,-0.2793 z m -86.56836,13.38086 c -0.30723,2.59204 -0.28069,5.21958 0.01,7.78125 h 27.89258 c -0.27557,-2.59144 -0.27245,-5.19392 0.0625,-7.78125 z m 81.08789,0 c -0.55133,2.54706 -0.76339,5.17461 -0.67187,7.78125 h 27.91015 c -0.0679,-2.60337 0.17536,-5.20567 0.7461,-7.78125 z m -80.04492,13.38281 c 0.19434,0.71136 0.3631,1.42672 0.65625,2.1211 0.82407,1.95201 2.09243,3.79698 3.2832,5.66016 h 27.5625 c -1.08221,-1.86804 -2.23253,-3.72062 -2.99414,-5.66016 -0.27362,-0.69683 -0.44173,-1.41066 -0.63281,-2.1211 z m 79.99023,0 c 0.2769,1.6455 0.61193,3.28761 1.28126,4.87305 0.42042,0.99587 1.00463,1.95279 1.59179,2.90821 h 27.7168 c -0.53609,-0.95854 -1.06977,-1.917 -1.45899,-2.90821 -0.6253,-1.59244 -0.96845,-3.23064 -1.24804,-4.87305 z m -71.9082,13.38282 c 2.19776,2.67643 4.5874,5.26317 7.11719,7.78125 h 26.9082 c -2.41687,-2.51763 -4.68543,-5.10602 -6.75195,-7.78125 z m 78.48828,0 c 2.02557,2.67212 4.21977,5.26659 6.58203,7.78125 h 27.03321 c -2.2465,-2.51542 -4.31345,-5.11018 -6.20508,-7.78125 z m -65.29882,13.38281 c 3.04134,2.67236 6.23637,5.26086 9.55468,7.78125 h 26.39649 c -3.23707,-2.5165 -6.34071,-5.10465 -9.2793,-7.78125 z m 77.52539,0 c 2.87192,2.67785 5.93228,5.25842 9.09765,7.78125 h 26.48828 c -3.07548,-2.52027 -6.03959,-5.10008 -8.80078,-7.78125 z m -60.34961,13.38281 c 3.84969,2.68452 7.80801,5.25222 11.8164,7.78125 h 26.13477 c -3.72146,-2.3341 -7.39063,-4.7317 -11.70313,-7.78125 z m 76.85937,0 c 1.21942,0.88485 2.38484,1.80302 3.62891,2.67188 2.52206,1.7614 5.1354,3.42772 7.73437,5.10937 h 26.17188 c -2.45344,-1.59633 -4.81902,-3.10177 -7.6543,-5.10937 -1.22361,-0.86641 -2.36028,-1.78767 -3.55664,-2.67188 z m -56.0625,13.38282 c 0.63926,0.39736 1.2706,0.7925 1.91016,1.1914 3.65052,2.24458 7.39832,4.41178 11.13281,6.58984 h 26.53125 c -3.82877,-2.1722 -7.67208,-4.33303 -11.39844,-6.58984 -0.73573,-0.45338 -1.23824,-0.76484 -1.93359,-1.1914 z m 76.19922,0 c 2.10881,1.31204 4.20662,2.62454 6.32422,3.94531 2.12557,1.30694 4.31991,2.55839 6.48242,3.83593 h 26.42188 c -2.21299,-1.27794 -4.46708,-2.52192 -6.63672,-3.83593 -2.43563,-1.50092 -4.32301,-2.66976 -6.40039,-3.94531 z m -53.77148,13.38281 c 3.12208,1.84672 6.2745,3.66984 9.30664,5.58789 1.04595,0.66164 2.21063,1.46187 3.33007,2.19336 h 27.31055 c -1.17046,-0.73307 -2.4323,-1.55933 -3.47461,-2.19336 -3.15044,-1.91639 -6.41203,-3.74081 -9.64648,-5.58789 z m 76.02929,0 c 4.37318,2.55128 8.72136,5.12364 12.96094,7.78125 h 27.13086 c -4.40352,-2.65509 -8.90881,-5.22527 -13.43164,-7.78125 z M 375.25391,543.25 c 0.91257,0.70906 1.96738,1.41942 2.76171,2.11523 1.76656,1.54746 3.21573,3.25471 4.82422,4.88282 0.16645,0.26314 0.34976,0.52196 0.52344,0.7832 h 28.06836 c -0.18344,-0.26195 -0.30569,-0.52028 -0.49805,-0.7832 -1.68703,-1.62811 -3.21132,-3.34273 -5.0625,-4.88282 -0.80725,-0.67162 -1.95231,-1.40652 -2.91601,-2.11523 z m 77.02148,0 c 2.29362,1.60879 4.52596,3.26632 6.35352,4.86719 1.05382,0.92311 1.94921,1.92737 2.8789,2.91406 h 28.07227 c -0.98333,-0.9968 -1.97983,-1.98731 -3.09375,-2.91406 -1.85735,-1.54529 -4.25671,-3.23041 -6.70899,-4.86719 z m -65.59375,13.38281 c 1.1617,2.55553 1.92387,5.15594 2.2832,7.78125 h 27.85743 c -0.25017,-2.69239 -1.05532,-5.25057 -2.20118,-7.78125 z m 79.13672,0 c 0.39841,0.62794 0.81396,1.25134 1.13476,1.90039 0.95499,1.93206 1.5779,3.90056 2.05469,5.88086 h 27.89649 c -0.57564,-2.64826 -1.56857,-5.22738 -3.04688,-7.78125 z m -76.66992,13.38281 c -0.13704,2.60641 -0.57686,5.20459 -1.30274,7.7793 h 27.11328 c 0.97949,-2.53505 1.43783,-5.15962 1.73633,-7.7793 z m 80.65429,0 c 0.0971,2.59587 -0.15196,5.19458 -0.67968,7.7793 h 27.24609 c 0.49187,-1.91485 0.85592,-3.84795 1.05274,-5.78515 0.07,-0.68894 -0.0102,-1.32534 0.006,-1.99415 z m -83.95507,13.38086 c -0.76677,1.77525 -1.60305,3.53437 -2.57422,5.24805 -0.4894,0.86357 -1.11091,1.68708 -1.65821,2.5332 h 25.75196 c 1.80239,-2.42886 3.53264,-5.02341 4.99219,-7.78125 z m 81.75,0 c -0.95146,2.65002 -2.1766,5.25254 -3.59571,7.78125 h 25.92969 c 1.58727,-2.33758 3.01288,-4.90674 4.32617,-7.78125 z m -89.76172,13.38282 c -1.04571,1.44093 -2.10466,2.87819 -3.10156,4.33398 -1.00102,1.14074 -1.97007,2.29586 -2.94727,3.44727 h 24.78516 c 1.03293,-1.15128 2.05792,-2.30654 3.11328,-3.44727 1.31264,-1.7122 2.19532,-2.87391 3.35156,-4.33398 z m 82.53125,0 c -1.66624,2.36474 -3.39034,4.71161 -5.01758,7.08789 -0.2012,0.22928 -0.39204,0.46344 -0.5918,0.69336 h 24.91602 c 0.21106,-0.23024 0.41453,-0.46376 0.62695,-0.69336 2.14661,-2.80004 3.73511,-4.8523 5.48047,-7.08789 z m -93.47657,13.38281 c -1.22514,1.39163 -2.4209,2.79611 -3.73437,4.14844 -1.19298,1.22827 -2.46258,2.42214 -3.69531,3.63281 h 24.17578 c 1.28159,-1.21046 2.59606,-2.40683 3.8418,-3.63281 1.37451,-1.35274 2.63835,-2.75682 3.92968,-4.14844 z m 83.07813,0 c -1.99056,2.33402 -4.01544,4.65203 -6.19922,6.90039 -0.28934,0.2979 -0.60478,0.58398 -0.89648,0.88086 h 24.28711 c 0.30419,-0.29639 0.62956,-0.58357 0.93164,-0.88086 2.28475,-2.24854 4.42057,-4.56714 6.52343,-6.90039 z m -96.4082,13.38281 c -2.89274,2.64429 -5.88677,5.23495 -8.96485,7.78125 h 23.73633 c 3.14654,-2.55019 6.21381,-5.14153 9.19141,-7.78125 z m 83.61523,0 c -2.7856,2.63819 -5.65415,5.23586 -8.62305,7.78125 h 23.79883 c 3.04673,-2.55031 6.00287,-5.14671 8.88282,-7.78125 z m -99.58789,13.38281 c -3.45743,2.65938 -7.02115,5.24998 -10.67383,7.78125 h 23.5 c 3.68253,-2.53465 7.28167,-5.12594 10.78321,-7.78125 z m 84.16211,0 c -3.32519,2.65178 -6.73847,5.24995 -10.25586,7.78125 h 23.52344 c 3.55651,-2.5358 7.02144,-5.13252 10.40039,-7.78125 z m -103.24023,13.38282 c -4.17874,2.677 -8.45018,5.27889 -12.83985,7.78125 h 23.45899 c 4.38487,-2.50521 8.65588,-5.10747 12.83984,-7.78125 z m 84.91406,0 c -4.02758,2.68421 -8.1953,5.26141 -12.43164,7.78125 h 23.44922 c 4.23876,-2.5232 8.41584,-5.10011 12.45703,-7.78125 z m -108.03125,13.38281 c -0.57626,0.29956 -1.13163,0.61952 -1.71094,0.91602 -4.7314,2.42156 -9.66707,4.64157 -14.59961,6.86523 h 23.56641 c 4.91091,-2.22339 9.82425,-4.44363 14.5332,-6.86523 0.57661,-0.29653 1.12951,-0.61649 1.70313,-0.91602 z m 85.7539,0 c -2.26956,1.23557 -4.53028,2.48092 -6.8496,3.66797 -2.80769,1.43699 -5.71456,2.77704 -8.625,4.11328 h 23.5371 c 2.89819,-1.33625 5.79324,-2.67609 8.5879,-4.11328 2.30956,-1.18772 4.56134,-2.43276 6.82226,-3.66797 z m -115.20703,13.38281 c -6.8284,2.77725 -13.79631,5.36874 -20.89843,7.78125 h 24.28515 c 6.91729,-2.42531 13.70464,-5.01819 20.35742,-7.78125 z m 87.49219,0 c -0.0116,0.005 -0.0236,0.0102 -0.0352,0.0156 -6.43099,2.76052 -13.02394,5.32582 -19.71093,7.76562 h 24.02539 c 6.53701,-2.45253 12.98422,-5.0205 19.27539,-7.76562 0.0116,-0.005 0.0236,-0.0102 0.0351,-0.0156 z m -126.37891,13.38281 c -9.17438,2.60901 -18.47631,5.00471 -28.02343,6.92383 -1.70586,0.34291 -3.20218,0.56131 -4.82032,0.85742 h 26.125 c 1.55381,-0.29425 3.06876,-0.52639 4.65235,-0.85742 9.19471,-1.92204 18.13575,-4.32104 26.95117,-6.92383 z m 90.23829,0 c -9.40237,2.94756 -19.02284,5.55394 -28.8418,7.78125 h 25.60351 c 9.4595,-2.23288 18.71186,-4.84706 27.75391,-7.78125 z m -156.9336,13.38282 c -9.00682,1.59306 -17.96601,3.30767 -26.86523,5.17578 h 28.34961 c 8.52322,-1.89847 17.12709,-3.60273 25.7832,-5.17578 z m 97.16211,0 c -1.65272,0.24632 -3.17414,0.48059 -4.92187,0.74414 -12.73098,1.9688 -25.27061,4.42244 -37.75,7.03515 h 28.3164 c 12.01064,-2.66529 24.11399,-5.10261 36.42188,-7.03515 1.61295,-0.25402 3.13363,-0.49874 4.70898,-0.74414 z"
         transform="scale(0.26458333)" />
      <g
         id="g5873"
         transform="rotate(10.780068,125.90875,107.10389)">
        <g
           id="g5868"
           transform="translate(0.06738336,0.97587813)">
          <path
             style="fill:#000000;stroke-width:0.108474"
             d="m 121.21353,82.48096 c 0.2723,-0.0154 0.73969,0.101037 1.08362,0.269014 0.58901,0.28771 0.67878,0.365318 0.758,0.65543 0.0208,0.07701 0.0711,0.122517 0.1112,0.101461 0.0403,-0.02091 0.17679,0.188877 0.30362,0.466681 0.23199,0.508169 0.28874,1.095388 0.18089,1.871738 -0.0692,0.498645 -1.11414,1.968705 -1.57261,2.212552 -0.22069,0.117288 -0.30784,0.216715 -0.25102,0.286127 0.0564,0.06882 0.26035,0.0028 0.57895,-0.187802 0.40082,-0.239678 0.53986,-0.270696 0.75092,-0.167567 0.14245,0.06967 0.29853,0.1057 0.34682,0.07998 0.0483,-0.02572 0.35428,0.03603 0.67997,0.137213 0.53886,0.167256 0.65908,0.156615 1.33505,-0.118136 0.40858,-0.166112 0.78027,-0.273579 0.82598,-0.238859 0.0457,0.03462 0.12717,0.01131 0.18093,-0.05271 0.0538,-0.06359 0.2388,-0.127038 0.41109,-0.141028 0.17229,-0.01413 0.26908,-0.04395 0.21507,-0.0667 -0.11626,-0.04918 0.005,-0.566065 0.1519,-0.643828 0.0864,-0.04593 0.42282,-0.52312 1.54825,-2.195779 0.26253,-0.390189 0.25476,-0.48125 -0.0568,-0.664912 -0.54522,-0.321469 -1.02384,-0.890699 -1.21864,-1.449359 -0.20332,-0.583135 -0.21894,-1.531361 -0.0331,-2.013445 0.16116,-0.418168 0.76762,-1.286356 1.06842,-1.529524 0.41984,-0.339402 1.24419,-0.712039 1.36767,-0.618251 0.0638,0.04847 0.15128,0.06514 0.19442,0.03702 0.15274,-0.09962 0.44753,-0.103439 0.48659,-0.0057 0.0218,0.05412 0.0966,0.06811 0.16622,0.03109 0.0696,-0.03702 0.24302,0.05822 0.38534,0.211543 0.14231,0.153365 0.30455,0.287936 0.36051,0.299015 0.31917,0.06331 1.06249,1.987698 0.81799,2.117761 -0.0464,0.02459 -0.055,0.118277 -0.0188,0.207812 0.1496,0.371705 -0.46959,1.732603 -1.07708,2.367317 -0.39622,0.413957 -0.51258,0.482945 -1.00678,0.596856 l -0.55877,0.128735 -0.58149,0.857886 c -0.98194,1.448709 -1.43776,2.192543 -1.40041,2.285314 0.0401,0.09962 1.22211,0.117147 1.40332,0.02091 0.0643,-0.0342 0.16053,-0.01413 0.21396,0.04635 0.0644,0.07193 -0.004,0.17052 -0.20475,0.292585 -0.5343,0.325765 -0.56223,0.368116 -0.44112,0.669024 0.0955,0.237219 0.14539,0.261722 0.27779,0.136224 0.18531,-0.175509 0.17057,-0.26876 -0.0578,-0.365205 -0.12535,-0.05299 -0.13268,-0.08662 -0.033,-0.151373 0.0704,-0.04593 0.15892,-0.09397 0.19659,-0.10669 1.09213,-0.373598 2.64516,-1.01395 3.29401,-1.358128 0.77985,-0.413773 0.84372,-0.469252 0.88198,-0.766967 0.0505,-0.393523 0.11353,-0.591048 0.42373,-1.329258 0.42972,-1.022712 0.86838,-1.627185 1.46328,-2.016314 0.56654,-0.370588 1.66002,-0.75569 1.81622,-0.639631 0.0488,0.03632 0.17949,0.04225 0.29042,0.01272 0.11094,-0.02897 0.21359,0.0042 0.22813,0.07278 0.0145,0.0691 0.14018,0.100896 0.27922,0.07051 0.13903,-0.03038 0.26793,-0.01738 0.28644,0.02854 0.0186,0.04607 0.15733,0.141664 0.30848,0.21256 0.15115,0.0708 0.32352,0.206357 0.38306,0.300993 0.0595,0.09468 0.17131,0.236682 0.24839,0.315661 0.077,0.07899 0.13342,0.2076 0.12522,0.285816 -0.008,0.07829 0.0264,0.120256 0.0769,0.09355 0.0505,-0.02685 0.0976,-0.102874 0.10443,-0.168881 0.008,-0.06613 0.25909,-0.32226 0.56033,-0.569399 l 0.54771,-0.44937 -0.22531,-0.345647 c -0.12392,-0.190121 -0.30955,-0.566842 -0.41253,-0.837171 -0.15323,-0.402284 -0.2357,-0.498023 -0.45415,-0.527359 -0.34438,-0.04621 -1.13956,-0.507477 -1.24184,-0.72032 -0.0887,-0.184736 -0.18426,-0.333381 -0.25231,-0.392831 -0.15036,-0.131419 -0.38814,-0.805573 -0.44418,-1.259578 -0.11495,-0.931509 0.2054,-2.101058 0.67831,-2.475914 0.0871,-0.0691 0.16776,-0.179126 0.1792,-0.244539 0.0191,-0.109658 1.03716,-0.671681 1.49431,-0.825102 0.36147,-0.121387 0.59338,-0.08366 0.60398,0.09821 0.008,0.12605 0.0508,0.135941 0.14811,0.03392 0.157,-0.16501 0.55324,0.06896 0.52773,0.31169 -0.009,0.09171 0.0139,0.09934 0.0599,0.01922 0.0922,-0.160473 0.46583,0.22802 0.48173,0.500934 0.008,0.140746 0.0452,0.148448 0.14508,0.03038 0.10341,-0.122375 0.12874,-0.114038 0.11042,0.03589 -0.013,0.106973 0.10314,0.530794 0.25803,0.941783 0.40288,1.068963 0.40172,1.056231 0.16983,1.874974 -0.23162,0.817811 -0.46776,1.214245 -0.96033,1.61222 -0.3348,0.270527 -0.31141,0.385017 0.0538,0.263447 0.11509,-0.0383 0.3564,-0.0071 0.53634,0.06854 0.26155,0.110364 0.34081,0.209239 0.39516,0.492455 0.0526,0.274088 0.0183,0.38065 -0.15104,0.470765 -0.26961,0.14336 -0.29844,0.499351 -0.0738,0.911895 0.0933,0.171382 0.14164,0.36033 0.10742,0.419864 -0.0342,0.05949 -0.12068,-0.03717 -0.19218,-0.214652 -0.0714,-0.177571 -0.1669,-0.303239 -0.21208,-0.279202 -0.0479,0.02558 0.0175,0.190869 0.1571,0.397014 0.34316,0.506742 0.36955,0.604515 0.1888,0.699518 -0.22551,0.118561 -0.62978,-0.285773 -0.56523,-0.565358 0.0413,-0.178928 -0.0279,-0.159328 -0.47687,0.135094 -0.62297,0.408531 -1.25029,0.922805 -1.36133,1.116006 -0.11586,0.201594 -0.0117,0.38414 0.12666,0.22101 0.12847,-0.151994 0.13883,0.0057 0.0295,0.449695 -0.0429,0.173756 -0.0279,0.239127 0.0456,0.199998 0.0839,-0.04465 0.10651,0.01131 0.0974,0.236555 -0.007,0.16207 0.006,0.243281 0.0286,0.180469 0.0223,-0.06288 0.24262,-0.06189 0.48969,0.0014 0.99202,0.25672 1.36603,0.232372 1.35214,-0.08804 -0.005,-0.122235 0.007,-0.127746 0.0551,-0.02501 0.034,0.07249 0.0422,0.284374 0.0183,0.470863 -0.0255,0.197299 -0.003,0.316989 0.0555,0.286311 0.0546,-0.02897 0.10469,-0.162169 0.11145,-0.295892 0.008,-0.150143 0.1186,-0.303989 0.29002,-0.402059 0.19386,-0.110929 0.27161,-0.109799 0.25748,0.0028 -0.0117,0.08931 0.0159,0.251944 0.0598,0.361333 0.0574,0.142753 0.007,0.249612 -0.18039,0.378757 -0.14324,0.09892 -0.25484,0.237064 -0.24804,0.30697 0.0191,0.195971 -0.14785,0.236739 -0.22137,0.05412 -0.0552,-0.137213 -0.2166,-0.07899 -1.03503,0.37309 l -0.9696,0.535655 -0.12288,0.478027 c -0.0675,0.262924 -0.2373,0.701879 -0.3772,0.975472 -0.25072,0.490293 -0.25065,0.504848 0.005,1.011435 0.14276,0.282693 0.33324,0.68902 0.4233,0.902937 0.11899,0.282792 0.22895,0.393354 0.40264,0.404941 0.29428,0.01964 0.3568,-0.121528 0.11301,-0.255067 -0.14943,-0.08196 -0.15498,-0.112907 -0.032,-0.178363 0.17476,-0.09298 0.0909,-0.381865 -0.10755,-0.370504 -0.0813,0.0042 -0.0729,-0.0301 0.0212,-0.08592 0.0865,-0.05158 0.13882,-0.139898 0.11613,-0.196041 -0.0226,-0.05624 0.0288,-0.107679 0.11444,-0.11418 0.0856,-0.0057 0.21029,-0.101744 0.27712,-0.211613 0.0987,-0.162112 0.0943,-0.185867 -0.0234,-0.126474 -0.20386,0.102875 -0.64255,-1.191451 -0.5071,-1.496246 0.13217,-0.297474 0.3916,-0.406693 0.5793,-0.244072 0.26292,0.227921 0.53106,0.858635 0.47263,1.111766 -0.046,0.199517 -0.0324,0.223795 0.0894,0.159017 0.0791,-0.04197 0.16785,-0.219046 0.1973,-0.393283 0.0316,-0.187209 0.0712,-0.247549 0.0966,-0.147529 0.0236,0.09312 0.0956,0.227865 0.15989,0.29941 0.0643,0.07164 0.16618,0.190347 0.22649,0.263998 0.0697,0.08521 0.0783,0.04805 0.0238,-0.101461 -0.11302,-0.309642 0.11391,-0.740669 0.49745,-0.944652 0.16912,-0.08987 0.3408,-0.267756 0.38151,-0.395134 0.0657,-0.205848 0.0579,-0.22306 -0.0703,-0.154835 -0.0794,0.04211 -0.1264,0.120962 -0.1047,0.17524 0.0218,0.05426 -0.086,0.16036 -0.23945,0.23599 -0.17869,0.08804 -0.30132,0.08224 -0.34094,-0.01611 -0.0456,-0.11319 -0.11795,-0.101603 -0.27455,0.04367 -0.1961,0.182023 -0.20646,0.177911 -0.13273,-0.05285 0.044,-0.137637 0.0652,-0.286834 0.0473,-0.331544 -0.0355,-0.08804 0.50846,-0.682633 0.84146,-0.919951 0.25995,-0.185273 0.75718,-0.107679 0.77048,0.120256 0.005,0.09468 0.13685,0.288939 0.29183,0.431466 0.15499,0.142597 0.3155,0.342906 0.35668,0.445257 0.0412,0.102451 0.13618,0.182603 0.2111,0.178307 0.075,-0.0042 0.0448,0.04536 -0.067,0.110364 -0.11496,0.06684 -0.17623,0.18533 -0.14102,0.272844 0.0527,0.130854 -0.1082,0.510557 -0.24779,0.58483 -0.0235,0.01272 -0.11093,-0.146596 -0.19428,-0.353744 -0.17591,-0.437118 -0.29353,-0.520322 -0.37503,-0.265298 -0.0443,0.138627 0.0139,0.249584 0.24763,0.472531 0.25577,0.243917 0.28832,0.311775 0.19979,0.416501 -0.0582,0.06882 -0.0911,0.219103 -0.0731,0.333975 0.0229,0.146455 -0.11691,0.337479 -0.46781,0.639377 -0.27524,0.236795 -0.55526,0.422916 -0.62229,0.413589 -0.067,-0.0099 -0.12834,0.08069 -0.13638,0.199984 -0.0104,0.162946 -0.16325,0.300413 -0.61247,0.552711 -0.35268,0.19809 -0.53021,0.341831 -0.43283,0.35048 0.0908,0.0071 0.22153,0.154806 0.29045,0.326075 0.12613,0.313542 0.23073,0.325087 0.62022,0.06854 0.1247,-0.08224 0.1791,-0.03886 0.24645,0.19696 0.0666,0.232952 0.0269,0.361248 -0.17263,0.558886 -0.21225,0.210158 -0.23776,0.309415 -0.14122,0.549277 0.20601,0.511999 0.33665,0.581792 0.7136,0.381286 0.43912,-0.233574 0.67521,-0.254149 0.75116,-0.06543 0.0659,0.163511 -0.16278,0.307931 -0.9554,0.603625 -0.4681,0.174646 -0.51775,0.167779 -0.62026,-0.08549 -0.1584,-0.391502 -0.60548,-0.973648 -0.70645,-0.919936 -0.0469,0.02501 -0.003,0.174633 0.0973,0.332675 0.15938,0.250927 0.15643,0.301262 -0.0233,0.396845 -0.15539,0.08267 -0.21424,0.05553 -0.24014,-0.110365 -0.0434,-0.278199 -0.30164,-0.498531 -0.47574,-0.405916 -0.0808,0.04296 -0.17489,-0.03293 -0.23936,-0.19306 -0.073,-0.181584 -0.15612,-0.236738 -0.26623,-0.176808 -0.25498,0.138767 -0.31459,0.326457 -0.24417,0.768846 0.0456,0.286268 0.0104,0.45498 -0.11457,0.548768 -0.24062,0.180737 -0.22201,0.527077 0.0213,0.397636 0.12211,-0.065 0.20954,-0.02445 0.26953,0.124354 0.16493,0.409873 0.89823,0.460364 1.09752,0.0756 0.037,-0.0715 0.0605,-0.227256 0.0522,-0.346184 -0.0184,-0.264747 0.0669,-0.317314 0.38121,-0.234789 0.23914,0.06288 0.24059,0.0667 0.12522,0.327376 -0.17477,0.394908 -1.51292,1.015477 -1.75487,0.813812 -0.14266,-0.118843 -0.23636,-0.09539 -0.54265,0.136365 -0.31454,0.238053 -0.39748,0.256536 -0.55157,0.122941 -0.23556,-0.204209 -0.25067,-0.523347 -0.0304,-0.640564 0.18264,-0.09722 0.17627,-0.196395 -0.0272,-0.423609 -0.13745,-0.153535 -0.40408,-0.06415 -0.3333,0.111636 0.0622,0.154736 -0.35841,0.284756 -0.47142,0.145678 -0.0625,-0.07687 0.023,-0.172372 0.27301,-0.305374 l 0.36388,-0.193568 -0.22139,-0.683183 c -0.12172,-0.375775 -0.24928,-0.697202 -0.28335,-0.714315 -0.0342,-0.0171 -0.46388,0.175128 -0.95507,0.427241 -0.49122,0.252071 -1.44261,0.713325 -2.11421,1.024944 -2.61554,1.213596 -3.12165,1.490128 -3.11452,1.701572 0.0188,0.559083 0.14754,0.967346 0.32895,1.043965 0.27148,0.114744 0.32405,0.325326 0.18214,0.729941 -0.16432,0.46846 -0.53347,0.60531 -0.72205,0.26767 -0.0759,-0.1358 -0.20593,-0.28475 -0.28903,-0.33086 -0.11015,-0.0612 -0.12158,-0.145073 -0.0419,-0.310152 0.0789,-0.163455 0.062,-0.293504 -0.0607,-0.468179 -0.14809,-0.210879 -0.20552,-0.215344 -0.44849,-0.0349 -0.29223,0.21704 -0.54472,0.198656 -0.86576,-0.06302 -0.17243,-0.140605 -0.18334,-0.137072 -0.11626,0.03731 0.0407,0.105842 0.0211,0.185061 -0.044,0.176031 -0.0649,-0.0099 -0.1652,-0.133539 -0.22283,-0.276673 -0.13234,-0.328846 -0.62176,-0.332195 -0.75832,-0.0042 -0.0709,0.169969 -0.10573,0.187364 -0.18393,0.09228 -0.053,-0.06444 -0.21283,-0.107821 -0.35506,-0.09623 -0.14223,0.01131 -0.28775,-0.05158 -0.32337,-0.140181 -0.0356,-0.0886 -0.11495,-0.134246 -0.17623,-0.101603 -0.0613,0.03264 -0.80194,0.03081 -1.64589,-0.0042 -0.84396,-0.0349 -1.64555,-0.04677 -1.78132,-0.02628 -0.21073,0.03165 -0.22671,0.06246 -0.10924,0.210257 0.30443,0.382798 0.0406,1.51439 -0.31761,1.36303 -0.0844,-0.0356 -0.17677,-0.10725 -0.20529,-0.159 -0.0284,-0.0517 -0.072,-0.12874 -0.0966,-0.17086 -0.0247,-0.0423 -0.20577,-0.0954 -0.40251,-0.118137 -0.19674,-0.02275 -0.44157,-0.135659 -0.54408,-0.250856 -0.32219,-0.362152 -0.38556,-0.136789 -0.13595,0.483483 0.2267,0.56331 0.22702,0.59517 0.007,0.63909 -0.12769,0.0254 -0.28411,0.0729 -0.34756,0.10585 -0.0791,0.0408 -0.19395,-0.13566 -0.3652,-0.56119 l -0.24982,-0.620812 -0.43539,0.09539 c -0.45997,0.100755 -1.65368,0.880832 -1.77711,1.161352 -0.0357,0.0811 -0.15624,0.16996 -0.26784,0.1973 -0.11159,0.0273 -0.27475,0.0893 -0.36253,0.137782 -1.03449,0.57142 -1.32838,0.77954 -1.56149,1.105768 -0.14708,0.20582 -0.2832,0.33501 -0.30251,0.28706 -0.0192,-0.0479 0.008,-0.1358 0.0607,-0.19535 0.0527,-0.0596 0.053,-0.12831 7.2e-4,-0.15307 -0.0522,-0.0246 -0.28144,0.13001 -0.50923,0.34353 -0.32497,0.30473 -0.46332,0.38127 -0.64234,0.35543 -0.42933,-0.0619 -0.55038,0.0937 -0.33577,0.43144 0.23476,0.3696 0.28095,0.39315 0.42847,0.21862 0.0664,-0.0786 0.0645,-0.19299 -0.004,-0.26986 -0.0657,-0.0735 -0.0738,-0.15785 -0.0179,-0.18758 0.0559,-0.0297 0.13829,0.037 0.18307,0.14829 0.0448,0.11136 0.13184,0.19583 0.19346,0.18789 0.15697,-0.0202 0.165,0.40105 0.009,0.48391 -0.0704,0.0374 -0.15657,-0.003 -0.19162,-0.0903 -0.0847,-0.21035 -0.17129,-0.15183 -0.22489,0.15169 -0.04,0.22648 -0.0638,0.22555 -0.28021,-0.0113 -0.13007,-0.14229 -0.33397,-0.43948 -0.45311,-0.66048 -0.25026,-0.4642 -0.40433,-0.57604 -0.9497,-0.6893 -0.50663,-0.10513 -0.72157,-0.55026 -0.4805,-0.994868 0.0891,-0.16428 0.13589,-0.30971 0.10404,-0.32317 -0.0318,-0.0141 -0.30423,0.0345 -0.60524,0.10627 -0.30101,0.0719 -0.81494,0.0848 -1.14206,0.029 -0.55966,-0.096 -1.53368,-0.634532 -1.64429,-0.909352 -0.0275,-0.0685 -0.0837,-0.10669 -0.12457,-0.0851 -0.10977,0.0584 -0.74989,-0.875779 -0.90099,-1.314889 -0.46975,-1.365025 -0.20245,-2.546768 0.80807,-3.572518 0.10885,-0.110364 0.20597,-0.243013 0.21588,-0.294549 0.0104,-0.05158 0.30364,-0.348968 0.65271,-0.660955 0.60052,-0.536672 1.19585,-0.849564 1.70174,-0.894388 0.22333,-0.01992 1.10476,0.198755 1.3625,0.337819 0.39873,0.215132 1.19378,0.917774 1.33278,1.177872 0.0814,0.152446 0.15784,0.271953 0.16974,0.265622 0.0117,-0.0057 0.10677,0.173898 0.21072,0.400533 0.23619,0.514641 0.37064,1.713455 0.23853,2.126876 -0.10755,0.336631 0.0401,0.623267 0.42106,0.817414 0.29356,0.149522 0.28069,0.436808 -0.0388,0.865927 -0.39576,0.531526 -0.62818,1.005446 -0.56733,1.156676 0.0292,0.0725 0.0191,0.296702 -0.0225,0.498022 -0.0416,0.20134 -0.0643,0.3942 -0.0505,0.42859 0.0331,0.0822 1.26711,-0.57875 1.67358,-0.896512 0.29263,-0.22874 0.3068,-0.27634 0.17774,-0.59707 -0.10301,-0.25583 -0.0986,-0.39234 0.0164,-0.513214 0.0861,-0.09058 0.13134,-0.227638 0.1004,-0.304596 -0.0807,-0.20045 0.14264,-0.423468 0.40632,-0.40586 0.12379,0.0071 0.30284,-0.0667 0.39782,-0.166422 0.14072,-0.14784 0.16467,-0.144138 0.12938,0.02021 -0.0238,0.110929 0.0287,0.365205 0.11678,0.565076 l 0.16008,0.363396 0.81356,-0.471358 c 1.10484,-0.640098 1.23189,-0.75928 1.23341,-1.156845 10e-4,-0.286975 -0.0346,-0.358153 -0.22713,-0.452196 -0.12561,-0.06147 -0.31255,-0.06684 -0.41538,-0.01272 -0.18222,0.0968 -0.18402,0.09327 -0.0713,-0.140463 0.0926,-0.192127 0.0814,-0.258642 -0.0565,-0.334173 -0.0947,-0.05186 -0.15804,-0.138344 -0.14085,-0.192169 0.0173,-0.05384 -0.0485,-0.141509 -0.14588,-0.194925 -0.2967,-0.16255 -0.65167,-0.992061 -0.73644,-1.720931 -0.0986,-0.847358 -0.0338,-1.386065 0.23177,-1.92993 0.11496,-0.235396 0.2406,-0.514005 0.27918,-0.619169 0.0386,-0.105135 0.16585,-0.280008 0.28284,-0.388606 0.11703,-0.108527 0.19843,-0.232895 0.18097,-0.276249 -0.0174,-0.04324 0.0848,-0.194275 0.22732,-0.335388 0.23095,-0.228727 0.24341,-0.304342 0.11495,-0.69747 -0.12301,-0.376128 -0.21629,-0.475597 -0.63486,-0.676726 -0.51169,-0.245881 -1.23413,-0.976277 -1.4183,-1.433941 -0.42253,-1.049915 -0.20847,-2.273274 0.5359,-3.062823 0.23052,-0.244496 0.49457,-0.484669 0.5868,-0.533718 0.0922,-0.04918 0.17408,-0.150299 0.18193,-0.224939 0.0218,-0.207346 0.55014,-0.432582 1.08391,-0.461805 z m -1.91181,2.090502 c -0.003,0.19638 0.0408,0.490788 0.0952,0.6542 0.0826,0.248143 0.13129,0.274865 0.29537,0.162084 0.16457,-0.113049 0.21711,-0.0838 0.32342,0.180412 0.17049,0.423665 0.35015,0.308751 0.60889,-0.389454 0.35472,-0.957129 1.03921,-1.055058 1.38413,-0.198019 0.16537,0.410947 -3.9e-4,0.775149 -0.47148,1.035854 -0.29086,0.160967 -0.46388,0.517807 -0.36736,0.757668 0.0195,0.04819 0.28624,0.125909 0.59296,0.172725 l 0.55766,0.08507 -0.43657,0.232203 c -0.26768,0.142442 -0.39819,0.261369 -0.33736,0.307578 0.15524,0.117995 0.95004,-0.354493 1.10194,-0.654963 0.182,-0.359991 0.0468,-1.381304 -0.25134,-1.898347 -0.26295,-0.456026 -0.94527,-1.06194 -1.34653,-1.19572 -0.46608,-0.155414 -0.92685,-0.104711 -1.34272,0.147515 -0.34163,0.207261 -0.40304,0.298167 -0.4062,0.601251 z m 0.44505,-0.0472 c 0.0225,0.597435 -0.0287,0.776971 -0.2007,0.704309 -0.0872,-0.03674 -0.1073,-0.232217 -0.0586,-0.571123 0.0953,-0.6647 0.23658,-0.737207 0.25932,-0.133257 z m 8.31712,-4.167382 c -0.18765,0.512324 -0.0894,1.232955 0.15071,1.105252 0.10287,-0.05469 0.18683,0.01413 0.27029,0.221548 0.14413,0.358195 0.5606,0.874321 0.66196,0.820424 0.0394,-0.02105 0.0661,-0.196253 0.0592,-0.389496 -0.0195,-0.552385 0.32806,-1.610623 0.57153,-1.740135 0.3707,-0.197185 0.85874,0.141029 1.04984,0.727541 0.07,0.215005 -0.26639,0.778032 -0.55736,0.932796 -0.30787,0.163737 -0.31309,0.99907 -0.009,1.370987 0.17592,0.21485 0.25838,0.227158 0.54318,0.08111 0.18466,-0.09468 0.37562,-0.155287 0.42436,-0.13467 0.16972,0.07179 0.47351,-0.535569 0.52182,-1.043131 0.067,-0.704634 -0.34224,-1.757191 -0.85838,-2.207253 -0.7084,-0.617728 -1.53883,-0.770147 -2.23193,-0.409662 -0.35021,0.182151 -0.46804,0.313429 -0.59671,0.664672 z m 0.17934,0.449271 c 0.0468,0.116158 0.0474,0.231044 0.003,0.255378 -0.0457,0.0243 -0.0999,-0.06218 -0.12016,-0.192396 -0.0203,-0.130147 -0.0212,-0.245076 -0.003,-0.255363 0.0194,-0.01131 0.0734,0.07617 0.12016,0.192381 z m 2.49826,2.33001 0.29241,0.03406 -0.27964,0.114745 c -0.15384,0.06302 -0.32049,0.0643 -0.37043,0.0028 -0.11821,-0.145677 -0.004,-0.193949 0.3577,-0.151528 z m -11.3089,2.984748 c 0.11171,0.235891 0.35979,0.55907 0.55132,0.718172 0.23565,0.195759 0.29327,0.214935 0.17825,0.05935 -0.0935,-0.126474 -0.30268,-0.493431 -0.46485,-0.815422 -0.3442,-0.683368 -0.58962,-0.648195 -0.26472,0.03787 z m 18.59948,-9.880044 c -0.29019,0.470524 -0.3357,0.638628 -0.26267,0.970356 0.0486,0.220672 0.0448,0.395191 -0.008,0.387815 -0.10665,-0.0154 -0.087,0.486591 0.0248,0.630587 0.0387,0.04988 0.14262,0.212871 0.23089,0.362195 0.25296,0.427905 0.71247,0.870265 0.88981,0.8566 0.096,-0.0071 0.17149,0.07376 0.18532,0.199348 0.0153,0.139474 0.12431,0.228967 0.31929,0.26209 0.36455,0.06189 0.41523,-0.147826 0.066,-0.27307 -0.28556,-0.10245 -0.31307,-0.282015 -0.0635,-0.414748 0.12081,-0.06415 0.13796,-0.20452 0.0629,-0.514006 -0.22477,-0.926592 -0.25876,-1.55489 -0.10508,-1.942478 0.1415,-0.356952 0.1905,-0.398851 0.4801,-0.410594 0.52532,-0.0212 0.74947,0.100614 0.90276,0.491028 0.10911,0.277974 0.10132,0.421588 -0.0335,0.617841 -0.0966,0.140605 -0.1331,0.237106 -0.0809,0.214384 0.0521,-0.02275 -0.0269,0.09242 -0.17572,0.255858 -0.26445,0.290479 -0.2654,0.310658 -0.0421,0.895319 0.12561,0.328987 0.22124,0.667258 0.21235,0.751734 -0.009,0.0845 0.0191,0.140322 0.0621,0.12393 0.93889,-0.355977 1.17043,-0.589579 1.33268,-1.344449 0.38119,-1.773442 -1.09616,-3.38278 -2.77892,-3.027396 -0.57678,0.12181 -0.86658,0.337748 -1.21803,0.907628 z m 0.19827,1.880485 c 0.15333,0.270866 0.42773,0.607172 0.60979,0.747367 0.39558,0.304583 0.38792,0.518895 -0.0104,0.277253 -0.29779,-0.180907 -0.6982,-0.795865 -0.81055,-1.244924 -0.0443,-0.176936 0.0295,-0.09977 0.21067,0.220304 z m -10.16548,4.029151 c 0.24785,0.441301 1.05972,1.223855 1.10917,1.069119 0.013,-0.03914 -0.13652,-0.203432 -0.33114,-0.365106 -0.19462,-0.161674 -0.47043,-0.511942 -0.6129,-0.778371 -0.14247,-0.266428 -0.29714,-0.464151 -0.34369,-0.439379 -0.0485,0.02572 0.0281,0.245726 0.17856,0.513737 z m 12.24567,-5.071474 c 0.0731,0.102026 0.14881,0.177133 0.16817,0.166846 0.0194,-0.01131 -0.003,-0.113614 -0.0498,-0.229829 -0.0468,-0.116158 -0.12237,-0.191208 -0.16817,-0.16686 -0.0457,0.0243 -0.0234,0.127745 0.0498,0.229843 z m -2.11437,2.444967 c 0.51309,0.530553 0.54868,0.472742 0.0649,-0.105418 -0.21425,-0.256071 -0.4453,-0.580126 -0.51344,-0.72008 -0.10508,-0.215895 -0.10963,-0.202739 -0.0299,0.08691 0.0517,0.187718 0.26699,0.520139 0.47838,0.738733 z m -27.61391,14.823803 c -0.0231,0.179282 -0.013,0.505527 0.0223,0.724998 0.043,0.267332 -0.0139,0.542819 -0.17262,0.834796 -0.29643,0.545376 -0.2078,0.781508 0.30688,0.817457 0.22078,0.0154 0.43272,0.105842 0.47099,0.200916 0.0383,0.09496 0.2061,0.252792 0.37296,0.350452 l 0.30337,0.177586 -0.10897,0.459528 c -0.13218,0.55733 0.0566,0.72456 0.35997,0.3188 0.16841,-0.22528 0.21974,-0.2393 0.41011,-0.11206 0.11963,0.08 0.27286,0.11602 0.3404,0.0801 0.0676,-0.0359 0.30572,0.004 0.52926,0.0886 0.56008,0.21198 0.71593,0.17927 0.99739,-0.20928 0.29714,-0.410185 0.18383,-0.541237 -0.20608,-0.23838 -0.21899,0.17011 -0.35268,0.19413 -0.56984,0.10245 -0.32893,-0.13891 -0.41257,-0.294999 -0.35003,-0.653252 0.0426,-0.243592 0.0726,-0.250827 0.57439,-0.137778 0.90488,0.203926 1.08614,-0.07645 0.68848,-1.064455 -0.30947,-0.768974 -0.55694,-0.934096 -0.68612,-0.457806 -0.0798,0.293955 -0.0876,0.291299 -0.47776,-0.162819 -0.55253,-0.642952 -0.59078,-0.736543 -0.36853,-0.902004 0.10612,-0.07899 0.17178,-0.196394 0.14582,-0.260889 -0.0712,-0.176752 -1.23871,-0.585721 -1.50592,-0.527444 -0.33634,0.07334 -0.37346,0.201835 -0.22594,0.781861 0.14275,0.561232 0.0104,0.700904 -0.30805,0.325525 -0.1342,-0.158128 -0.18636,-0.342115 -0.17896,-0.631224 0.009,-0.382077 -1.3e-4,-0.40244 -0.1556,-0.319759 -0.0913,0.04847 -0.1849,0.234987 -0.20794,0.414268 z m 0.40636,0.813402 c 0.0955,0.1358 0.30202,0.30129 0.4591,0.367635 0.27538,0.116299 0.2816,0.128876 0.17362,0.352925 -0.0616,0.127746 -0.20738,0.283032 -0.32399,0.345054 -0.17245,0.09171 -0.23485,0.05582 -0.33455,-0.191802 -0.0674,-0.167496 -0.12821,-0.488202 -0.13511,-0.712689 l -0.013,-0.408121 z m -0.37788,1.007111 c 0.15124,0.06387 0.16095,0.209932 0.019,0.285449 -0.0757,0.04027 -0.1557,0.02855 -0.17769,-0.026 -0.0535,-0.133116 0.0514,-0.304696 0.15874,-0.259377 z m 1.58226,-0.567478 c -0.007,0.06034 0.22926,0.08549 0.52356,0.05554 0.49451,-0.05017 0.52987,-0.0349 0.46565,0.201849 -0.0382,0.140887 -0.0326,0.348078 0.013,0.460378 0.0452,0.112201 0.009,0.300187 -0.0812,0.41756 -0.14424,0.18841 -0.15146,0.348926 -0.0501,1.114251 0.0177,0.1334 -0.0831,0.12676 -0.39176,-0.026 -0.48648,-0.240736 -0.5369,-0.416343 -0.1973,-0.687067 0.22516,-0.179522 0.23413,-0.253428 0.0663,-0.546592 -0.0935,-0.163427 -0.32555,0.02911 -0.43037,0.357051 -0.13445,0.420712 -0.20472,0.434136 -0.49677,0.09482 -0.35694,-0.414565 -0.35566,-0.435705 0.0375,-0.612726 0.48668,-0.21906 0.57878,-0.292994 0.5266,-0.422676 -0.0248,-0.06147 -0.0742,-0.06119 -0.10976,8.2e-4 -0.0365,0.06331 -0.0695,0.0325 -0.0755,-0.07051 -0.005,-0.100897 0.0395,-0.242575 0.10067,-0.315054 0.0613,-0.07235 0.10612,-0.08224 0.0998,-0.0219 z m -0.0148,2.207888 c -0.008,0.0745 -0.0556,0.15772 -0.10612,0.18457 -0.0505,0.0268 -0.0853,-0.0127 -0.0776,-0.0869 0.008,-0.0746 0.0556,-0.15772 0.10612,-0.184569 0.0505,-0.02685 0.0853,0.01272 0.0776,0.08691 z m 8.79022,-7.361961 c -0.1125,0.171481 -0.0868,0.320084 0.16223,0.9389 0.16273,0.404362 0.33145,0.716265 0.37496,0.693132 0.0977,-0.05186 0.22591,0.498461 0.14783,0.634304 -0.11768,0.204788 -0.75765,0.304935 -0.82771,0.129441 -0.0887,-0.222028 -0.13998,-1.468789 -0.0798,-1.937646 0.0571,-0.443929 0.036,-0.504975 -0.11302,-0.328591 -0.12431,0.147218 -0.18857,1.043075 -0.092,1.283205 0.032,0.07928 -0.0308,0.359722 -0.13937,0.623155 -0.23114,0.560836 -0.1828,0.751252 0.22621,0.891023 0.1644,0.05624 0.53619,0.335148 0.82623,0.619947 0.49587,0.486902 0.52285,0.534312 0.45221,0.794777 -0.1073,0.395657 -0.0104,0.562009 0.20909,0.35999 0.17867,-0.164218 1.51646,-0.173332 1.98197,-0.01413 0.24359,0.08366 0.49425,-0.03024 0.51568,-0.23411 0.009,-0.08069 0.11456,-0.168344 0.23567,-0.194755 0.23939,-0.05214 0.47002,-0.357263 0.31848,-0.421277 -0.0514,-0.02176 -0.13245,0.05384 -0.1798,0.168443 -0.0712,0.171777 -0.0982,0.178165 -0.15514,0.0366 -0.0533,-0.132267 -0.16186,-0.12181 -0.47794,0.04635 -0.39852,0.211953 -0.41467,0.208448 -0.62858,-0.13693 -0.19201,-0.309995 -0.20035,-0.402978 -0.0665,-0.741121 0.0966,-0.244115 0.21889,-0.389115 0.33161,-0.39327 0.42791,-0.01583 1.16063,-0.313824 1.17841,-0.479214 0.013,-0.116299 -0.10365,-0.129159 -0.38669,-0.04282 -0.56319,0.171806 -0.68815,0.106548 -0.88357,-0.460901 -0.0927,-0.269283 -0.20208,-0.471796 -0.24301,-0.45002 -0.0409,0.02176 -0.149,-0.07928 -0.24016,-0.224671 -0.19573,-0.312086 -0.11691,-0.738747 0.16398,-0.888169 0.17311,-0.09213 0.15473,-0.115593 -0.20797,-0.266103 -0.21882,-0.09086 -0.51361,-0.219471 -0.65509,-0.285873 -0.14149,-0.06642 -0.54763,-0.07857 -0.90254,-0.02685 -0.35491,0.05172 -0.66037,0.09595 -0.67877,0.09821 -0.0184,0.0014 -0.0937,0.09595 -0.1671,0.20801 z m 1.36632,1.663036 c -0.054,0.06571 -0.13471,0.104146 -0.17935,0.08535 -0.0447,-0.01879 -3.8e-4,-0.07263 0.0982,-0.11955 0.10898,-0.05186 0.14082,-0.03829 0.0812,0.03434 z m 0.21148,0.161942 c 0.10989,-0.03151 0.29601,-0.02416 0.41352,0.01639 0.14567,0.05017 0.21858,0.02699 0.22909,-0.0732 0.009,-0.08069 0.0695,-0.139191 0.13564,-0.130147 0.0804,0.01131 0.10249,0.07235 0.0666,0.184538 -0.0295,0.09228 0.009,0.324606 0.0865,0.516182 0.13792,0.342736 0.0833,0.452464 -0.29278,0.588194 -0.11977,0.04324 -0.0379,0.367395 0.2759,1.093169 0.0805,0.18622 0.1034,0.361474 0.0509,0.38944 -0.16892,0.08973 -1.07037,-0.214242 -1.13874,-0.384141 -0.0925,-0.229758 0.0957,-0.590016 0.39356,-0.753245 0.31461,-0.172442 0.28836,-0.237742 -0.16349,-0.406468 -0.33478,-0.12506 -0.35725,-0.118842 -0.31332,0.08465 0.0517,0.239692 -0.0821,0.604473 -0.25858,0.704747 -0.0939,0.05342 -0.77047,-0.454683 -0.84194,-0.632283 -0.013,-0.03137 0.20432,-0.177868 0.48208,-0.325581 0.30798,-0.163836 0.48664,-0.314177 0.45797,-0.385441 -0.0258,-0.06415 0.0229,-0.122234 0.10834,-0.128734 0.0855,-0.0057 0.14493,-0.07702 0.13215,-0.156361 -0.013,-0.07942 0.0666,-0.170195 0.17661,-0.201736 z m 3.09871,-3.176196 c 0.17117,0.325906 0.48744,0.385257 0.90254,0.169376 0.19012,-0.09892 0.33895,-0.196437 0.33077,-0.2168 -0.008,-0.02035 -0.11846,-0.160176 -0.24513,-0.310673 -0.24684,-0.293376 -0.42128,-0.302745 -0.84567,-0.04536 -0.2275,0.13792 -0.2494,0.199984 -0.14251,0.403486 z m 8.4432,-4.133184 c -0.11093,0.22395 -0.16849,0.584788 -0.13943,0.875098 0.0272,0.271685 -0.001,0.520873 -0.0629,0.553728 -0.35545,0.18906 0.34563,1.5292 1.06085,2.027816 0.52608,0.36676 0.7292,0.655911 0.6084,0.866097 -0.0366,0.06373 -0.0203,0.151076 0.0364,0.194133 0.0701,0.05327 0.10794,0.03095 0.1186,-0.06995 0.0104,-0.100896 0.11067,-0.128452 0.31355,-0.08634 0.46696,0.09666 1.02875,0.102733 1.37527,0.0154 0.17455,-0.04437 0.44174,-0.05935 0.59376,-0.03363 0.21064,0.03575 0.31381,-0.0057 0.43365,-0.172979 0.0865,-0.121104 0.28714,-0.323009 0.4459,-0.449017 0.38084,-0.302194 0.67963,-0.972009 0.64009,-1.434902 -0.0192,-0.224798 -0.0662,-0.353405 -0.11873,-0.325398 -0.0479,0.02544 -0.0594,0.115169 -0.0255,0.199249 0.0705,0.175339 -0.21695,0.809191 -0.59129,1.303483 -0.22193,0.293066 -0.27972,0.32609 -0.4398,0.251266 -0.10132,-0.04748 -0.22898,-0.03321 -0.28359,0.03123 -0.0547,0.06458 -0.15238,0.05808 -0.2173,-0.01413 -0.17865,-0.199574 -0.21488,-0.34008 -0.083,-0.321752 0.0649,0.0099 0.0871,-0.06034 0.0492,-0.154397 -0.0378,-0.09397 -0.0982,-0.119549 -0.1343,-0.05667 -0.12327,0.214411 -0.21282,-0.270611 -0.12339,-0.668261 l 0.0892,-0.396915 0.65596,-0.03731 c 0.78612,-0.04466 1.2016,-0.281676 1.11168,-0.63405 -0.0642,-0.251237 -0.32583,-0.220573 -0.35338,0.0414 -0.0208,0.19713 -0.31105,0.322713 -0.73303,0.316877 -0.36516,-0.0042 -0.37113,-0.01131 -0.65562,-0.73513 -0.30993,-0.788248 -0.29375,-1.162723 0.0687,-1.590486 l 0.18221,-0.215033 -0.46547,-0.211854 c -0.25602,-0.116582 -0.7694,-0.21916 -1.14084,-0.228076 -0.5951,-0.01413 -0.75568,0.03109 -1.35121,0.381823 -0.52145,0.307125 -0.71898,0.485107 -0.86471,0.779161 z m 0.3101,1.028138 c 0.0546,0.0414 0.23802,0.0014 0.40767,-0.08874 0.636,-0.338271 0.90109,-0.125767 0.6689,0.536219 -0.10703,0.305247 -0.19953,0.391291 -0.57479,0.534764 -0.61656,0.235764 -0.7178,0.166055 -0.69622,-0.4792 0.0191,-0.571901 0.0383,-0.621671 0.19444,-0.503111 z m 2.75692,-1.012552 c -0.0591,0.185048 -0.1402,0.243112 -0.36466,0.261214 -0.40907,0.03293 -0.3928,-0.05568 0.0538,-0.293348 0.34854,-0.185358 0.3794,-0.182178 0.3109,0.03222 z m -0.99733,1.230016 c -0.008,0.07475 0.0644,0.09397 0.16056,0.04282 0.20523,-0.109233 0.60547,0.0602 0.70056,0.29657 0.0365,0.09086 0.13565,0.159795 0.22024,0.15321 0.26534,-0.02049 0.2481,0.431974 -0.0252,0.661407 -0.13814,0.116017 -0.30703,0.20305 -0.37534,0.193582 -0.0737,-0.01131 -0.0765,0.01908 -0.006,0.07179 0.0644,0.04889 0.24366,0.366223 0.39825,0.70503 0.27271,0.597648 0.27419,0.619693 0.0499,0.738988 -0.25527,0.1358 -1.2413,0.03024 -1.30351,-0.139616 -0.052,-0.141989 0.35864,-1.023743 0.5156,-1.107216 0.16489,-0.08775 0.12353,-0.160614 -0.19752,-0.348572 -0.20324,-0.118984 -0.28417,-0.11418 -0.32675,0.01908 -0.0312,0.0975 -0.0351,0.23062 -0.009,0.295962 0.0264,0.06543 -0.0104,0.283386 -0.0804,0.4845 -0.15631,0.445681 -0.31761,0.424866 -0.87511,-0.112908 -0.47327,-0.456492 -0.57938,-0.690206 -0.32999,-0.726877 0.10132,-0.0154 0.39882,-0.08973 0.66116,-0.166549 0.45336,-0.13255 0.47795,-0.156672 0.49645,-0.486492 0.0143,-0.254332 0.0403,-0.298195 0.0974,-0.164246 0.0429,0.100613 0.12419,0.15824 0.18055,0.12831 0.0599,-0.03194 0.0401,-0.154651 -0.0475,-0.295058 -0.10314,-0.165277 -0.10924,-0.262273 -0.0196,-0.309924 0.0717,-0.03815 0.12392,-0.0071 0.11613,0.06642 z m -8.64322,2.482626 c 0.0353,0.0879 0.14533,0.114887 0.24736,0.06062 0.18291,-0.09736 0.19356,-0.239508 0.0234,-0.311408 -0.16358,-0.0691 -0.33533,0.09002 -0.27066,0.250743 z m 0.53468,0.220658 c 0.0887,0.220375 0.32008,0.2207 0.34537,4.24e-4 0.0335,-0.292133 -0.0236,-0.356288 -0.22294,-0.250248 -0.10106,0.0537 -0.15608,0.166111 -0.1225,0.249767 z m 11.29683,-5.167964 c 0.0234,0.05808 0.0838,0.08366 0.1343,0.05667 0.0505,-0.02685 0.0727,-0.09638 0.0494,-0.154397 -0.0234,-0.05808 -0.0838,-0.08366 -0.13431,-0.05667 -0.0505,0.02685 -0.0728,0.09638 -0.0494,0.154397 z m -5.78536,3.589701 c 0.0403,0.09977 0.0614,0.06486 0.0577,-0.09468 -0.004,-0.139192 -0.0347,-0.324338 -0.0697,-0.411428 -0.0401,-0.09977 -0.0614,-0.06486 -0.0577,0.09468 0.004,0.139192 0.0347,0.324338 0.0697,0.411428 z m -6.85185,3.996748 c 0.009,0.09539 0.10392,0.104995 0.25256,0.02586 0.15012,-0.07984 0.26069,-0.06769 0.30121,0.03293 0.053,0.131702 0.16674,0.09242 0.66068,-0.228006 0.7058,-0.457877 1.57427,-0.758629 1.6143,-0.559041 0.0156,0.07772 0.12795,0.08479 0.25725,0.01597 0.25152,-0.133822 0.22462,-0.330697 -0.0709,-0.518966 -0.14029,-0.08931 -0.46489,-0.01865 -1.25544,0.273565 -1.25993,0.465733 -1.78075,0.74919 -1.75968,0.95768 z m 11.89027,-5.0106 c 0.0234,0.05808 0.0862,0.08224 0.13973,0.05384 0.0535,-0.02855 0.0526,-0.08563 -0.003,-0.127039 -0.0546,-0.0414 -0.11742,-0.06571 -0.13972,-0.05398 -0.0222,0.01272 -0.0213,0.06896 0.003,0.127039 z m 1.60633,-0.320974 c -0.005,0.225971 0.004,0.414692 0.0213,0.419384 0.0174,0.0042 0.21982,-0.05384 0.44966,-0.130289 0.47737,-0.158622 0.48352,-0.343259 0.0213,-0.639646 -0.35477,-0.227483 -0.47968,-0.138626 -0.4922,0.350579 z m -25.54182,13.612078 c -0.017,0.0533 0.004,0.11121 0.0451,0.12887 0.10612,0.0448 0.7431,-0.58202 0.7001,-0.68889 -0.0377,-0.0938 -0.69374,0.39915 -0.74515,0.56 z m 11.21482,-5.454999 c -0.10132,0.219625 -0.28651,0.55028 -0.41152,0.734761 -0.2536,0.374207 -0.23765,0.590625 0.0329,0.446714 0.0976,-0.05186 0.23641,-0.02035 0.30846,0.07037 0.12419,0.156219 0.80888,0.233135 1.31977,0.148306 0.22641,-0.03759 0.22516,-0.06373 -0.0335,-0.706514 -0.25902,-0.643616 -0.2606,-0.677969 -0.0443,-0.961086 0.17392,-0.227624 0.43227,-0.379265 1.14969,-0.674804 l 0.92534,-0.381229 0.34099,0.765158 c 0.29734,0.667215 0.32803,0.809968 0.23981,1.115143 -0.0614,0.212476 -0.22691,0.432102 -0.42119,0.559013 l -0.32,0.209028 0.37485,0.02883 c 0.28367,0.02176 0.40766,-0.0212 0.50961,-0.176696 0.0742,-0.113049 0.19035,-0.219824 0.2583,-0.237375 0.0679,-0.01752 0.1277,-0.192268 0.13265,-0.388167 0.013,-0.501938 0.22316,-0.771419 0.7591,-0.97249 l 0.45871,-0.172075 -0.12185,-0.479017 c -0.14865,-0.584449 0.0659,-1.015152 0.66144,-1.32776 0.51932,-0.272646 2.0902,-0.799553 2.21967,-0.744569 0.0551,0.02346 0.0503,0.167736 -0.0104,0.320706 -0.18636,0.466934 -0.16805,0.870548 0.0622,1.372202 0.14317,0.31186 0.18044,0.489757 0.10677,0.509456 -0.25578,0.06839 -1.83301,0.686532 -2.06752,0.810278 -0.18563,0.09793 -0.23182,0.185726 -0.17371,0.330103 0.0696,0.172937 0.18472,0.150144 0.95479,-0.189611 0.48162,-0.212461 1.66424,-0.795059 2.62806,-1.294679 l 1.75237,-0.908434 -0.13285,-0.495451 c -0.0731,-0.272505 -0.1349,-0.594808 -0.13735,-0.71625 -0.003,-0.157322 -0.0604,-0.212151 -0.19898,-0.190686 -0.41747,0.06472 -0.9894,0.0042 -1.35154,-0.141523 -0.35208,-0.142286 -0.48058,-0.114038 -1.79701,0.394343 -0.77981,0.301134 -1.73173,0.702359 -2.11541,0.891589 -1.00325,0.494773 -1.89568,0.821005 -2.3322,0.852573 -0.20852,0.0154 -0.79176,0.182193 -1.2961,0.371395 -0.50433,0.189187 -0.94411,0.332519 -0.97725,0.318515 -0.0331,-0.01413 -0.28704,0.0951 -0.56418,0.242773 -0.38736,0.206032 -0.54662,0.360471 -0.68821,0.667427 z m 0.77602,0.568269 c 0.12119,0.09213 -0.0794,0.353589 -0.2527,0.329523 -0.0681,-0.0099 -0.1417,-0.06189 -0.1637,-0.116582 -0.0535,-0.133115 0.29012,-0.308934 0.4164,-0.212984 z m 8.30375,-3.948138 c -0.0513,0.06288 -0.15464,0.117854 -0.22955,0.122093 -0.075,0.0042 -0.0329,-0.04706 0.0934,-0.114321 0.12627,-0.06712 0.18753,-0.07065 0.13619,-0.0071 z m -19.67017,9.593066 c -0.0629,0.11235 -0.0104,0.13326 0.1906,0.0756 0.30767,-0.0882 0.49626,-0.26408 0.43812,-0.40857 -0.0481,-0.119548 -0.51311,0.12676 -0.62873,0.33289 z m 7.30037,-3.483191 c -0.0933,0.0496 0.004,0.114744 0.26373,0.175861 0.44191,0.104288 0.57024,0.0195 0.44443,-0.293093 -0.0857,-0.212956 -0.28992,-0.244751 -0.45571,-0.07094 -0.0574,0.0602 -0.17102,0.144914 -0.25245,0.188198 z m 0.82167,-0.11206 c 0.0612,0.152135 0.54415,0.410905 0.65589,0.351469 0.17085,-0.09086 0.0556,-0.348191 -0.20525,-0.458357 -0.20043,-0.08465 -0.49921,-0.01413 -0.45064,0.106831 z m 15.29378,-7.562229 c -0.097,0.124213 -0.0994,0.165419 -0.008,0.120821 0.077,-0.03717 0.18352,-0.146441 0.23661,-0.243027 0.11768,-0.213959 -0.0273,-0.136931 -0.22954,0.122093 z m -10.27862,7.022957 c 0.0381,0.251661 0.0943,0.313089 0.28581,0.311817 0.27016,-0.0014 0.36157,-0.187689 0.29668,-0.603342 -0.0278,-0.177996 -0.0929,-0.247662 -0.21005,-0.224855 -0.3183,0.06189 -0.41984,0.202683 -0.37244,0.51638 z m 10.12555,-5.533621 c -0.13856,0.07475 -0.23281,0.183238 -0.20944,0.241303 0.0464,0.11531 0.59802,-0.142908 0.78965,-0.369614 0.18512,-0.219018 0.0568,-0.376651 -0.14731,-0.180949 -0.0995,0.09553 -0.29434,0.234619 -0.4329,0.309288 z m -6.99704,3.993031 c 0.1121,0.08521 0.36549,-0.04338 0.31805,-0.16125 -0.0598,-0.148603 -0.19069,-0.162013 -0.30142,-0.03095 -0.0581,0.06868 -0.0655,0.155132 -0.0166,0.19224 z m 9.24623,-4.151681 c 0.0565,0.140322 0.0756,0.312622 0.0426,0.382953 -0.033,0.07037 0.0624,0.02685 0.2119,-0.09666 0.21028,-0.173643 0.28654,-0.188212 0.33641,-0.0643 0.0761,0.189258 0.30614,0.187265 0.66904,-0.0057 0.30855,-0.164119 0.3802,-0.447363 0.0985,-0.389242 -0.10703,0.02204 -0.27605,-0.04268 -0.3757,-0.143982 -0.10118,-0.102874 -0.28874,-0.145833 -0.42493,-0.09736 -0.13406,0.04776 -0.30127,0.06387 -0.37154,0.03589 -0.2059,-0.0821 -0.29706,0.103157 -0.18627,0.378502 z m -9.5136,5.305657 c 0.0234,0.05808 0.0838,0.08366 0.1343,0.05681 0.0505,-0.02685 0.0727,-0.09637 0.0494,-0.154396 -0.0234,-0.05808 -0.0838,-0.08366 -0.13431,-0.05681 -0.0505,0.02685 -0.0727,0.09637 -0.0494,0.154382 z m 7.52567,-3.87457 c 0.0547,0.0414 0.15876,0.04366 0.23155,0.0042 0.0727,-0.03872 0.15141,-0.02289 0.17477,0.03505 0.0234,0.05808 -0.0226,0.140181 -0.1021,0.182433 -0.12132,0.06458 -0.0886,0.201609 0.20378,0.852616 0.20271,0.451433 0.38864,0.754361 0.44477,0.724587 0.0959,-0.05101 -0.0922,-1.184895 -0.26983,-1.626153 -0.084,-0.209014 -0.046,-0.256169 0.39792,-0.492286 0.35969,-0.191293 0.57053,-0.234676 0.78859,-0.16231 0.34806,0.115451 0.38025,0.08012 0.18053,-0.198557 -0.1303,-0.181811 -0.20708,-0.172583 -0.68689,0.08253 -0.29893,0.158989 -0.55918,0.240159 -0.58268,0.181769 -0.0234,-0.05808 -0.23085,-0.0057 -0.46108,0.117006 -0.25569,0.135941 -0.37999,0.251986 -0.31938,0.298025 z m -7.67613,4.458355 c -0.008,0.06938 0.0408,0.133822 0.10665,0.143064 0.066,0.0099 0.0902,-0.05737 0.0538,-0.14784 -0.0746,-0.1854 -0.1407,-0.183394 -0.16049,0.0042 z m 8.97296,-4.421318 c 0.0534,0.13255 0.48731,0.295539 0.61129,0.229603 0.17787,-0.09454 0.0365,-0.367932 -0.2037,-0.394004 -0.23504,-0.02558 -0.44924,0.06076 -0.40759,0.164387 z m -20.3895,8.19564 c 0.0546,0.0414 0.0555,0.0988 0.003,0.12704 -0.0535,0.0285 -0.11638,0.004 -0.13972,-0.0538 -0.0234,-0.0581 -0.0243,-0.11517 -0.003,-0.12704 0.0223,-0.0127 0.0852,0.0127 0.13972,0.0537 z m -2.87693,1.90564 c -0.0218,0.2003 -0.0777,0.25929 -0.23525,0.24875 -0.31473,-0.0211 -0.3208,-0.20032 -0.013,-0.3644 0.24989,-0.13297 0.27351,-0.12181 0.24755,0.11559 z m 3.79921,-1.69138 c 0.0634,0.15735 0.0604,0.26927 -0.008,0.25994 -0.0649,-0.01 -0.1445,-0.0821 -0.17678,-0.16228 -0.0322,-0.0803 -0.0292,-0.19721 0.007,-0.25996 0.0373,-0.065 0.1134,0.004 0.17678,0.1623 z m 25.3804,-13.214199 c 0.0535,0.02261 0.29467,-0.05327 0.53597,-0.168584 0.37549,-0.179437 1.42134,-0.59656 2.70801,-1.080042 0.1864,-0.07009 0.49824,-0.207982 0.69298,-0.306547 0.28723,-0.145367 0.36149,-0.140746 0.39328,0.02416 0.0216,0.111778 -0.0281,0.215783 -0.11028,0.230889 -0.0822,0.0154 -0.28002,0.07716 -0.43949,0.13792 -0.1595,0.06062 -0.66101,0.247973 -1.11449,0.416062 -0.45347,0.168118 -0.95438,0.356868 -1.1131,0.419497 -0.15872,0.06274 -0.36186,0.118701 -0.45142,0.124778 -0.0895,0.0057 -0.28576,0.07927 -0.43598,0.163101 -0.46342,0.258232 -1.39152,0.55866 -1.43007,0.462879 -0.0442,-0.109799 0.6272,-0.482168 0.76466,-0.424117 z m -17.41052,9.916248 c 0.12223,0.09284 0.2472,0.714311 0.16269,0.809251 -0.0397,0.0447 -0.0452,0.14844 -0.0116,0.23069 0.0331,0.0822 0.0232,0.16916 -0.0218,0.19314 -0.12106,0.0643 -0.32035,-0.19354 -0.24746,-0.32035 0.0344,-0.0601 -0.003,-0.27256 -0.0835,-0.472335 -0.13888,-0.34511 -0.0183,-0.607836 0.20213,-0.440396 z m -10.87179,6.058821 c 0.0234,0.0581 10e-4,0.12746 -0.0494,0.15439 -0.0505,0.0268 -0.11093,0.001 -0.1343,-0.0568 -0.0234,-0.0581 -0.001,-0.12746 0.0494,-0.15439 0.0505,-0.0268 0.11093,-10e-4 0.13429,0.0568 z m 7.49689,-3.530578 c 1.50093,-0.49655 1.73091,-0.54631 1.79451,-0.38827 0.0948,0.23573 -0.53279,0.72267 -0.80549,0.62492 -0.12003,-0.0431 -0.26159,-0.0553 -0.31455,-0.027 -0.053,0.0281 -0.17156,0.0113 -0.26354,-0.0404 -0.1112,-0.0609 -0.31511,-0.003 -0.60852,0.17529 -0.2571,0.155518 -0.47617,0.227058 -0.52491,0.171428 -0.046,-0.0526 -0.17853,0.18295 -0.29449,0.52324 -0.11599,0.34028 -0.22267,0.5893 -0.23713,0.55335 -0.0338,-0.0841 0.31116,-1.296778 0.372,-1.307688 0.0252,-0.004 0.42222,-0.13269 0.88212,-0.28486 z m 17.7537,-8.746235 c 0.0583,0.14507 0.0614,0.215599 0.008,0.156587 -0.0547,-0.05893 -0.10249,-0.177783 -0.10612,-0.263913 -0.004,-0.08606 0.0411,-0.03787 0.0994,0.107397 z m -15.18108,7.936933 c 0.0505,0.12548 -0.31576,0.953572 -0.40511,0.915822 -0.037,-0.0157 -0.0275,-0.0978 0.0211,-0.18233 0.0487,-0.0846 0.041,-0.18992 -0.0169,-0.23393 -0.0579,-0.0441 -0.0443,-0.17303 0.0303,-0.28671 0.16754,-0.255432 0.31862,-0.342192 0.37067,-0.212852 z m 0.59646,-0.17981 c 0.0531,0.13227 -0.0442,0.18406 -0.27546,0.14644 -0.14467,-0.0235 -0.1395,-0.0503 0.027,-0.1406 0.11327,-0.0613 0.22506,-0.064 0.24842,-0.006 z m -2.62026,1.5218 c -0.008,0.1449 -7e-5,0.26075 0.0161,0.25752 0.0162,-0.003 0.12236,-0.0243 0.2359,-0.0468 0.11352,-0.0226 0.41192,-0.12237 0.66309,-0.22198 0.50272,-0.199248 0.49522,-0.201808 0.48465,0.16557 -0.004,0.14213 -0.0104,0.37486 -0.0149,0.51705 -0.0104,0.34529 -0.008,0.34789 0.21563,0.2176 0.2293,-0.13396 0.42989,0.0488 0.26613,0.24256 -0.15868,0.18773 -0.73533,-0.0588 -0.61741,-0.26408 0.12912,-0.22463 -0.2832,-0.58684 -0.63567,-0.55844 -0.22969,0.0185 -0.29388,0.0716 -0.33277,0.27569 -0.0584,0.30653 -0.032,0.39662 0.12276,0.41811 0.33058,0.0459 0.1847,0.52667 -0.26512,0.87377 -0.13881,0.10712 -0.21168,0.14983 -0.16191,0.095 0.0617,-0.0681 1.5e-4,-0.27448 -0.19399,-0.65009 -0.27237,-0.52692 -0.27685,-0.57046 -0.10535,-1.02578 0.20723,-0.550178 0.34192,-0.673528 0.32281,-0.29563 z m 3.79242,-1.84643 c 0.008,0.12492 0.0227,0.24678 0.0325,0.27108 0.0104,0.0243 -0.1047,0.10937 -0.25447,0.18893 -0.184,0.0978 -0.27682,0.235902 -0.28643,0.425972 -0.0116,0.22464 -0.0422,0.26038 -0.15361,0.1778 -0.22238,-0.16493 -0.25245,-0.33657 -0.0724,-0.413112 0.10457,-0.0445 0.13414,-0.13708 0.0795,-0.24875 -0.0648,-0.13241 -0.0179,-0.21477 0.18357,-0.32191 0.19212,-0.10203 0.26608,-0.095 0.25483,0.0246 -0.009,0.0981 0.0296,0.064 0.093,-0.0814 0.0992,-0.22811 0.11016,-0.23016 0.12354,-0.0232 z m -4.46477,2.39165 c 0.0374,0.0928 0.007,0.23377 -0.069,0.31324 -0.0753,0.0794 -0.20219,0.23164 -0.28195,0.33815 -0.0798,0.1064 -0.33287,0.30951 -0.56247,0.45116 -0.25452,0.15704 -0.46068,0.3745 -0.52822,0.55715 -0.0869,0.23489 -0.12418,0.26634 -0.17273,0.14568 -0.034,-0.0846 0.0144,-0.36933 0.10769,-0.63254 0.14215,-0.40087 0.25038,-0.52513 0.66683,-0.76564 0.27344,-0.15793 0.55897,-0.3521 0.63452,-0.43152 0.0918,-0.0965 0.15988,-0.0886 0.20529,0.0243 z m 9.04463,-4.293404 c 0.005,0.102592 0.0511,0.165108 0.0998,0.139191 0.049,-0.026 0.0697,-0.09482 0.0465,-0.152913 -0.0234,-0.05808 0.0738,-0.159512 0.21581,-0.225476 0.22146,-0.102874 0.23149,-0.09765 0.07,0.03575 -0.10353,0.08564 -0.17262,0.194275 -0.1536,0.241515 0.049,0.121669 -0.37004,0.447872 -0.47384,0.369006 -0.0473,-0.03589 -0.18922,-0.01131 -0.31547,0.05681 -0.12627,0.06712 -0.22334,0.06302 -0.21574,-0.0099 0.008,-0.07221 0.14747,-0.168245 0.31084,-0.213394 0.18837,-0.052 0.27958,-0.125484 0.24927,-0.200845 -0.0263,-0.06529 -0.003,-0.143064 0.0538,-0.17281 0.0559,-0.02967 0.10651,0.02982 0.11249,0.132409 z m -12.61274,6.731864 c -0.054,0.0657 -0.13471,0.10415 -0.17934,0.0854 -0.0447,-0.0188 -3.9e-4,-0.0726 0.0982,-0.11955 0.10899,-0.0519 0.14082,-0.0383 0.0812,0.0342 z m 9.27165,-4.67774 c -0.0513,0.0629 -0.15464,0.11786 -0.22955,0.1221 -0.075,0.004 -0.0329,-0.0472 0.0934,-0.11432 0.12626,-0.0671 0.18754,-0.0707 0.13619,-0.007 z m -9.68654,5.26593 c 0.0117,0.1966 -0.13036,0.32483 -0.19143,0.17307 -0.0208,-0.0519 0.0117,-0.1526 0.0714,-0.22372 0.0731,-0.0866 0.11287,-0.0698 0.11989,0.0507 z M 133.8881,97.6031 c 0.10379,0.25803 0.10716,0.39155 0.0104,0.44271 -0.0961,0.0512 -0.18257,-0.0382 -0.28641,-0.2962 -0.10392,-0.258033 -0.10716,-0.391544 -0.0104,-0.442699 0.0961,-0.05115 0.18257,0.03815 0.28641,0.296189 z m 0.20786,0.51649 c 0.0403,0.10005 -0.21426,0.29678 -0.29992,0.23171 -0.0522,-0.0396 -0.009,-0.11729 0.0942,-0.17263 0.10391,-0.0553 0.1966,-0.0818 0.20574,-0.0591 z m 3.45182,-1.117402 c 0.0568,0.141028 0.0238,0.243677 -0.0995,0.309203 -0.16143,0.08592 -0.18071,0.06415 -0.15469,-0.174025 0.0164,-0.149677 0.0612,-0.288812 0.0995,-0.309203 0.0384,-0.02021 0.10793,0.05794 0.15469,0.174025 z m -13.59304,7.557222 c 0.0742,0.1503 0.0786,0.2525 0.0104,0.24306 -0.13826,-0.0192 -0.31479,-0.40872 -0.2104,-0.46424 0.0395,-0.0211 0.12938,0.0786 0.19973,0.22118 z m 17.3788,-8.327114 c 0.12327,-0.03504 0.32767,0.0057 0.45419,0.08987 0.29829,0.199277 0.55533,0.820707 0.37841,0.914806 -0.0716,0.03801 -0.16173,0.04282 -0.20044,0.01131 -0.0387,-0.03236 -0.0339,-0.0057 0.0104,0.05836 0.0446,0.0643 0.0365,0.140746 -0.0181,0.169785 -0.0629,0.03349 -0.0213,0.187478 0.11327,0.420333 0.11679,0.20217 0.16578,0.32029 0.10873,0.26251 -0.057,-0.0578 -0.19659,-0.0555 -0.31017,0.004 -0.19415,0.1033 -0.19004,0.14322 0.069,0.66813 0.22292,0.451692 0.24894,0.572412 0.13625,0.632342 -0.16072,0.0855 -0.3811,-0.12364 -0.42321,-0.40164 -0.10119,-0.668172 -0.15661,-0.827982 -0.26801,-0.772582 -0.0648,0.0324 -0.22378,0.0322 -0.35323,-3.4e-4 -0.18462,-0.0462 -0.22513,-0.10316 -0.18798,-0.26415 0.026,-0.11291 -0.009,-0.26874 -0.0791,-0.346429 -0.0699,-0.07814 -0.0809,-0.165418 -0.0248,-0.195292 0.0559,-0.02967 0.0721,-0.127462 0.036,-0.217195 -0.0709,-0.176144 0.126,-0.905395 0.25539,-0.945514 0.0434,-0.01413 0.17968,-0.05313 0.30297,-0.08832 z m -0.14425,1.332 c 0.0642,0.07164 0.20269,0.08436 0.30794,0.02854 0.18798,-0.09991 0.1871,-0.102874 -0.0491,-0.161985 -0.3113,-0.07786 -0.40475,-0.02953 -0.25871,0.13354 z m 2.15673,-1.014361 c 0.0637,0.245543 0.12015,0.461918 0.12547,0.480882 0.005,0.01894 -0.0367,0.02798 -0.0937,0.02007 -0.16694,-0.02332 -0.3229,-0.524576 -0.23165,-0.744711 0.0726,-0.175226 0.0998,-0.142286 0.19983,0.243734 z m -0.22427,0.730085 c 0.0104,0.02727 0.0253,0.240596 0.032,0.47424 0.0104,0.3666 -0.008,0.40243 -0.13543,0.26154 -0.1564,-0.17308 -0.16044,-0.521242 -0.008,-0.686208 0.0504,-0.05455 0.10053,-0.07673 0.11144,-0.0496 z m -2.4281,2.144672 c 0.13615,0.10344 0.11093,0.24883 -0.0464,0.26739 -0.0644,0.007 -0.10145,-0.0632 -0.0899,-0.17146 0.0147,-0.13679 0.0499,-0.1615 0.13618,-0.096 z"
             id="path286"
             sodipodi:nodetypes="ccccscccccscccccccscscssccsccccsccsscccsccccccsscccssccccccscsscccsccccccccccsssscscssccsssssccsccccccccsccccccccsccscscccccssccccccccccccsscscsccscsccsscscsccsccccccscscccssscsscscsccsccssscssccccsccsccscscscccscsscccccsscsccscssccsccccccscsssscscscsccccccccccscccscssscscccccsccsccccscccsscsccssscscccscsssscccccssscccsccsscssccscscsscsscccccccccccccsssssscscssccccccscsscccccsscccscsccccssccccssccssscccscscscssccsssccccccscssccccccscscccccscccccscccsscsccccccccsccssscscsccccscssccccccccssccscscccssccccssccccccscssccscccccsccccccccccccscsssccccccsccscscccccccccccscccsccccsssccccccccccccccssscscccscccscssccccscccccccscccssccsccsccssccssscccccccccsccccccccsccsssccssscccscscscccsssssccccccsscsccccccccccccccccsccccssccssssscccccccscccssccccsccccsccccsccccsscsssccscsccscscscccccsccsccssccccccccccccccccccscscccscccsccccccccccscccsssccccccsscssccccccccccccsccsscccccccscsssscssccccccccscccccsccscccsssscccscscccccccccssccccsccccccccccccsccssscccsccccccccccscccssscccccscccccccccccsccsccssssccss" />
        </g>
        <path
           d="m 142.37958,95.364102 c 0.14824,0.193668 0.15035,0.192478 0.0564,-0.032 -0.0539,-0.12828 -0.1216,-0.23344 -0.15069,-0.2336 -0.087,-5.7e-4 -0.068,0.0531 0.0941,0.26525 z m 0.53418,-0.20139 c 0.0325,0.1095 0.14607,0.277438 0.25229,0.373188 0.24721,0.22297 0.79805,0.36171 0.81573,0.2054 0.007,-0.063 -0.059,-0.11469 -0.1452,-0.11551 -0.087,-5.7e-4 -0.2686,-0.0932 -0.40372,-0.20594 l -0.24569,-0.204908 0.27059,-0.002 c 0.24184,-0.002 0.26691,-0.0362 0.236,-0.32513 -0.0191,-0.177858 -0.0294,-0.369488 -0.023,-0.425878 0.006,-0.0564 -0.0936,-0.0788 -0.2221,-0.0498 -0.28229,0.0636 -0.29234,-0.0871 -0.0147,-0.218898 0.13583,-0.0649 0.17888,-0.15606 0.13541,-0.28868 -0.0587,-0.179358 -0.0836,-0.173298 -0.32578,0.0793 -0.27508,0.28694 -0.43029,0.841378 -0.32998,1.178746 z m 0.98741,1.083956 c 0.12266,8.9e-4 0.29881,-0.0718 0.39142,-0.16111 0.14772,-0.14299 0.12798,-0.15894 -0.16178,-0.13029 -0.37539,0.037 -0.57404,0.2895 -0.22949,0.29174 z m 0.14561,-1.233686 c 0.17415,0.22494 0.21159,0.23056 0.72183,0.10756 0.30072,-0.0725 0.64033,-0.23796 0.76976,-0.375008 0.1274,-0.13485 0.32189,-0.24465 0.43218,-0.24399 0.1246,7.7e-4 0.20924,-0.0773 0.22393,-0.205398 0.0172,-0.1516 -0.0525,-0.20715 -0.26109,-0.20848 -0.15635,-9.1e-4 -0.27981,-0.043 -0.27412,-0.0934 0.02,-0.176378 -0.71519,-0.204908 -1.15347,-0.0448 -0.59369,0.21684 -0.78012,0.648738 -0.45907,1.063416 z m 1.48406,0.858408 c 0.0824,-0.0272 0.15716,-0.0792 0.16645,-0.11565 0.009,-0.0365 0.0544,-0.19412 0.1004,-0.35024 0.0586,-0.199018 0.035,-0.284168 -0.0791,-0.284868 -0.10575,-6.9e-4 -0.19318,0.13891 -0.25001,0.399498 -0.0636,0.29176 -0.0467,0.38716 0.0622,0.35128 z m 1.6059,-0.845248 c 0.0626,4.1e-4 0.11949,-0.0483 0.12617,-0.10867 0.007,-0.0603 -0.0427,-0.0808 -0.10872,-0.0463 -0.0665,0.0349 -0.12326,0.0837 -0.12616,0.108668 -0.004,0.0254 0.0461,0.0459 0.10871,0.0463 z m 2.13059,-0.213548 c 0.18798,-9.4e-4 0.25363,-0.0237 0.14568,-0.0511 -0.10778,-0.0268 -0.26154,-0.0261 -0.34176,0.002 -0.0804,0.0275 0.008,0.0499 0.19588,0.0489 z m 0.90143,-2.29187 c 0.0671,0.04058 0.47615,0.08081 0.90938,0.08941 0.77638,0.0154 0.78905,0.01146 0.88459,-0.274791 0.0837,-0.251061 0.14453,-0.286875 0.44825,-0.263993 0.33059,0.02487 1.05724,-0.07698 1.25625,-0.176084 0.10473,-0.05257 -0.12725,-0.609323 -0.29654,-0.712116 -0.0633,-0.03841 -0.25279,0.03645 -0.42091,0.166336 -0.20654,0.159561 -0.43358,0.232067 -0.69981,0.223391 -0.21672,-0.0069 -0.37327,0.02402 -0.34785,0.06906 0.0253,0.04505 -0.25129,0.111868 -0.61484,0.148639 -1.06512,0.107927 -1.18256,0.148127 -1.21273,0.4152 -0.015,0.132617 0.0275,0.274241 0.0945,0.314792 z m 2.9462,-1.024589 c 0.0586,0.03557 0.0995,0.119962 0.0909,0.18764 -0.009,0.07392 -0.0527,0.06093 -0.10851,-0.03271 -0.11889,-0.199391 -0.11477,-0.235204 0.0176,-0.15502 z m -2.18567,3.219739 c 0.21904,0.001 0.31108,-0.0193 0.20448,-0.046 -0.10657,-0.0267 -0.28577,-0.0278 -0.39823,-0.002 -0.11234,0.0252 -0.0253,0.0471 0.19382,0.0486 z m 1.08755,0.005 c 0.0769,0.0716 0.21904,0.13065 0.31555,0.13127 0.0964,6.3e-4 0.17013,0.0476 0.16374,0.104468 -0.0201,0.17899 0.51226,0.11538 0.73983,-0.0885 0.27709,-0.24818 0.72152,-0.36262 0.61133,-0.15736 -0.12073,0.224848 0.0678,0.266548 0.50226,0.11106 0.2192,-0.078 0.52636,-0.11906 0.68293,-0.0903 0.15662,0.0288 0.60487,-0.0192 0.99628,-0.10654 0.39138,-0.0873 0.91558,-0.15747 1.16486,-0.15591 0.26405,0.002 0.51964,-0.0614 0.61235,-0.151318 0.0876,-0.0847 0.23365,-0.15361 0.32465,-0.15311 0.18535,10e-4 0.95844,-0.594408 0.878,-0.676398 -0.0283,-0.0289 -0.25725,0.0649 -0.50864,0.20851 -0.4918,0.280448 -0.62808,0.306658 -0.85617,0.164898 -0.17164,-0.106768 -0.0379,-0.320438 0.19966,-0.318958 0.0902,4.9e-4 0.16922,-0.0455 0.17568,-0.10221 0.0202,-0.178517 0.33479,-0.11024 0.36795,0.0799 0.0297,0.16978 0.0337,0.16964 0.0657,-0.003 0.0266,-0.14389 0.11944,-0.1782 0.42565,-0.157 0.43076,0.0293 0.65975,-0.08109 0.44203,-0.213046 -0.0853,-0.05178 -0.12212,-0.339829 -0.0958,-0.74474 0.11128,-1.689405 -0.17606,-2.870879 -0.73991,-3.042559 -0.15788,-0.0481 -0.21428,-0.157174 -0.1903,-0.368964 0.0417,-0.36918 -0.33751,-0.648733 -0.82224,-0.606049 -0.18517,0.01628 -0.40387,-0.02622 -0.48602,-0.09448 -0.1139,-0.09452 -0.2534,-0.09662 -0.58662,-0.0086 -0.48492,0.128057 -0.71963,0.0048 -0.74129,-0.389213 -0.0145,-0.263027 -0.0941,-0.297679 -0.51765,-0.224881 l -0.3441,0.05919 -0.0216,0.649052 c -0.0118,0.356992 -0.0399,0.555869 -0.0624,0.441951 -0.0225,-0.113872 -0.0776,-0.246831 -0.12121,-0.29589 -0.10055,-0.109158 -0.57074,0.009 -0.58639,0.147292 -0.006,0.05535 -0.14663,0.219383 -0.31192,0.364205 -0.31619,0.277049 -0.34672,0.580843 -0.0852,0.847877 0.10322,0.105595 0.10223,0.176007 -0.005,0.279826 -0.18342,0.17763 -0.084,0.354994 0.19991,0.356822 0.12153,6.91e-4 0.21296,0.07115 0.20341,0.156375 -0.0111,0.09837 -0.12655,0.154301 -0.31589,0.153203 -0.2645,-0.0016 -0.28289,0.01758 -0.16165,0.169889 0.0752,0.09446 0.17166,0.316092 0.2145,0.492545 0.0595,0.245603 0.15356,0.329303 0.40069,0.356844 0.17762,0.01982 0.38381,-0.01379 0.45823,-0.07461 0.26061,-0.213176 0.33625,-0.105765 0.21368,0.303512 -0.10191,0.340438 -0.0913,0.41309 0.0606,0.414053 0.24552,0.0016 0.33096,0.309266 0.11755,0.423243 -0.25423,0.135829 -0.34196,0.111787 -0.3235,-0.08845 0.0143,-0.154671 -0.0181,-0.147361 -0.22317,0.05033 -0.13197,0.127088 -0.33413,0.231371 -0.44937,0.231424 -0.17695,2.43e-4 -0.18474,0.01601 -0.0501,0.101514 0.13613,0.08656 0.13044,0.101281 -0.0398,0.10152 -0.10953,5.5e-5 -0.19407,-0.04624 -0.18763,-0.103007 0.006,-0.05682 -0.14178,-0.104383 -0.32968,-0.105503 -0.18772,-0.0012 -0.34658,0.04437 -0.353,0.101201 -0.006,0.05682 -0.13666,0.102597 -0.28935,0.10175 -0.15271,-9.48e-4 -0.31628,0.04658 -0.36334,0.105714 -0.10903,0.13684 0.18012,0.624048 0.35121,0.591618 0.0707,-0.0134 0.14464,0.0304 0.16428,0.0974 0.0304,0.10406 -0.43115,0.342508 -0.88692,0.458278 -0.0952,0.0236 -0.0934,0.0729 0.005,0.16442 z m 1.57249,-0.486258 c 0.17952,0.0717 0.38405,0.10023 0.45461,0.0634 0.0706,-0.0365 0.11983,0.009 0.1094,0.101078 -0.0144,0.12818 -0.0776,0.14936 -0.26631,0.0893 -0.13596,-0.0434 -0.3743,-0.0884 -0.52951,-0.1004 -0.39291,-0.0302 -0.3992,-0.0346 -0.23801,-0.166428 0.10773,-0.0881 0.22502,-0.0846 0.4699,0.0129 z m 1.31348,-2.882334 c 0.0977,6.53e-4 0.14044,0.04741 0.0954,0.104012 -0.0451,0.05652 -0.13021,0.102521 -0.18906,0.102228 -0.059,-3.6e-4 -0.10177,-0.04721 -0.0955,-0.103975 0.006,-0.05681 0.0915,-0.102839 0.18907,-0.102232 z m 1.33261,-2.783757 c 0.28587,0.0019 0.37014,0.23734 0.1297,0.362794 -0.0666,0.03493 -0.13644,0.199926 -0.15532,0.367069 -0.0283,0.251286 0.0126,0.304187 0.23684,0.305629 0.1849,0.0011 0.28403,0.07524 0.31152,0.232867 0.045,0.25776 -0.025,0.336155 -0.38268,0.428812 -0.20478,0.05296 -0.25899,-2.48e-4 -0.33286,-0.326572 -0.0486,-0.214443 -0.0843,-0.576066 -0.0796,-0.803516 0.005,-0.227478 0.004,-0.44853 -0.002,-0.491229 -0.005,-0.04303 0.11763,-0.0768 0.27412,-0.07573 z m 0.0178,2.275204 c 0.11095,0.216591 0.2265,1.26081 0.14694,1.325926 -0.11346,0.09278 -0.17187,-0.04271 -0.22015,-0.510629 -0.0649,-0.629691 -0.0302,-1.01723 0.0732,-0.815278 z m 0.27218,1.708025 c 0.0922,5.74e-4 0.1756,0.08258 0.1856,0.182109 0.0127,0.126996 -0.0549,0.180608 -0.22635,0.179541 -0.17138,-0.0011 -0.2267,-0.05542 -0.1856,-0.182078 0.0324,-0.09934 0.1342,-0.180127 0.22635,-0.17954 z m 0.76534,-3.87317 c 0.49376,0.0031 0.80017,0.238898 0.49732,0.382671 -0.098,0.04732 -0.17949,0.172852 -0.18035,0.280456 -0.003,0.309936 -0.24098,0.300672 -0.38393,-0.01484 -0.073,-0.157639 -0.1902,-0.325167 -0.26334,-0.371136 -0.25321,-0.15895 -0.10946,-0.279768 0.33033,-0.277162 z m 0.69283,3.62384 c 0.1527,9.55e-4 0.27293,0.04446 0.26703,0.09663 -0.006,0.05219 0.0113,0.166033 0.0379,0.25307 0.0658,0.213161 -0.43619,0.182026 -0.59337,-0.03601 -0.15066,-0.209321 -0.0528,-0.315824 0.28824,-0.313634 z m 0.0358,-2.89535 c 0.0626,4.12e-4 0.10864,0.04718 0.10218,0.104021 -0.006,0.05685 -0.0629,0.103131 -0.12545,0.102682 -0.0626,-4.12e-4 -0.10864,-0.04718 -0.10217,-0.10403 0.006,-0.05682 0.0629,-0.103132 0.12551,-0.102497 z m -5.80003,3.72241 c 0.12429,0.07536 0.71599,-0.04419 0.72761,-0.146965 0.006,-0.05026 -0.0664,-0.0918 -0.16034,-0.09239 -0.094,-6.01e-4 -0.16512,-0.05026 -0.15824,-0.110534 0.007,-0.06027 -0.0427,-0.08077 -0.10871,-0.04629 -0.0706,0.03651 -0.10612,-0.06855 -0.0849,-0.253128 0.0197,-0.173869 -0.0155,-0.316449 -0.078,-0.316859 -0.13129,-8.09e-4 -0.258,0.892603 -0.13698,0.965956 z m 0.51188,-0.717838 c 0.27485,0.101532 0.35199,0.07257 0.13528,-0.05023 -0.10733,-0.06103 -0.22169,-0.08935 -0.25398,-0.06295 -0.0322,0.02668 0.0201,0.07798 0.11888,0.113655 z m 0.18077,0.375887 c 0.0939,6.37e-4 0.16531,0.04767 0.15902,0.104421 -0.006,0.05682 0.0652,0.103838 0.159,0.104405 0.0939,6.37e-4 0.17902,-0.06751 0.18819,-0.153923 0.01,-0.08521 -0.055,-0.155511 -0.1438,-0.156034 -0.0888,-5.04e-4 -0.23918,-0.02979 -0.33427,-0.06488 -0.095,-0.03503 -0.17869,-0.0124 -0.18582,0.05052 -0.007,0.0629 0.0639,0.11489 0.15776,0.115475 z"
           style="fill:#000000;stroke-width:0.0287004"
           id="path42304" />
      </g>
      <path
         id="path41699"
         style="fill:#000000;fill-opacity:0;stroke:#000000;stroke-width:0.665001;stroke-miterlimit:4;stroke-dasharray:none;stroke-opacity:1;filter:url(#filter42098)"
         d="m 71.038339,53.444157 a 0.32758784,0.37436004 0 0 0 -0.327628,0.374656 0.32758784,0.37436004 0 0 0 0.327628,0.374136 0.32758784,0.37436004 0 0 0 0.327628,-0.374136 0.32758784,0.37436004 0 0 0 -0.327628,-0.374656 z m -1.619541,0.370004 a 0.32758784,0.37436004 0 0 0 -0.327628,0.374137 0.32758784,0.37436004 0 0 0 0.24598,0.362252 0.32758784,0.37436004 0 0 0 -0.01499,0.112138 0.32758784,0.37436004 0 0 0 0.327628,0.374655 0.32758784,0.37436004 0 0 0 0.327629,-0.374655 0.32758784,0.37436004 0 0 0 -0.245978,-0.362252 0.32758784,0.37436004 0 0 0 0.01499,-0.112138 0.32758784,0.37436004 0 0 0 -0.327631,-0.374137 z m -8.115781,1.418003 a 0.32758784,0.37436004 0 0 0 -0.327629,0.374653 0.32758784,0.37436004 0 0 0 0.327629,0.374136 0.32758784,0.37436004 0 0 0 0.327628,-0.374136 0.32758784,0.37436004 0 0 0 -0.327628,-0.374653 z M 50.062358,60.01895 a 0.32758784,0.37436004 0 0 0 -0.327628,0.374137 0.32758784,0.37436004 0 0 0 0.327628,0.374655 0.32758784,0.37436004 0 0 0 0.327628,-0.374655 0.32758784,0.37436004 0 0 0 -0.327628,-0.374137 z m -2.269112,0.239263 a 0.32758784,0.37436004 0 0 0 -0.327628,0.374655 0.32758784,0.37436004 0 0 0 0.327628,0.374137 0.32758784,0.37436004 0 0 0 0.327628,-0.374137 0.32758784,0.37436004 0 0 0 -0.327628,-0.374655 z m 38.436412,0.581358 a 0.32758784,0.37436004 0 0 0 -0.327628,0.374655 0.32758784,0.37436004 0 0 0 0.327628,0.374137 0.32758784,0.37436004 0 0 0 0.327631,-0.374137 0.32758784,0.37436004 0 0 0 -0.327631,-0.374655 z m -1.12241,1.181841 a 0.32758784,0.37436004 0 0 0 -0.327628,0.374655 0.32758784,0.37436004 0 0 0 0.327628,0.374137 0.32758784,0.37436004 0 0 0 0.327628,-0.374137 0.32758784,0.37436004 0 0 0 -0.327628,-0.374655 z m 2.845303,0.402561 a 0.32758784,0.37436004 0 0 0 -0.327629,0.374652 0.32758784,0.37436004 0 0 0 0.327629,0.374137 0.32758784,0.37436004 0 0 0 0.327628,-0.374137 0.32758784,0.37436004 0 0 0 -0.327628,-0.374652 z m -4.293794,0.474906 a 0.32758784,0.37436004 0 0 0 -0.327628,0.374136 0.32758784,0.37436004 0 0 0 0.165365,0.325562 0.32758784,0.37436004 0 0 0 -0.03152,0.160198 0.32758784,0.37436004 0 0 0 0.327629,0.374136 0.32758784,0.37436004 0 0 0 0.327628,-0.374136 0.32758784,0.37436004 0 0 0 -0.165365,-0.325562 0.32758784,0.37436004 0 0 0 0.03152,-0.160198 0.32758784,0.37436004 0 0 0 -0.327629,-0.374136 z m -8.085296,0.881083 a 0.32758784,0.37436004 0 0 0 -0.327628,0.374137 0.32758784,0.37436004 0 0 0 0.327628,0.374137 0.32758784,0.37436004 0 0 0 0.327629,-0.374137 0.32758784,0.37436004 0 0 0 -0.327629,-0.374137 z m -5.160407,0.88315 a 0.32758784,0.37436004 0 0 0 -0.327628,0.374137 0.32758784,0.37436004 0 0 0 0.327628,0.374655 0.32758784,0.37436004 0 0 0 0.327629,-0.374655 0.32758784,0.37436004 0 0 0 -0.327629,-0.374137 z m -18.520833,0.651121 a 0.32758784,0.37436004 0 0 0 -0.327628,0.374656 0.32758784,0.37436004 0 0 0 0.327628,0.374136 0.32758784,0.37436004 0 0 0 0.327629,-0.374136 0.32758784,0.37436004 0 0 0 -0.327629,-0.374656 z m 24.34735,1.210263 a 0.32758784,0.37436004 0 0 0 -0.327628,0.374139 0.32758784,0.37436004 0 0 0 0.327628,0.374137 0.32758784,0.37436004 0 0 0 0.327628,-0.374137 0.32758784,0.37436004 0 0 0 -0.327628,-0.374139 z m -13.831197,0.219109 a 0.32758784,0.37436004 0 0 0 -0.327628,0.374137 0.32758784,0.37436004 0 0 0 0.327628,0.374655 0.32758784,0.37436004 0 0 0 0.327628,-0.374655 0.32758784,0.37436004 0 0 0 -0.327628,-0.374137 z m 1.058334,0.309542 a 0.32758784,0.37436004 0 0 0 -0.327629,0.374136 0.32758784,0.37436004 0 0 0 0.327629,0.374656 0.32758784,0.37436004 0 0 0 0.327628,-0.374656 0.32758784,0.37436004 0 0 0 -0.327628,-0.374136 z m -3.979601,2.795695 a 0.32758784,0.37436004 0 0 0 -0.327631,0.374137 0.32758784,0.37436004 0 0 0 0.327631,0.374137 0.32758784,0.37436004 0 0 0 0.327628,-0.374137 0.32758784,0.37436004 0 0 0 -0.327628,-0.374137 z m -15.44557,1.208712 a 0.32758784,0.37436004 0 0 0 -0.327629,0.374653 0.32758784,0.37436004 0 0 0 0.327629,0.374137 0.32758784,0.37436004 0 0 0 0.327628,-0.374137 0.32758784,0.37436004 0 0 0 -0.327628,-0.374653 z m 38.815718,2.313035 a 0.32758784,0.37436004 0 0 0 -0.327628,0.374656 0.32758784,0.37436004 0 0 0 0.327628,0.374136 0.32758784,0.37436004 0 0 0 0.327628,-0.374136 0.32758784,0.37436004 0 0 0 -0.327628,-0.374656 z m -9.821106,0.363287 a 0.32758784,0.37436004 0 0 0 -0.327628,0.374655 0.32758784,0.37436004 0 0 0 0.327628,0.374137 0.32758784,0.37436004 0 0 0 0.327629,-0.374137 0.32758784,0.37436004 0 0 0 -0.327629,-0.374655 z m -3.907255,0.293523 a 0.32758784,0.37436004 0 0 0 -0.327628,0.374137 0.32758784,0.37436004 0 0 0 0.327628,0.374136 0.32758784,0.37436004 0 0 0 0.327628,-0.374136 0.32758784,0.37436004 0 0 0 -0.327628,-0.374137 z m -25.630476,0.160195 a 0.32758784,0.37436004 0 0 0 -0.327628,0.374139 0.32758784,0.37436004 0 0 0 0.327628,0.374137 0.32758784,0.37436004 0 0 0 0.327629,-0.374137 0.32758784,0.37436004 0 0 0 -0.327629,-0.374139 z m 45.781185,0.03101 a 0.32758784,0.37436004 0 0 0 -0.327628,0.374137 0.32758784,0.37436004 0 0 0 0.327628,0.374655 0.32758784,0.37436004 0 0 0 0.327112,-0.374655 0.32758784,0.37436004 0 0 0 -0.327112,-0.374137 z m 1.221113,0.5271 a 0.32758784,0.37436004 0 0 0 -0.327629,0.374653 0.32758784,0.37436004 0 0 0 0.327629,0.374139 0.32758784,0.37436004 0 0 0 0.327628,-0.374139 0.32758784,0.37436004 0 0 0 -0.327628,-0.374653 z m -36.026741,0.2651 a 0.32758784,0.37436004 0 0 0 -0.327628,0.374136 0.32758784,0.37436004 0 0 0 0.327628,0.374656 0.32758784,0.37436004 0 0 0 0.327628,-0.374656 0.32758784,0.37436004 0 0 0 -0.327628,-0.374136 z m 13.802775,3.389974 a 0.32758784,0.37436004 0 0 0 -0.327628,0.374655 0.32758784,0.37436004 0 0 0 0.327628,0.374137 0.32758784,0.37436004 0 0 0 0.327629,-0.374137 0.32758784,0.37436004 0 0 0 -0.327629,-0.374655 z m -30.179552,1.807125 a 0.32758784,0.37436004 0 0 0 -0.32763,0.374655 0.32758784,0.37436004 0 0 0 0.32763,0.374137 0.32758784,0.37436004 0 0 0 0.327629,-0.374137 0.32758784,0.37436004 0 0 0 -0.327629,-0.374655 z m 1.856732,0.382405 a 0.32758784,0.37436004 0 0 0 -0.327628,0.374137 0.32758784,0.37436004 0 0 0 0.327628,0.374139 0.32758784,0.37436004 0 0 0 0.327629,-0.374139 0.32758784,0.37436004 0 0 0 -0.327629,-0.374137 z m 13.178007,0.740008 a 0.32758784,0.37436004 0 0 0 -0.327628,0.374652 0.32758784,0.37436004 0 0 0 0.327628,0.37414 0.32758784,0.37436004 0 0 0 0.327631,-0.37414 0.32758784,0.37436004 0 0 0 -0.327631,-0.374652 z m 10.987961,0.176215 a 0.32758784,0.37436004 0 0 0 -0.327629,0.374139 0.32758784,0.37436004 0 0 0 0.327629,0.374137 0.32758784,0.37436004 0 0 0 0.327628,-0.374137 0.32758784,0.37436004 0 0 0 -0.327628,-0.374139 z m -7.068302,2.138889 a 0.32758784,0.37436004 0 0 0 -0.327628,0.374653 0.32758784,0.37436004 0 0 0 0.327628,0.374139 0.32758784,0.37436004 0 0 0 0.327629,-0.374139 0.32758784,0.37436004 0 0 0 -0.327629,-0.374653 z m 21.06073,1.644859 a 0.32758784,0.37436004 0 0 0 -0.327628,0.374139 0.32758784,0.37436004 0 0 0 0.327628,0.374137 0.32758784,0.37436004 0 0 0 0.327628,-0.374137 0.32758784,0.37436004 0 0 0 -0.327628,-0.374139 z m 5.069975,2.329058 a 0.32758784,0.37436004 0 0 0 -0.327628,0.374137 0.32758784,0.37436004 0 0 0 0.327628,0.374655 0.32758784,0.37436004 0 0 0 0.327628,-0.374655 0.32758784,0.37436004 0 0 0 -0.327628,-0.374137 z m -26.230958,0.216525 a 0.32758784,0.37436004 0 0 0 -0.327628,0.374136 0.32758784,0.37436004 0 0 0 0.327628,0.374656 0.32758784,0.37436004 0 0 0 0.327112,-0.374656 0.32758784,0.37436004 0 0 0 -0.327112,-0.374136 z m 11.1125,1.849498 a 0.32758784,0.37436004 0 0 0 -0.327628,0.374137 0.32758784,0.37436004 0 0 0 0.327628,0.374655 0.32758784,0.37436004 0 0 0 0.327628,-0.374655 0.32758784,0.37436004 0 0 0 -0.327628,-0.374137 z M 48.49708,94.93258 a 0.32758784,0.37436004 0 0 0 -0.327631,0.374656 0.32758784,0.37436004 0 0 0 0.327631,0.374136 0.32758784,0.37436004 0 0 0 0.327628,-0.374136 0.32758784,0.37436004 0 0 0 -0.327628,-0.374656 z m 23.779427,0.03514 a 0.32758784,0.37436004 0 0 0 -0.327631,0.374653 0.32758784,0.37436004 0 0 0 0.327631,0.374137 0.32758784,0.37436004 0 0 0 0.327628,-0.374137 0.32758784,0.37436004 0 0 0 -0.327628,-0.374653 z m -2.828769,1.885157 a 0.32758784,0.37436004 0 0 0 -0.327628,0.374136 0.32758784,0.37436004 0 0 0 0.327628,0.374653 0.32758784,0.37436004 0 0 0 0.327628,-0.374653 0.32758784,0.37436004 0 0 0 -0.327628,-0.374136 z"
         transform="matrix(1.0060772,0,0,0.26374357,74.451012,81.852843)" />
    </g>
    <g
       aria-label="Ada  tress"
       id="text1735"
       style="font-size:28.2222px;line-height:1.25;stroke-width:0.264583">
      <path
         d="m 24.444053,185.39284 0.316949,-1.66743 h 1.681205 l 11.423928,-18.90667 h 3.293508 l 4.07899,18.90667 h 1.956813 l -0.316949,1.66743 h -9.632479 l 0.316948,-1.66743 h 2.011935 l -0.868164,-4.20301 h -7.730788 l -2.549369,4.20301 h 2.452906 l -0.316948,1.66743 z m 7.524083,-7.53787 h 6.380312 l -1.639865,-7.86859 z"
         style="font-style:italic;font-weight:bold;font-family:serif;-inkscape-font-specification:'serif Bold Italic'"
         id="path107" />
      <path
         d="m 59.900949,178.79204 0.275608,-1.44694 q 0.261827,-1.36426 0.261827,-2.32888 0,-0.8406 -0.206706,-1.37804 -0.427191,-1.14377 -1.87413,-1.14377 -1.515841,0 -2.370224,1.21267 -0.840603,1.19889 -1.46072,4.3546 -0.37207,1.94303 -0.37207,3.14192 0,0.75793 0.137804,1.22646 0.38585,1.21267 1.887911,1.21267 1.446939,0 2.328883,-1.14377 0.895724,-1.14377 1.391817,-3.70692 z m 7.758349,-14.84146 -4.161672,21.44226 h -4.878251 l 0.358289,-1.86035 q -0.840602,1.14377 -2.011934,1.70876 -1.157551,0.55122 -2.700953,0.55122 -3.114364,0 -4.492401,-2.06706 -0.923285,-1.37803 -0.923285,-3.41753 0,-1.03353 0.234267,-2.2462 0.702799,-3.61046 2.880097,-5.66373 2.191079,-2.05328 5.305443,-2.05328 1.543402,0 2.480467,0.565 0.950846,0.55121 1.350476,1.69498 l 1.364257,-7.00043 h -2.094616 l 0.316948,-1.65364 z"
         style="font-style:italic;font-weight:bold;font-family:serif;-inkscape-font-specification:'serif Bold Italic'"
         id="path109" />
      <path
         d="m 79.868705,173.32123 q -0.04134,-0.82682 -0.826822,-0.82682 -1.84657,0 -3.651798,2.20486 -0.840603,1.01975 -1.502061,4.4235 -0.496093,2.54937 -0.137803,3.54155 0.358289,0.97841 1.667425,0.97841 1.281574,0 2.080836,-1.14377 0.813042,-1.14377 1.309135,-3.70692 z m 4.685327,-2.13596 -2.411565,12.54014 1.832789,-0.0276 -0.330729,1.69499 h -6.118485 l 0.35829,-1.86035 q -1.515841,2.25998 -4.203013,2.25998 -2.659612,0 -3.844724,-1.75011 -1.185112,-1.76389 -0.578775,-4.82313 0.592556,-3.07302 3.238387,-5.73263 3.128144,-3.14193 7.317377,-3.14193 4.134111,0 4.740448,0.8406 z"
         style="font-style:italic;font-weight:bold;font-family:serif;-inkscape-font-specification:'serif Bold Italic'"
         id="path111" />
      <path
         d="m 109.71699,172.41173 h -2.12218 l 0.31695,-1.66743 h 2.12218 l 0.88194,-4.54752 h 4.87825 l -0.88194,4.54752 h 4.06521 l -0.31695,1.66743 h -4.06521 l -1.75011,8.97102 q -0.23426,1.22645 -0.23426,1.84657 0,0.37207 0.0689,0.53743 0.22049,0.46854 1.01975,0.46854 0.88194,0 1.41938,-0.59256 0.53743,-0.59256 0.81304,-1.83279 h 2.05327 q -0.55121,2.20486 -1.80523,3.10058 -1.25401,0.88195 -3.89984,0.88195 -3.0179,0 -3.91363,-0.95085 -0.57877,-0.60633 -0.57877,-1.87413 0,-0.68902 0.17914,-1.58474 z"
         style="font-style:italic;font-weight:bold;font-family:serif;-inkscape-font-specification:'serif Bold Italic'"
         id="path113" />
      <path
         d="m 135.83079,170.57894 -0.85438,4.36838 h -1.55718 q 0.0413,-0.28939 0.0413,-0.53744 0,-0.7717 -0.33073,-1.19889 -0.44097,-0.57878 -1.48828,-0.57878 -1.59852,0 -2.79741,1.4056 -1.1989,1.4056 -1.68121,3.89985 l -1.44694,7.45518 h -4.87825 l 2.52181,-12.98111 h -2.23242 l 0.31695,-1.66743 h 7.11067 l -0.49609,2.60449 q 1.00596,-1.52962 2.32888,-2.25998 1.32291,-0.74414 3.03168,-0.74414 0.42719,0 1.01975,0.0689 0.60633,0.0551 1.39181,0.16537 z"
         style="font-style:italic;font-weight:bold;font-family:serif;-inkscape-font-specification:'serif Bold Italic'"
         id="path115" />
      <path
         d="m 145.97315,173.92757 q 0,-2.02572 -1.70877,-2.02572 -1.30914,0 -2.08084,1.24024 -0.7717,1.22645 -1.4745,5.09873 0,0 0.30317,0 4.2168,0 4.86447,-3.34863 0.0965,-0.52365 0.0965,-0.96462 z m -5.59483,5.95312 q -0.0827,0.46853 -0.0827,1.44694 0.0138,2.90766 2.83876,2.90766 1.58474,0 2.72851,-0.84061 1.14377,-0.8406 1.72255,-2.43912 h 2.28754 q -1.07487,2.49425 -3.07302,3.66558 -1.98438,1.17133 -5.15386,1.17133 -3.80338,0 -5.44325,-1.99816 -1.14377,-1.40559 -1.14377,-3.62423 0,-0.95085 0.22049,-2.06706 0.7028,-3.67936 3.18326,-5.71885 2.48047,-2.0395 6.11849,-2.0395 2.63205,0 4.45106,1.03353 1.83279,1.01975 1.83279,2.8801 0,0.37207 -0.0827,0.7717 -0.86817,4.46484 -10.40418,4.85069 z"
         style="font-style:italic;font-weight:bold;font-family:serif;-inkscape-font-specification:'serif Bold Italic'"
         id="path117" />
      <path
         d="m 152.84955,180.87288 h 1.55718 q -0.0138,0.2067 -0.0138,0.39963 0,1.35047 0.81305,2.16351 0.81304,0.79927 2.4529,0.79927 3.21083,0 3.59668,-1.99816 0.0551,-0.26182 0.0551,-0.64767 0,-0.37207 -0.35829,-0.78549 -0.34451,-0.41341 -1.72255,-0.7717 l -1.91547,-0.50987 q -2.16351,-0.565 -2.85253,-1.46072 -0.68902,-0.89572 -0.68902,-1.99815 0,-0.46854 0.0965,-1.00597 0.46853,-2.38401 2.34266,-3.54156 1.88791,-1.17133 4.89204,-1.17133 3.00412,0 6.28384,0.88195 l -0.73035,3.69314 h -1.55719 q 0.0413,-0.26183 0.0413,-0.4961 0,-2.52181 -3.11436,-2.52181 -3.12814,0 -3.48643,1.86035 -0.0413,0.22049 -0.0413,0.53744 0,0.89572 1.69498,1.35048 l 1.90169,0.50987 q 2.7423,0.73036 3.50022,1.65364 0.75792,0.90951 0.75792,2.09462 0,0.48231 -0.11025,1.04731 -0.48231,2.48046 -2.48046,3.66558 -1.99816,1.17133 -5.73264,1.17133 -2.71473,0 -5.9669,-0.82682 z"
         style="font-style:italic;font-weight:bold;font-family:serif;-inkscape-font-specification:'serif Bold Italic'"
         id="path119" />
      <path
         d="m 168.73832,180.87288 h 1.55718 q -0.0138,0.2067 -0.0138,0.39963 0,1.35047 0.81304,2.16351 0.81304,0.79927 2.45291,0.79927 3.21082,0 3.59667,-1.99816 0.0551,-0.26182 0.0551,-0.64767 0,-0.37207 -0.35829,-0.78549 -0.3445,-0.41341 -1.72254,-0.7717 l -1.91547,-0.50987 q -2.16352,-0.565 -2.85254,-1.46072 -0.68902,-0.89572 -0.68902,-1.99815 0,-0.46854 0.0965,-1.00597 0.46854,-2.38401 2.34267,-3.54156 1.88791,-1.17133 4.89203,-1.17133 3.00412,0 6.28385,0.88195 l -0.73036,3.69314 h -1.55718 q 0.0413,-0.26183 0.0413,-0.4961 0,-2.52181 -3.11437,-2.52181 -3.12814,0 -3.48643,1.86035 -0.0413,0.22049 -0.0413,0.53744 0,0.89572 1.69498,1.35048 l 1.9017,0.50987 q 2.74229,0.73036 3.50021,1.65364 0.75792,0.90951 0.75792,2.09462 0,0.48231 -0.11024,1.04731 -0.48232,2.48046 -2.48047,3.66558 -1.99815,1.17133 -5.73263,1.17133 -2.71474,0 -5.9669,-0.82682 z"
         style="font-style:italic;font-weight:bold;font-family:serif;-inkscape-font-specification:'serif Bold Italic'"
         id="path121" />
    </g>
  </g>
</svg>
