<?xml version="1.0" encoding="UTF-8"?>
<!-- Created by Rory Lipkis -->
<svg width="168.83mm" height="54.541mm" version="1.1" viewBox="0 0 168.83 54.541" xmlns="http://www.w3.org/2000/svg">
 <defs>
  <filter id="filter14275" x="0" y="0" width="1" height="1" color-interpolation-filters="sRGB">
   <feTurbulence baseFrequency="0.04" numOctaves="5" result="result4" type="fractalNoise"/>
   <feDisplacementMap in="SourceGraphic" in2="result4" result="result3" scale="10" xChannelSelector="R" yChannelSelector="G"/>
   <feDiffuseLighting lighting-color="#e9e6d7" in="result4" result="result1" surfaceScale="2">
    <feDistantLight azimuth="235" elevation="40"/>
   </feDiffuseLighting>
   <feComposite in="result3" in2="result1" operator="in" result="result2"/>
   <feComposite in2="result1" k1="1.7" operator="arithmetic" result="result5"/>
   <feBlend in="result5" in2="result3"/>
  </filter>
  <filter id="filter42098" x="-.0062666" y="-.0075299" width="1.0125" height="1.0151" color-interpolation-filters="sRGB">
   <feTurbulence baseFrequency="0.04" numOctaves="5" result="result4" type="fractalNoise"/>
   <feDisplacementMap in="SourceGraphic" in2="result4" result="result3" scale="10" xChannelSelector="R" yChannelSelector="G"/>
   <feDiffuseLighting lighting-color="#e9e6d7" in="result4" result="result1" surfaceScale="2">
    <feDistantLight azimuth="235" elevation="40"/>
   </feDiffuseLighting>
   <feComposite in="result3" in2="result1" operator="in" result="result2"/>
   <feComposite in2="result1" k1="1.7" operator="arithmetic" result="result5"/>
   <feBlend in="result5" in2="result3"/>
  </filter>
 </defs>
 <g transform="translate(-19.444 -144)">
  <g transform="matrix(.42484 0 0 .42484 50.788 113.55)">
   <path transform="scale(.26458)" d="m446.49 369.42c0.56004-0.0214-7.2601 0.0547-26.336 0.0625-1.1844-7e-3 -2.3661-2e-3 -3.5488 6e-3 -1.2769-3.4e-4 -1.4121 5e-3 -2.793 4e-3h2.4668c-4.5417 0.0378-9.0625 0.2015-13.49 0.70118-7.2935 0.82307-14.387 2.2338-21.473 3.6484-4.33 0.94489-8.5902 2.0381-12.801 3.2168h28.145c4.2355-1.1724 8.5185-2.2631 12.865-3.2168 7.3465-1.4332 14.684-2.8519 22.246-3.6484 5.545-0.58409 14.082-0.74912 14.719-0.77344zm-25.146 0.0723h22.535c-7.2911 0.34691-14.91 0.0718-22.535 0zm105.76 2.6816c0.56068-0.0214-7.2584 0.0549-26.387 0.0625-1.1805-7e-3 -2.3583-2e-3 -3.5371 6e-3 -1.2596-3.4e-4 -1.3914 5e-3 -2.752 4e-3h2.4023c-4.5204 0.0389-9.0206 0.20382-13.428 0.70117-7.2935 0.82308-14.387 2.2319-21.473 3.6465-0.65944 0.1439-1.3058 0.31563-1.9629 0.46484h28.209c0.65761-0.1495 1.3052-0.3201 1.9648-0.46484 7.3465-1.4332 14.684-2.8499 22.246-3.6465 5.5449-0.58409 14.08-0.74912 14.717-0.77343zm-25.146 0.0723h22.537c-7.2914 0.34692-14.911 0.0717-22.537 0zm-150.49 10.414c-0.60657 0.23235-1.2321 0.4394-1.834 0.67774-5.6272 2.2285-9.6779 4.1537-15.08 6.6133-0.32466 0.16122-0.64416 0.32881-0.96875 0.49023h28.035c0.32889-0.15989 0.6445-0.33144 0.97461-0.49023 5.3116-2.4376 9.4475-4.4226 15-6.6133 0.60596-0.23907 1.2368-0.44505 1.8477-0.67774zm88.311 0c-3.2282 1.0741-6.4209 2.1979-9.5312 3.4297-3.7513 1.4856-6.8905 2.8874-10.107 4.3516h28.002c3.2136-1.4741 6.3635-2.8899 10.068-4.3516 3.133-1.2361 6.3519-2.3588 9.6055-3.4297zm-117.26 13.383c-4.2814 2.229-8.5012 4.5139-12.586 6.9082-0.22503 0.1319-1.0015 0.6189-1.4199 0.87305h28.742c4.3897-2.6907 8.9074-5.2767 13.52-7.7812zm86.051 0c-4.9637 2.5103-9.8445 5.0949-14.609 7.7812h28.543c4.5718-2.6939 9.2521-5.297 14.068-7.7812zm-108.9 13.383c-3.3827 2.4341-6.5296 5.0337-9.3867 7.7812h28.596c2.9279-2.7604 6.1847-5.3502 9.6992-7.7812zm84.826 0c-1.1197 0.69262-2.3804 1.4615-2.8848 1.7734-2.7252 1.8952-5.2895 3.9122-7.7129 6.0078h28.744c2.4729-2.0944 5.0613-4.1253 7.8945-6.0078 0.92533-0.60117 1.88-1.1793 2.8144-1.7734zm-99.455 13.383c-0.0897 0.10966-0.19646 0.21221-0.28516 0.32227-2.3231 2.8824-3.6336 5.0193-5.0664 7.457h28.156c0.50978-0.82665 0.99138-1.6623 1.5527-2.4727 1.2567-1.8141 2.629-3.5826 4.1035-5.3066zm83.041 0c-0.93616 1.0122-1.8674 2.0272-2.7129 3.0762-1.4839 1.8412-2.4508 3.2573-3.375 4.7031h28.234c1.8956-2.7046 4.101-5.2819 6.4785-7.7793zm-91.41 13.383c-1.2047 2.5244-2.4771 5.2751-3.3516 7.7793h27.975c0.87895-2.6299 2.1124-5.2199 3.3809-7.7793zm81.941 0c-0.0649 0.10964-0.0992 0.16683-0.16601 0.2793-0.96395 2.0525-2.3206 4.84-3.4492 7.5h27.947c1.073-2.5363 2.3561-5.0466 3.5488-7.5 0.0585-0.0932 0.11774-0.18598 0.17578-0.2793zm-86.568 13.381c-0.30723 2.592-0.28069 5.2196 0.01 7.7812h27.893c-0.27557-2.5914-0.27245-5.1939 0.0625-7.7812zm81.088 0c-0.55133 2.5471-0.76339 5.1746-0.67187 7.7812h27.91c-0.0679-2.6034 0.17536-5.2057 0.7461-7.7812zm-80.045 13.383c0.19434 0.71136 0.3631 1.4267 0.65625 2.1211 0.82407 1.952 2.0924 3.797 3.2832 5.6602h27.562c-1.0822-1.868-2.2325-3.7206-2.9941-5.6602-0.27362-0.69683-0.44173-1.4107-0.63281-2.1211zm79.99 0c0.2769 1.6455 0.61193 3.2876 1.2813 4.873 0.42042 0.99587 1.0046 1.9528 1.5918 2.9082h27.717c-0.53609-0.95854-1.0698-1.917-1.459-2.9082-0.6253-1.5924-0.96845-3.2306-1.248-4.873zm-71.908 13.383c2.1978 2.6764 4.5874 5.2632 7.1172 7.7812h26.908c-2.4169-2.5176-4.6854-5.106-6.752-7.7812zm78.488 0c2.0256 2.6721 4.2198 5.2666 6.582 7.7812h27.033c-2.2465-2.5154-4.3134-5.1102-6.2051-7.7812zm-65.299 13.383c3.0413 2.6724 6.2364 5.2609 9.5547 7.7812h26.396c-3.2371-2.5165-6.3407-5.1046-9.2793-7.7812zm77.525 0c2.8719 2.6778 5.9323 5.2584 9.0976 7.7812h26.488c-3.0755-2.5203-6.0396-5.1001-8.8008-7.7812zm-60.35 13.383c3.8497 2.6845 7.808 5.2522 11.816 7.7812h26.135c-3.7215-2.3341-7.3906-4.7317-11.703-7.7812zm76.859 0c1.2194 0.88485 2.3848 1.803 3.6289 2.6719 2.5221 1.7614 5.1354 3.4277 7.7344 5.1094h26.172c-2.4534-1.5963-4.819-3.1018-7.6543-5.1094-1.2236-0.86641-2.3603-1.7877-3.5566-2.6719zm-56.062 13.383c0.63926 0.39736 1.2706 0.7925 1.9102 1.1914 3.6505 2.2446 7.3983 4.4118 11.133 6.5898h26.531c-3.8288-2.1722-7.6721-4.333-11.398-6.5898-0.73573-0.45338-1.2382-0.76484-1.9336-1.1914zm76.199 0c2.1088 1.312 4.2066 2.6245 6.3242 3.9453 2.1256 1.3069 4.3199 2.5584 6.4824 3.8359h26.422c-2.213-1.2779-4.4671-2.5219-6.6367-3.8359-2.4356-1.5009-4.323-2.6698-6.4004-3.9453zm-53.771 13.383c3.1221 1.8467 6.2745 3.6698 9.3066 5.5879 1.046 0.66164 2.2106 1.4619 3.3301 2.1934h27.311c-1.1705-0.73307-2.4323-1.5593-3.4746-2.1934-3.1504-1.9164-6.412-3.7408-9.6465-5.5879zm76.029 0c4.3732 2.5513 8.7214 5.1236 12.961 7.7812h27.131c-4.4035-2.6551-8.9088-5.2253-13.432-7.7812zm-55.535 13.383c0.91257 0.70906 1.9674 1.4194 2.7617 2.1152 1.7666 1.5475 3.2157 3.2547 4.8242 4.8828 0.16645 0.26314 0.34976 0.52196 0.52344 0.7832h28.068c-0.18344-0.26195-0.30569-0.52028-0.49805-0.7832-1.687-1.6281-3.2113-3.3427-5.0625-4.8828-0.80725-0.67162-1.9523-1.4065-2.916-2.1152zm77.021 0c2.2936 1.6088 4.526 3.2663 6.3535 4.8672 1.0538 0.92311 1.9492 1.9274 2.8789 2.9141h28.072c-0.98333-0.9968-1.9798-1.9873-3.0938-2.9141-1.8574-1.5453-4.2567-3.2304-6.709-4.8672zm-65.594 13.383c1.1617 2.5555 1.9239 5.1559 2.2832 7.7812h27.857c-0.25017-2.6924-1.0553-5.2506-2.2012-7.7812zm79.137 0c0.39841 0.62794 0.81396 1.2513 1.1348 1.9004 0.95499 1.9321 1.5779 3.9006 2.0547 5.8809h27.896c-0.57564-2.6483-1.5686-5.2274-3.0469-7.7812zm-76.67 13.383c-0.13704 2.6064-0.57686 5.2046-1.3027 7.7793h27.113c0.97949-2.535 1.4378-5.1596 1.7363-7.7793zm80.654 0c0.0971 2.5959-0.15196 5.1946-0.67968 7.7793h27.246c0.49187-1.9148 0.85592-3.848 1.0527-5.7852 0.07-0.68894-0.0102-1.3253 6e-3 -1.9942zm-83.955 13.381c-0.76677 1.7752-1.603 3.5344-2.5742 5.248-0.4894 0.86357-1.1109 1.6871-1.6582 2.5332h25.752c1.8024-2.4289 3.5326-5.0234 4.9922-7.7812zm81.75 0c-0.95146 2.65-2.1766 5.2525-3.5957 7.7812h25.93c1.5873-2.3376 3.0129-4.9067 4.3262-7.7812zm-89.762 13.383c-1.0457 1.4409-2.1047 2.8782-3.1016 4.334-1.001 1.1407-1.9701 2.2959-2.9473 3.4473h24.785c1.0329-1.1513 2.0579-2.3065 3.1133-3.4473 1.3126-1.7122 2.1953-2.8739 3.3516-4.334zm82.531 0c-1.6662 2.3647-3.3903 4.7116-5.0176 7.0879-0.2012 0.22928-0.39204 0.46344-0.5918 0.69336h24.916c0.21106-0.23024 0.41453-0.46376 0.62695-0.69336 2.1466-2.8 3.7351-4.8523 5.4805-7.0879zm-93.477 13.383c-1.2251 1.3916-2.4209 2.7961-3.7344 4.1484-1.193 1.2283-2.4626 2.4221-3.6953 3.6328h24.176c1.2816-1.2105 2.5961-2.4068 3.8418-3.6328 1.3745-1.3527 2.6384-2.7568 3.9297-4.1484zm83.078 0c-1.9906 2.334-4.0154 4.652-6.1992 6.9004-0.28934 0.2979-0.60478 0.58398-0.89648 0.88086h24.287c0.30419-0.29639 0.62956-0.58357 0.93164-0.88086 2.2848-2.2485 4.4206-4.5671 6.5234-6.9004zm-96.408 13.383c-2.8927 2.6443-5.8868 5.235-8.9648 7.7812h23.736c3.1465-2.5502 6.2138-5.1415 9.1914-7.7812zm83.615 0c-2.7856 2.6382-5.6542 5.2359-8.623 7.7812h23.799c3.0467-2.5503 6.0029-5.1467 8.8828-7.7812zm-99.588 13.383c-3.4574 2.6594-7.0212 5.25-10.674 7.7812h23.5c3.6825-2.5346 7.2817-5.1259 10.783-7.7812zm84.162 0c-3.3252 2.6518-6.7385 5.25-10.256 7.7812h23.523c3.5565-2.5358 7.0214-5.1325 10.4-7.7812zm-103.24 13.383c-4.1787 2.677-8.4502 5.2789-12.84 7.7812h23.459c4.3849-2.5052 8.6559-5.1075 12.84-7.7812zm84.914 0c-4.0276 2.6842-8.1953 5.2614-12.432 7.7812h23.449c4.2388-2.5232 8.4158-5.1001 12.457-7.7812zm-108.03 13.383c-0.57626 0.29956-1.1316 0.61952-1.7109 0.91602-4.7314 2.4216-9.6671 4.6416-14.6 6.8652h23.566c4.9109-2.2234 9.8242-4.4436 14.533-6.8652 0.57661-0.29653 1.1295-0.61649 1.7031-0.91602zm85.754 0c-2.2696 1.2356-4.5303 2.4809-6.8496 3.668-2.8077 1.437-5.7146 2.777-8.625 4.1133h23.537c2.8982-1.3362 5.7932-2.6761 8.5879-4.1133 2.3096-1.1877 4.5613-2.4328 6.8223-3.668zm-115.21 13.383c-6.8284 2.7772-13.796 5.3687-20.898 7.7812h24.285c6.9173-2.4253 13.705-5.0182 20.357-7.7812zm87.492 0c-0.0116 5e-3 -0.0236 0.0102-0.0352 0.0156-6.431 2.7605-13.024 5.3258-19.711 7.7656h24.025c6.537-2.4525 12.984-5.0205 19.275-7.7656 0.0116-5e-3 0.0236-0.0102 0.0351-0.0156zm-126.38 13.383c-9.1744 2.609-18.476 5.0047-28.023 6.9238-1.7059 0.34291-3.2022 0.56131-4.8203 0.85742h26.125c1.5538-0.29425 3.0688-0.52639 4.6524-0.85742 9.1947-1.922 18.136-4.321 26.951-6.9238zm90.238 0c-9.4024 2.9476-19.023 5.5539-28.842 7.7812h25.604c9.4595-2.2329 18.712-4.8471 27.754-7.7812zm-156.93 13.383c-9.0068 1.5931-17.966 3.3077-26.865 5.1758h28.35c8.5232-1.8985 17.127-3.6027 25.783-5.1758zm97.162 0c-1.6527 0.24632-3.1741 0.48059-4.9219 0.74414-12.731 1.9688-25.271 4.4224-37.75 7.0352h28.316c12.011-2.6653 24.114-5.1026 36.422-7.0352 1.613-0.25402 3.1336-0.49874 4.709-0.74414z" fill-opacity=".98858" filter="url(#filter14275)" stroke-width=".67029"/>
   <g transform="rotate(10.78 125.91 107.1)">
    <g transform="translate(.067383 .97588)">
     <path d="m121.21 82.481c0.2723-0.0154 0.73969 0.10104 1.0836 0.26901 0.58901 0.28771 0.67878 0.36532 0.758 0.65543 0.0208 0.07701 0.0711 0.12252 0.1112 0.10146 0.0403-0.02091 0.17679 0.18888 0.30362 0.46668 0.23199 0.50817 0.28874 1.0954 0.18089 1.8717-0.0692 0.49864-1.1141 1.9687-1.5726 2.2126-0.22069 0.11729-0.30784 0.21672-0.25102 0.28613 0.0564 0.06882 0.26035 0.0028 0.57895-0.1878 0.40082-0.23968 0.53986-0.2707 0.75092-0.16757 0.14245 0.06967 0.29853 0.1057 0.34682 0.07998 0.0483-0.02572 0.35428 0.03603 0.67997 0.13721 0.53886 0.16726 0.65908 0.15662 1.335-0.11814 0.40858-0.16611 0.78027-0.27358 0.82598-0.23886 0.0457 0.03462 0.12717 0.01131 0.18093-0.05271 0.0538-0.06359 0.2388-0.12704 0.41109-0.14103 0.17229-0.01413 0.26908-0.04395 0.21507-0.0667-0.11626-0.04918 5e-3 -0.56606 0.1519-0.64383 0.0864-0.04593 0.42282-0.52312 1.5482-2.1958 0.26253-0.39019 0.25476-0.48125-0.0568-0.66491-0.54522-0.32147-1.0238-0.8907-1.2186-1.4494-0.20332-0.58314-0.21894-1.5314-0.0331-2.0134 0.16116-0.41817 0.76762-1.2864 1.0684-1.5295 0.41984-0.3394 1.2442-0.71204 1.3677-0.61825 0.0638 0.04847 0.15128 0.06514 0.19442 0.03702 0.15274-0.09962 0.44753-0.10344 0.48659-0.0057 0.0218 0.05412 0.0966 0.06811 0.16622 0.03109 0.0696-0.03702 0.24302 0.05822 0.38534 0.21154 0.14231 0.15336 0.30455 0.28794 0.36051 0.29902 0.31917 0.06331 1.0625 1.9877 0.81799 2.1178-0.0464 0.02459-0.055 0.11828-0.0188 0.20781 0.1496 0.3717-0.46959 1.7326-1.0771 2.3673-0.39622 0.41396-0.51258 0.48294-1.0068 0.59686l-0.55877 0.12874-0.58149 0.85789c-0.98194 1.4487-1.4378 2.1925-1.4004 2.2853 0.0401 0.09962 1.2221 0.11715 1.4033 0.02091 0.0643-0.0342 0.16053-0.01413 0.21396 0.04635 0.0644 0.07193-4e-3 0.17052-0.20475 0.29258-0.5343 0.32576-0.56223 0.36812-0.44112 0.66902 0.0955 0.23722 0.14539 0.26172 0.27779 0.13622 0.18531-0.17551 0.17057-0.26876-0.0578-0.3652-0.12535-0.05299-0.13268-0.08662-0.033-0.15137 0.0704-0.04593 0.15892-0.09397 0.19659-0.10669 1.0921-0.3736 2.6452-1.014 3.294-1.3581 0.77985-0.41377 0.84372-0.46925 0.88198-0.76697 0.0505-0.39352 0.11353-0.59105 0.42373-1.3293 0.42972-1.0227 0.86838-1.6272 1.4633-2.0163 0.56654-0.37059 1.66-0.75569 1.8162-0.63963 0.0488 0.03632 0.17949 0.04225 0.29042 0.01272 0.11094-0.02897 0.21359 0.0042 0.22813 0.07278 0.0145 0.0691 0.14018 0.1009 0.27922 0.07051 0.13903-0.03038 0.26793-0.01738 0.28644 0.02854 0.0186 0.04607 0.15733 0.14166 0.30848 0.21256 0.15115 0.0708 0.32352 0.20636 0.38306 0.30099 0.0595 0.09468 0.17131 0.23668 0.24839 0.31566 0.077 0.07899 0.13342 0.2076 0.12522 0.28582-8e-3 0.07829 0.0264 0.12026 0.0769 0.09355 0.0505-0.02685 0.0976-0.10287 0.10443-0.16888 8e-3 -0.06613 0.25909-0.32226 0.56033-0.5694l0.54771-0.44937-0.22531-0.34565c-0.12392-0.19012-0.30955-0.56684-0.41253-0.83717-0.15323-0.40228-0.2357-0.49802-0.45415-0.52736-0.34438-0.04621-1.1396-0.50748-1.2418-0.72032-0.0887-0.18474-0.18426-0.33338-0.25231-0.39283-0.15036-0.13142-0.38814-0.80557-0.44418-1.2596-0.11495-0.93151 0.2054-2.1011 0.67831-2.4759 0.0871-0.0691 0.16776-0.17913 0.1792-0.24454 0.0191-0.10966 1.0372-0.67168 1.4943-0.8251 0.36147-0.12139 0.59338-0.08366 0.60398 0.09821 8e-3 0.12605 0.0508 0.13594 0.14811 0.03392 0.157-0.16501 0.55324 0.06896 0.52773 0.31169-9e-3 0.09171 0.0139 0.09934 0.0599 0.01922 0.0922-0.16047 0.46583 0.22802 0.48173 0.50093 8e-3 0.14075 0.0452 0.14845 0.14508 0.03038 0.10341-0.12238 0.12874-0.11404 0.11042 0.03589-0.013 0.10697 0.10314 0.53079 0.25803 0.94178 0.40288 1.069 0.40172 1.0562 0.16983 1.875-0.23162 0.81781-0.46776 1.2142-0.96033 1.6122-0.3348 0.27053-0.31141 0.38502 0.0538 0.26345 0.11509-0.0383 0.3564-0.0071 0.53634 0.06854 0.26155 0.11036 0.34081 0.20924 0.39516 0.49246 0.0526 0.27409 0.0183 0.38065-0.15104 0.47076-0.26961 0.14336-0.29844 0.49935-0.0738 0.9119 0.0933 0.17138 0.14164 0.36033 0.10742 0.41986-0.0342 0.05949-0.12068-0.03717-0.19218-0.21465-0.0714-0.17757-0.1669-0.30324-0.21208-0.2792-0.0479 0.02558 0.0175 0.19087 0.1571 0.39701 0.34316 0.50674 0.36955 0.60452 0.1888 0.69952-0.22551 0.11856-0.62978-0.28577-0.56523-0.56536 0.0413-0.17893-0.0279-0.15933-0.47687 0.13509-0.62297 0.40853-1.2503 0.9228-1.3613 1.116-0.11586 0.20159-0.0117 0.38414 0.12666 0.22101 0.12847-0.15199 0.13883 0.0057 0.0295 0.4497-0.0429 0.17376-0.0279 0.23913 0.0456 0.2 0.0839-0.04465 0.10651 0.01131 0.0974 0.23656-7e-3 0.16207 6e-3 0.24328 0.0286 0.18047 0.0223-0.06288 0.24262-0.06189 0.48969 0.0014 0.99202 0.25672 1.366 0.23237 1.3521-0.08804-5e-3 -0.12224 7e-3 -0.12775 0.0551-0.02501 0.034 0.07249 0.0422 0.28437 0.0183 0.47086-0.0255 0.1973-3e-3 0.31699 0.0555 0.28631 0.0546-0.02897 0.10469-0.16217 0.11145-0.29589 8e-3 -0.15014 0.1186-0.30399 0.29002-0.40206 0.19386-0.11093 0.27161-0.1098 0.25748 0.0028-0.0117 0.08931 0.0159 0.25194 0.0598 0.36133 0.0574 0.14275 7e-3 0.24961-0.18039 0.37876-0.14324 0.09892-0.25484 0.23706-0.24804 0.30697 0.0191 0.19597-0.14785 0.23674-0.22137 0.05412-0.0552-0.13721-0.2166-0.07899-1.035 0.37309l-0.9696 0.53566-0.12288 0.47803c-0.0675 0.26292-0.2373 0.70188-0.3772 0.97547-0.25072 0.49029-0.25065 0.50485 5e-3 1.0114 0.14276 0.28269 0.33324 0.68902 0.4233 0.90294 0.11899 0.28279 0.22895 0.39335 0.40264 0.40494 0.29428 0.01964 0.3568-0.12153 0.11301-0.25507-0.14943-0.08196-0.15498-0.11291-0.032-0.17836 0.17476-0.09298 0.0909-0.38186-0.10755-0.3705-0.0813 0.0042-0.0729-0.0301 0.0212-0.08592 0.0865-0.05158 0.13882-0.1399 0.11613-0.19604-0.0226-0.05624 0.0288-0.10768 0.11444-0.11418 0.0856-0.0057 0.21029-0.10174 0.27712-0.21161 0.0987-0.16211 0.0943-0.18587-0.0234-0.12647-0.20386 0.10288-0.64255-1.1915-0.5071-1.4962 0.13217-0.29747 0.3916-0.40669 0.5793-0.24407 0.26292 0.22792 0.53106 0.85864 0.47263 1.1118-0.046 0.19952-0.0324 0.2238 0.0894 0.15902 0.0791-0.04197 0.16785-0.21905 0.1973-0.39328 0.0316-0.18721 0.0712-0.24755 0.0966-0.14753 0.0236 0.09312 0.0956 0.22786 0.15989 0.29941 0.0643 0.07164 0.16618 0.19035 0.22649 0.264 0.0697 0.08521 0.0783 0.04805 0.0238-0.10146-0.11302-0.30964 0.11391-0.74067 0.49745-0.94465 0.16912-0.08987 0.3408-0.26776 0.38151-0.39513 0.0657-0.20585 0.0579-0.22306-0.0703-0.15484-0.0794 0.04211-0.1264 0.12096-0.1047 0.17524 0.0218 0.05426-0.086 0.16036-0.23945 0.23599-0.17869 0.08804-0.30132 0.08224-0.34094-0.01611-0.0456-0.11319-0.11795-0.1016-0.27455 0.04367-0.1961 0.18202-0.20646 0.17791-0.13273-0.05285 0.044-0.13764 0.0652-0.28683 0.0473-0.33154-0.0355-0.08804 0.50846-0.68263 0.84146-0.91995 0.25995-0.18527 0.75718-0.10768 0.77048 0.12026 5e-3 0.09468 0.13685 0.28894 0.29183 0.43147 0.15499 0.1426 0.3155 0.34291 0.35668 0.44526 0.0412 0.10245 0.13618 0.1826 0.2111 0.17831 0.075-0.0042 0.0448 0.04536-0.067 0.11036-0.11496 0.06684-0.17623 0.18533-0.14102 0.27284 0.0527 0.13085-0.1082 0.51056-0.24779 0.58483-0.0235 0.01272-0.11093-0.1466-0.19428-0.35374-0.17591-0.43712-0.29353-0.52032-0.37503-0.2653-0.0443 0.13863 0.0139 0.24958 0.24763 0.47253 0.25577 0.24392 0.28832 0.31178 0.19979 0.4165-0.0582 0.06882-0.0911 0.2191-0.0731 0.33398 0.0229 0.14646-0.11691 0.33748-0.46781 0.63938-0.27524 0.2368-0.55526 0.42292-0.62229 0.41359-0.067-0.0099-0.12834 0.08069-0.13638 0.19998-0.0104 0.16295-0.16325 0.30041-0.61247 0.55271-0.35268 0.19809-0.53021 0.34183-0.43283 0.35048 0.0908 0.0071 0.22153 0.15481 0.29045 0.32608 0.12613 0.31354 0.23073 0.32509 0.62022 0.06854 0.1247-0.08224 0.1791-0.03886 0.24645 0.19696 0.0666 0.23295 0.0269 0.36125-0.17263 0.55889-0.21225 0.21016-0.23776 0.30942-0.14122 0.54928 0.20601 0.512 0.33665 0.58179 0.7136 0.38129 0.43912-0.23357 0.67521-0.25415 0.75116-0.06543 0.0659 0.16351-0.16278 0.30793-0.9554 0.60362-0.4681 0.17465-0.51775 0.16778-0.62026-0.08549-0.1584-0.3915-0.60548-0.97365-0.70645-0.91994-0.0469 0.02501-3e-3 0.17463 0.0973 0.33268 0.15938 0.25093 0.15643 0.30126-0.0233 0.39684-0.15539 0.08267-0.21424 0.05553-0.24014-0.11036-0.0434-0.2782-0.30164-0.49853-0.47574-0.40592-0.0808 0.04296-0.17489-0.03293-0.23936-0.19306-0.073-0.18158-0.15612-0.23674-0.26623-0.17681-0.25498 0.13877-0.31459 0.32646-0.24417 0.76885 0.0456 0.28627 0.0104 0.45498-0.11457 0.54877-0.24062 0.18074-0.22201 0.52708 0.0213 0.39764 0.12211-0.065 0.20954-0.02445 0.26953 0.12435 0.16493 0.40987 0.89823 0.46036 1.0975 0.0756 0.037-0.0715 0.0605-0.22726 0.0522-0.34618-0.0184-0.26475 0.0669-0.31731 0.38121-0.23479 0.23914 0.06288 0.24059 0.0667 0.12522 0.32738-0.17477 0.39491-1.5129 1.0155-1.7549 0.81381-0.14266-0.11884-0.23636-0.09539-0.54265 0.13636-0.31454 0.23805-0.39748 0.25654-0.55157 0.12294-0.23556-0.20421-0.25067-0.52335-0.0304-0.64056 0.18264-0.09722 0.17627-0.1964-0.0272-0.42361-0.13745-0.15354-0.40408-0.06415-0.3333 0.11164 0.0622 0.15474-0.35841 0.28476-0.47142 0.14568-0.0625-0.07687 0.023-0.17237 0.27301-0.30537l0.36388-0.19357-0.22139-0.68318c-0.12172-0.37578-0.24928-0.6972-0.28335-0.71432-0.0342-0.0171-0.46388 0.17513-0.95507 0.42724-0.49122 0.25207-1.4426 0.71332-2.1142 1.0249-2.6155 1.2136-3.1216 1.4901-3.1145 1.7016 0.0188 0.55908 0.14754 0.96735 0.32895 1.044 0.27148 0.11474 0.32405 0.32533 0.18214 0.72994-0.16432 0.46846-0.53347 0.60531-0.72205 0.26767-0.0759-0.1358-0.20593-0.28475-0.28903-0.33086-0.11015-0.0612-0.12158-0.14507-0.0419-0.31015 0.0789-0.16346 0.062-0.2935-0.0607-0.46818-0.14809-0.21088-0.20552-0.21534-0.44849-0.0349-0.29223 0.21704-0.54472 0.19866-0.86576-0.06302-0.17243-0.1406-0.18334-0.13707-0.11626 0.03731 0.0407 0.10584 0.0211 0.18506-0.044 0.17603-0.0649-0.0099-0.1652-0.13354-0.22283-0.27667-0.13234-0.32885-0.62176-0.3322-0.75832-0.0042-0.0709 0.16997-0.10573 0.18736-0.18393 0.09228-0.053-0.06444-0.21283-0.10782-0.35506-0.09623-0.14223 0.01131-0.28775-0.05158-0.32337-0.14018-0.0356-0.0886-0.11495-0.13425-0.17623-0.1016-0.0613 0.03264-0.80194 0.03081-1.6459-0.0042-0.84396-0.0349-1.6456-0.04677-1.7813-0.02628-0.21073 0.03165-0.22671 0.06246-0.10924 0.21026 0.30443 0.3828 0.0406 1.5144-0.31761 1.363-0.0844-0.0356-0.17677-0.10725-0.20529-0.159-0.0284-0.0517-0.072-0.12874-0.0966-0.17086-0.0247-0.0423-0.20577-0.0954-0.40251-0.11814-0.19674-0.02275-0.44157-0.13566-0.54408-0.25086-0.32219-0.36215-0.38556-0.13679-0.13595 0.48348 0.2267 0.56331 0.22702 0.59517 7e-3 0.63909-0.12769 0.0254-0.28411 0.0729-0.34756 0.10585-0.0791 0.0408-0.19395-0.13566-0.3652-0.56119l-0.24982-0.62081-0.43539 0.09539c-0.45997 0.10076-1.6537 0.88083-1.7771 1.1614-0.0357 0.0811-0.15624 0.16996-0.26784 0.1973-0.11159 0.0273-0.27475 0.0893-0.36253 0.13778-1.0345 0.57142-1.3284 0.77954-1.5615 1.1058-0.14708 0.20582-0.2832 0.33501-0.30251 0.28706-0.0192-0.0479 8e-3 -0.1358 0.0607-0.19535 0.0527-0.0596 0.053-0.12831 7.2e-4 -0.15307-0.0522-0.0246-0.28144 0.13001-0.50923 0.34353-0.32497 0.30473-0.46332 0.38127-0.64234 0.35543-0.42933-0.0619-0.55038 0.0937-0.33577 0.43144 0.23476 0.3696 0.28095 0.39315 0.42847 0.21862 0.0664-0.0786 0.0645-0.19299-4e-3 -0.26986-0.0657-0.0735-0.0738-0.15785-0.0179-0.18758 0.0559-0.0297 0.13829 0.037 0.18307 0.14829 0.0448 0.11136 0.13184 0.19583 0.19346 0.18789 0.15697-0.0202 0.165 0.40105 9e-3 0.48391-0.0704 0.0374-0.15657-3e-3 -0.19162-0.0903-0.0847-0.21035-0.17129-0.15183-0.22489 0.15169-0.04 0.22648-0.0638 0.22555-0.28021-0.0113-0.13007-0.14229-0.33397-0.43948-0.45311-0.66048-0.25026-0.4642-0.40433-0.57604-0.9497-0.6893-0.50663-0.10513-0.72157-0.55026-0.4805-0.99487 0.0891-0.16428 0.13589-0.30971 0.10404-0.32317-0.0318-0.0141-0.30423 0.0345-0.60524 0.10627-0.30101 0.0719-0.81494 0.0848-1.1421 0.029-0.55966-0.096-1.5337-0.63453-1.6443-0.90935-0.0275-0.0685-0.0837-0.10669-0.12457-0.0851-0.10977 0.0584-0.74989-0.87578-0.90099-1.3149-0.46975-1.365-0.20245-2.5468 0.80807-3.5725 0.10885-0.11036 0.20597-0.24301 0.21588-0.29455 0.0104-0.05158 0.30364-0.34897 0.65271-0.66096 0.60052-0.53667 1.1958-0.84956 1.7017-0.89439 0.22333-0.01992 1.1048 0.19876 1.3625 0.33782 0.39873 0.21513 1.1938 0.91777 1.3328 1.1779 0.0814 0.15245 0.15784 0.27195 0.16974 0.26562 0.0117-0.0057 0.10677 0.1739 0.21072 0.40053 0.23619 0.51464 0.37064 1.7135 0.23853 2.1269-0.10755 0.33663 0.0401 0.62327 0.42106 0.81741 0.29356 0.14952 0.28069 0.43681-0.0388 0.86593-0.39576 0.53153-0.62818 1.0054-0.56733 1.1567 0.0292 0.0725 0.0191 0.2967-0.0225 0.49802-0.0416 0.20134-0.0643 0.3942-0.0505 0.42859 0.0331 0.0822 1.2671-0.57875 1.6736-0.89651 0.29263-0.22874 0.3068-0.27634 0.17774-0.59707-0.10301-0.25583-0.0986-0.39234 0.0164-0.51321 0.0861-0.09058 0.13134-0.22764 0.1004-0.3046-0.0807-0.20045 0.14264-0.42347 0.40632-0.40586 0.12379 0.0071 0.30284-0.0667 0.39782-0.16642 0.14072-0.14784 0.16467-0.14414 0.12938 0.02021-0.0238 0.11093 0.0287 0.3652 0.11678 0.56508l0.16008 0.3634 0.81356-0.47136c1.1048-0.6401 1.2319-0.75928 1.2334-1.1568 1e-3 -0.28698-0.0346-0.35815-0.22713-0.4522-0.12561-0.06147-0.31255-0.06684-0.41538-0.01272-0.18222 0.0968-0.18402 0.09327-0.0713-0.14046 0.0926-0.19213 0.0814-0.25864-0.0565-0.33417-0.0947-0.05186-0.15804-0.13834-0.14085-0.19217 0.0173-0.05384-0.0485-0.14151-0.14588-0.19492-0.2967-0.16255-0.65167-0.99206-0.73644-1.7209-0.0986-0.84736-0.0338-1.3861 0.23177-1.9299 0.11496-0.2354 0.2406-0.514 0.27918-0.61917 0.0386-0.10514 0.16585-0.28001 0.28284-0.38861 0.11703-0.10853 0.19843-0.2329 0.18097-0.27625-0.0174-0.04324 0.0848-0.19428 0.22732-0.33539 0.23095-0.22873 0.24341-0.30434 0.11495-0.69747-0.12301-0.37613-0.21629-0.4756-0.63486-0.67673-0.51169-0.24588-1.2341-0.97628-1.4183-1.4339-0.42253-1.0499-0.20847-2.2733 0.5359-3.0628 0.23052-0.2445 0.49457-0.48467 0.5868-0.53372 0.0922-0.04918 0.17408-0.1503 0.18193-0.22494 0.0218-0.20735 0.55014-0.43258 1.0839-0.4618zm-1.9118 2.0905c-3e-3 0.19638 0.0408 0.49079 0.0952 0.6542 0.0826 0.24814 0.13129 0.27486 0.29537 0.16208 0.16457-0.11305 0.21711-0.0838 0.32342 0.18041 0.17049 0.42366 0.35015 0.30875 0.60889-0.38945 0.35472-0.95713 1.0392-1.0551 1.3841-0.19802 0.16537 0.41095-3.9e-4 0.77515-0.47148 1.0359-0.29086 0.16097-0.46388 0.51781-0.36736 0.75767 0.0195 0.04819 0.28624 0.12591 0.59296 0.17272l0.55766 0.08507-0.43657 0.2322c-0.26768 0.14244-0.39819 0.26137-0.33736 0.30758 0.15524 0.118 0.95004-0.35449 1.1019-0.65496 0.182-0.35999 0.0468-1.3813-0.25134-1.8983-0.26295-0.45603-0.94527-1.0619-1.3465-1.1957-0.46608-0.15541-0.92685-0.10471-1.3427 0.14752-0.34163 0.20726-0.40304 0.29817-0.4062 0.60125zm0.44505-0.0472c0.0225 0.59744-0.0287 0.77697-0.2007 0.70431-0.0872-0.03674-0.1073-0.23222-0.0586-0.57112 0.0953-0.6647 0.23658-0.73721 0.25932-0.13326zm8.3171-4.1674c-0.18765 0.51232-0.0894 1.233 0.15071 1.1053 0.10287-0.05469 0.18683 0.01413 0.27029 0.22155 0.14413 0.3582 0.5606 0.87432 0.66196 0.82042 0.0394-0.02105 0.0661-0.19625 0.0592-0.3895-0.0195-0.55238 0.32806-1.6106 0.57153-1.7401 0.3707-0.19718 0.85874 0.14103 1.0498 0.72754 0.07 0.215-0.26639 0.77803-0.55736 0.9328-0.30787 0.16374-0.31309 0.99907-9e-3 1.371 0.17592 0.21485 0.25838 0.22716 0.54318 0.08111 0.18466-0.09468 0.37562-0.15529 0.42436-0.13467 0.16972 0.07179 0.47351-0.53557 0.52182-1.0431 0.067-0.70463-0.34224-1.7572-0.85838-2.2073-0.7084-0.61773-1.5388-0.77015-2.2319-0.40966-0.35021 0.18215-0.46804 0.31343-0.59671 0.66467zm0.17934 0.44927c0.0468 0.11616 0.0474 0.23104 3e-3 0.25538-0.0457 0.0243-0.0999-0.06218-0.12016-0.1924-0.0203-0.13015-0.0212-0.24508-3e-3 -0.25536 0.0194-0.01131 0.0734 0.07617 0.12016 0.19238zm2.4983 2.33 0.29241 0.03406-0.27964 0.11474c-0.15384 0.06302-0.32049 0.0643-0.37043 0.0028-0.11821-0.14568-4e-3 -0.19395 0.3577-0.15153zm-11.309 2.9847c0.11171 0.23589 0.35979 0.55907 0.55132 0.71817 0.23565 0.19576 0.29327 0.21494 0.17825 0.05935-0.0935-0.12647-0.30268-0.49343-0.46485-0.81542-0.3442-0.68337-0.58962-0.6482-0.26472 0.03787zm18.599-9.88c-0.29019 0.47052-0.3357 0.63863-0.26267 0.97036 0.0486 0.22067 0.0448 0.39519-8e-3 0.38782-0.10665-0.0154-0.087 0.48659 0.0248 0.63059 0.0387 0.04988 0.14262 0.21287 0.23089 0.3622 0.25296 0.4279 0.71247 0.87026 0.88981 0.8566 0.096-0.0071 0.17149 0.07376 0.18532 0.19935 0.0153 0.13947 0.12431 0.22897 0.31929 0.26209 0.36455 0.06189 0.41523-0.14783 0.066-0.27307-0.28556-0.10245-0.31307-0.28202-0.0635-0.41475 0.12081-0.06415 0.13796-0.20452 0.0629-0.51401-0.22477-0.92659-0.25876-1.5549-0.10508-1.9425 0.1415-0.35695 0.1905-0.39885 0.4801-0.41059 0.52532-0.0212 0.74947 0.10061 0.90276 0.49103 0.10911 0.27797 0.10132 0.42159-0.0335 0.61784-0.0966 0.1406-0.1331 0.23711-0.0809 0.21438 0.0521-0.02275-0.0269 0.09242-0.17572 0.25586-0.26445 0.29048-0.2654 0.31066-0.0421 0.89532 0.12561 0.32899 0.22124 0.66726 0.21235 0.75173-9e-3 0.0845 0.0191 0.14032 0.0621 0.12393 0.93889-0.35598 1.1704-0.58958 1.3327-1.3444 0.38119-1.7734-1.0962-3.3828-2.7789-3.0274-0.57678 0.12181-0.86658 0.33775-1.218 0.90763zm0.19827 1.8805c0.15333 0.27087 0.42773 0.60717 0.60979 0.74737 0.39558 0.30458 0.38792 0.5189-0.0104 0.27725-0.29779-0.18091-0.6982-0.79586-0.81055-1.2449-0.0443-0.17694 0.0295-0.09977 0.21067 0.2203zm-10.165 4.0292c0.24785 0.4413 1.0597 1.2239 1.1092 1.0691 0.013-0.03914-0.13652-0.20343-0.33114-0.36511s-0.47043-0.51194-0.6129-0.77837c-0.14247-0.26643-0.29714-0.46415-0.34369-0.43938-0.0485 0.02572 0.0281 0.24573 0.17856 0.51374zm12.246-5.0715c0.0731 0.10203 0.14881 0.17713 0.16817 0.16685 0.0194-0.01131-3e-3 -0.11361-0.0498-0.22983-0.0468-0.11616-0.12237-0.19121-0.16817-0.16686-0.0457 0.0243-0.0234 0.12774 0.0498 0.22984zm-2.1144 2.445c0.51309 0.53055 0.54868 0.47274 0.0649-0.10542-0.21425-0.25607-0.4453-0.58013-0.51344-0.72008-0.10508-0.2159-0.10963-0.20274-0.0299 0.08691 0.0517 0.18772 0.26699 0.52014 0.47838 0.73873zm-27.614 14.824c-0.0231 0.17928-0.013 0.50553 0.0223 0.725 0.043 0.26733-0.0139 0.54282-0.17262 0.8348-0.29643 0.54538-0.2078 0.78151 0.30688 0.81746 0.22078 0.0154 0.43272 0.10584 0.47099 0.20092 0.0383 0.09496 0.2061 0.25279 0.37296 0.35045l0.30337 0.17759-0.10897 0.45953c-0.13218 0.55733 0.0566 0.72456 0.35997 0.3188 0.16841-0.22528 0.21974-0.2393 0.41011-0.11206 0.11963 0.08 0.27286 0.11602 0.3404 0.0801 0.0676-0.0359 0.30572 4e-3 0.52926 0.0886 0.56008 0.21198 0.71593 0.17927 0.99739-0.20928 0.29714-0.41018 0.18383-0.54124-0.20608-0.23838-0.21899 0.17011-0.35268 0.19413-0.56984 0.10245-0.32893-0.13891-0.41257-0.295-0.35003-0.65325 0.0426-0.24359 0.0726-0.25083 0.57439-0.13778 0.90488 0.20393 1.0861-0.07645 0.68848-1.0645-0.30947-0.76897-0.55694-0.9341-0.68612-0.45781-0.0798 0.29396-0.0876 0.2913-0.47776-0.16282-0.55253-0.64295-0.59078-0.73654-0.36853-0.902 0.10612-0.07899 0.17178-0.19639 0.14582-0.26089-0.0712-0.17675-1.2387-0.58572-1.5059-0.52744-0.33634 0.07334-0.37346 0.20184-0.22594 0.78186 0.14275 0.56123 0.0104 0.7009-0.30805 0.32552-0.1342-0.15813-0.18636-0.34212-0.17896-0.63122 9e-3 -0.38208-1.3e-4 -0.40244-0.1556-0.31976-0.0913 0.04847-0.1849 0.23499-0.20794 0.41427zm0.40636 0.8134c0.0955 0.1358 0.30202 0.30129 0.4591 0.36764 0.27538 0.1163 0.2816 0.12888 0.17362 0.35292-0.0616 0.12775-0.20738 0.28303-0.32399 0.34505-0.17245 0.09171-0.23485 0.05582-0.33455-0.1918-0.0674-0.1675-0.12821-0.4882-0.13511-0.71269l-0.013-0.40812zm-0.37788 1.0071c0.15124 0.06387 0.16095 0.20993 0.019 0.28545-0.0757 0.04027-0.1557 0.02855-0.17769-0.026-0.0535-0.13312 0.0514-0.3047 0.15874-0.25938zm1.5823-0.56748c-7e-3 0.06034 0.22926 0.08549 0.52356 0.05554 0.49451-0.05017 0.52987-0.0349 0.46565 0.20185-0.0382 0.14089-0.0326 0.34808 0.013 0.46038 0.0452 0.1122 9e-3 0.30019-0.0812 0.41756-0.14424 0.18841-0.15146 0.34893-0.0501 1.1143 0.0177 0.1334-0.0831 0.12676-0.39176-0.026-0.48648-0.24074-0.5369-0.41634-0.1973-0.68707 0.22516-0.17952 0.23413-0.25343 0.0663-0.54659-0.0935-0.16343-0.32555 0.02911-0.43037 0.35705-0.13445 0.42071-0.20472 0.43414-0.49677 0.09482-0.35694-0.41456-0.35566-0.4357 0.0375-0.61273 0.48668-0.21906 0.57878-0.29299 0.5266-0.42268-0.0248-0.06147-0.0742-0.06119-0.10976 8.2e-4 -0.0365 0.06331-0.0695 0.0325-0.0755-0.07051-5e-3 -0.1009 0.0395-0.24258 0.10067-0.31505 0.0613-0.07235 0.10612-0.08224 0.0998-0.0219zm-0.0148 2.2079c-8e-3 0.0745-0.0556 0.15772-0.10612 0.18457-0.0505 0.0268-0.0853-0.0127-0.0776-0.0869 8e-3 -0.0746 0.0556-0.15772 0.10612-0.18457 0.0505-0.02685 0.0853 0.01272 0.0776 0.08691zm8.7902-7.362c-0.1125 0.17148-0.0868 0.32008 0.16223 0.9389 0.16273 0.40436 0.33145 0.71626 0.37496 0.69313 0.0977-0.05186 0.22591 0.49846 0.14783 0.6343-0.11768 0.20479-0.75765 0.30494-0.82771 0.12944-0.0887-0.22203-0.13998-1.4688-0.0798-1.9376 0.0571-0.44393 0.036-0.50498-0.11302-0.32859-0.12431 0.14722-0.18857 1.0431-0.092 1.2832 0.032 0.07928-0.0308 0.35972-0.13937 0.62316-0.23114 0.56084-0.1828 0.75125 0.22621 0.89102 0.1644 0.05624 0.53619 0.33515 0.82623 0.61995 0.49587 0.4869 0.52285 0.53431 0.45221 0.79478-0.1073 0.39566-0.0104 0.56201 0.20909 0.35999 0.17867-0.16422 1.5165-0.17333 1.982-0.01413 0.24359 0.08366 0.49425-0.03024 0.51568-0.23411 9e-3 -0.08069 0.11456-0.16834 0.23567-0.19476 0.23939-0.05214 0.47002-0.35726 0.31848-0.42128-0.0514-0.02176-0.13245 0.05384-0.1798 0.16844-0.0712 0.17178-0.0982 0.17816-0.15514 0.0366-0.0533-0.13227-0.16186-0.12181-0.47794 0.04635-0.39852 0.21195-0.41467 0.20845-0.62858-0.13693-0.19201-0.31-0.20035-0.40298-0.0665-0.74112 0.0966-0.24412 0.21889-0.38912 0.33161-0.39327 0.42791-0.01583 1.1606-0.31382 1.1784-0.47921 0.013-0.1163-0.10365-0.12916-0.38669-0.04282-0.56319 0.17181-0.68815 0.10655-0.88357-0.4609-0.0927-0.26928-0.20208-0.4718-0.24301-0.45002-0.0409 0.02176-0.149-0.07928-0.24016-0.22467-0.19573-0.31209-0.11691-0.73875 0.16398-0.88817 0.17311-0.09213 0.15473-0.11559-0.20797-0.2661-0.21882-0.09086-0.51361-0.21947-0.65509-0.28587-0.14149-0.06642-0.54763-0.07857-0.90254-0.02685s-0.66037 0.09595-0.67877 0.09821c-0.0184 0.0014-0.0937 0.09595-0.1671 0.20801zm1.3663 1.663c-0.054 0.06571-0.13471 0.10415-0.17935 0.08535-0.0447-0.01879-3.8e-4 -0.07263 0.0982-0.11955 0.10898-0.05186 0.14082-0.03829 0.0812 0.03434zm0.21148 0.16194c0.10989-0.03151 0.29601-0.02416 0.41352 0.01639 0.14567 0.05017 0.21858 0.02699 0.22909-0.0732 9e-3 -0.08069 0.0695-0.13919 0.13564-0.13015 0.0804 0.01131 0.10249 0.07235 0.0666 0.18454-0.0295 0.09228 9e-3 0.32461 0.0865 0.51618 0.13792 0.34274 0.0833 0.45246-0.29278 0.58819-0.11977 0.04324-0.0379 0.3674 0.2759 1.0932 0.0805 0.18622 0.1034 0.36147 0.0509 0.38944-0.16892 0.08973-1.0704-0.21424-1.1387-0.38414-0.0925-0.22976 0.0957-0.59002 0.39356-0.75324 0.31461-0.17244 0.28836-0.23774-0.16349-0.40647-0.33478-0.12506-0.35725-0.11884-0.31332 0.08465 0.0517 0.23969-0.0821 0.60447-0.25858 0.70475-0.0939 0.05342-0.77047-0.45468-0.84194-0.63228-0.013-0.03137 0.20432-0.17787 0.48208-0.32558 0.30798-0.16384 0.48664-0.31418 0.45797-0.38544-0.0258-0.06415 0.0229-0.12223 0.10834-0.12873 0.0855-0.0057 0.14493-0.07702 0.13215-0.15636-0.013-0.07942 0.0666-0.1702 0.17661-0.20174zm3.0987-3.1762c0.17117 0.32591 0.48744 0.38526 0.90254 0.16938 0.19012-0.09892 0.33895-0.19644 0.33077-0.2168-8e-3 -0.02035-0.11846-0.16018-0.24513-0.31067-0.24684-0.29338-0.42128-0.30274-0.84567-0.04536-0.2275 0.13792-0.2494 0.19998-0.14251 0.40349zm8.4432-4.1332c-0.11093 0.22395-0.16849 0.58479-0.13943 0.8751 0.0272 0.27168-1e-3 0.52087-0.0629 0.55373-0.35545 0.18906 0.34563 1.5292 1.0608 2.0278 0.52608 0.36676 0.7292 0.65591 0.6084 0.8661-0.0366 0.06373-0.0203 0.15108 0.0364 0.19413 0.0701 0.05327 0.10794 0.03095 0.1186-0.06995 0.0104-0.1009 0.11067-0.12845 0.31355-0.08634 0.46696 0.09666 1.0288 0.10273 1.3753 0.0154 0.17455-0.04437 0.44174-0.05935 0.59376-0.03363 0.21064 0.03575 0.31381-0.0057 0.43365-0.17298 0.0865-0.1211 0.28714-0.32301 0.4459-0.44902 0.38084-0.30219 0.67963-0.97201 0.64009-1.4349-0.0192-0.2248-0.0662-0.3534-0.11873-0.3254-0.0479 0.02544-0.0594 0.11517-0.0255 0.19925 0.0705 0.17534-0.21695 0.80919-0.59129 1.3035-0.22193 0.29307-0.27972 0.32609-0.4398 0.25127-0.10132-0.04748-0.22898-0.03321-0.28359 0.03123-0.0547 0.06458-0.15238 0.05808-0.2173-0.01413-0.17865-0.19957-0.21488-0.34008-0.083-0.32175 0.0649 0.0099 0.0871-0.06034 0.0492-0.1544-0.0378-0.09397-0.0982-0.11955-0.1343-0.05667-0.12327 0.21441-0.21282-0.27061-0.12339-0.66826l0.0892-0.39692 0.65596-0.03731c0.78612-0.04466 1.2016-0.28168 1.1117-0.63405-0.0642-0.25124-0.32583-0.22057-0.35338 0.0414-0.0208 0.19713-0.31105 0.32271-0.73303 0.31688-0.36516-0.0042-0.37113-0.01131-0.65562-0.73513-0.30993-0.78825-0.29375-1.1627 0.0687-1.5905l0.18221-0.21503-0.46547-0.21185c-0.25602-0.11658-0.7694-0.21916-1.1408-0.22808-0.5951-0.01413-0.75568 0.03109-1.3512 0.38182-0.52145 0.30712-0.71898 0.48511-0.86471 0.77916zm0.3101 1.0281c0.0546 0.0414 0.23802 0.0014 0.40767-0.08874 0.636-0.33827 0.90109-0.12577 0.6689 0.53622-0.10703 0.30525-0.19953 0.39129-0.57479 0.53476-0.61656 0.23576-0.7178 0.16606-0.69622-0.4792 0.0191-0.5719 0.0383-0.62167 0.19444-0.50311zm2.7569-1.0126c-0.0591 0.18505-0.1402 0.24311-0.36466 0.26121-0.40907 0.03293-0.3928-0.05568 0.0538-0.29335 0.34854-0.18536 0.3794-0.18218 0.3109 0.03222zm-0.99733 1.23c-8e-3 0.07475 0.0644 0.09397 0.16056 0.04282 0.20523-0.10923 0.60547 0.0602 0.70056 0.29657 0.0365 0.09086 0.13565 0.1598 0.22024 0.15321 0.26534-0.02049 0.2481 0.43197-0.0252 0.66141-0.13814 0.11602-0.30703 0.20305-0.37534 0.19358-0.0737-0.01131-0.0765 0.01908-6e-3 0.07179 0.0644 0.04889 0.24366 0.36622 0.39825 0.70503 0.27271 0.59765 0.27419 0.61969 0.0499 0.73899-0.25527 0.1358-1.2413 0.03024-1.3035-0.13962-0.052-0.14199 0.35864-1.0237 0.5156-1.1072 0.16489-0.08775 0.12353-0.16061-0.19752-0.34857-0.20324-0.11898-0.28417-0.11418-0.32675 0.01908-0.0312 0.0975-0.0351 0.23062-9e-3 0.29596 0.0264 0.06543-0.0104 0.28339-0.0804 0.4845-0.15631 0.44568-0.31761 0.42487-0.87511-0.11291-0.47327-0.45649-0.57938-0.69021-0.32999-0.72688 0.10132-0.0154 0.39882-0.08973 0.66116-0.16655 0.45336-0.13255 0.47795-0.15667 0.49645-0.48649 0.0143-0.25433 0.0403-0.2982 0.0974-0.16425 0.0429 0.10061 0.12419 0.15824 0.18055 0.12831 0.0599-0.03194 0.0401-0.15465-0.0475-0.29506-0.10314-0.16528-0.10924-0.26227-0.0196-0.30992 0.0717-0.03815 0.12392-0.0071 0.11613 0.06642zm-8.6432 2.4826c0.0353 0.0879 0.14533 0.11489 0.24736 0.06062 0.18291-0.09736 0.19356-0.23951 0.0234-0.31141-0.16358-0.0691-0.33533 0.09002-0.27066 0.25074zm0.53468 0.22066c0.0887 0.22038 0.32008 0.2207 0.34537 4.24e-4 0.0335-0.29213-0.0236-0.35629-0.22294-0.25025-0.10106 0.0537-0.15608 0.16611-0.1225 0.24977zm11.297-5.168c0.0234 0.05808 0.0838 0.08366 0.1343 0.05667 0.0505-0.02685 0.0727-0.09638 0.0494-0.1544-0.0234-0.05808-0.0838-0.08366-0.13431-0.05667-0.0505 0.02685-0.0728 0.09638-0.0494 0.1544zm-5.7854 3.5897c0.0403 0.09977 0.0614 0.06486 0.0577-0.09468-4e-3 -0.13919-0.0347-0.32434-0.0697-0.41143-0.0401-0.09977-0.0614-0.06486-0.0577 0.09468 4e-3 0.13919 0.0347 0.32434 0.0697 0.41143zm-6.8518 3.9967c9e-3 0.09539 0.10392 0.105 0.25256 0.02586 0.15012-0.07984 0.26069-0.06769 0.30121 0.03293 0.053 0.1317 0.16674 0.09242 0.66068-0.22801 0.7058-0.45788 1.5743-0.75863 1.6143-0.55904 0.0156 0.07772 0.12795 0.08479 0.25725 0.01597 0.25152-0.13382 0.22462-0.3307-0.0709-0.51897-0.14029-0.08931-0.46489-0.01865-1.2554 0.27356-1.2599 0.46573-1.7808 0.74919-1.7597 0.95768zm11.89-5.0106c0.0234 0.05808 0.0862 0.08224 0.13973 0.05384 0.0535-0.02855 0.0526-0.08563-3e-3 -0.12704-0.0546-0.0414-0.11742-0.06571-0.13972-0.05398-0.0222 0.01272-0.0213 0.06896 3e-3 0.12704zm1.6063-0.32097c-5e-3 0.22597 4e-3 0.41469 0.0213 0.41938 0.0174 0.0042 0.21982-0.05384 0.44966-0.13029 0.47737-0.15862 0.48352-0.34326 0.0213-0.63965-0.35477-0.22748-0.47968-0.13863-0.4922 0.35058zm-25.542 13.612c-0.017 0.0533 4e-3 0.11121 0.0451 0.12887 0.10612 0.0448 0.7431-0.58202 0.7001-0.68889-0.0377-0.0938-0.69374 0.39915-0.74515 0.56zm11.215-5.455c-0.10132 0.21962-0.28651 0.55028-0.41152 0.73476-0.2536 0.37421-0.23765 0.59062 0.0329 0.44671 0.0976-0.05186 0.23641-0.02035 0.30846 0.07037 0.12419 0.15622 0.80888 0.23314 1.3198 0.14831 0.22641-0.03759 0.22516-0.06373-0.0335-0.70651-0.25902-0.64362-0.2606-0.67797-0.0443-0.96109 0.17392-0.22762 0.43227-0.37926 1.1497-0.6748l0.92534-0.38123 0.34099 0.76516c0.29734 0.66722 0.32803 0.80997 0.23981 1.1151-0.0614 0.21248-0.22691 0.4321-0.42119 0.55901l-0.32 0.20903 0.37485 0.02883c0.28367 0.02176 0.40766-0.0212 0.50961-0.1767 0.0742-0.11305 0.19035-0.21982 0.2583-0.23738 0.0679-0.01752 0.1277-0.19227 0.13265-0.38817 0.013-0.50194 0.22316-0.77142 0.7591-0.97249l0.45871-0.17208-0.12185-0.47902c-0.14865-0.58445 0.0659-1.0152 0.66144-1.3278 0.51932-0.27265 2.0902-0.79955 2.2197-0.74457 0.0551 0.02346 0.0503 0.16774-0.0104 0.32071-0.18636 0.46693-0.16805 0.87055 0.0622 1.3722 0.14317 0.31186 0.18044 0.48976 0.10677 0.50946-0.25578 0.06839-1.833 0.68653-2.0675 0.81028-0.18563 0.09793-0.23182 0.18573-0.17371 0.3301 0.0696 0.17294 0.18472 0.15014 0.95479-0.18961 0.48162-0.21246 1.6642-0.79506 2.6281-1.2947l1.7524-0.90843-0.13285-0.49545c-0.0731-0.2725-0.1349-0.59481-0.13735-0.71625-3e-3 -0.15732-0.0604-0.21215-0.19898-0.19069-0.41747 0.06472-0.9894 0.0042-1.3515-0.14152-0.35208-0.14229-0.48058-0.11404-1.797 0.39434-0.77981 0.30113-1.7317 0.70236-2.1154 0.89159-1.0032 0.49477-1.8957 0.821-2.3322 0.85257-0.20852 0.0154-0.79176 0.18219-1.2961 0.3714-0.50433 0.18919-0.94411 0.33252-0.97725 0.31852-0.0331-0.01413-0.28704 0.0951-0.56418 0.24277-0.38736 0.20603-0.54662 0.36047-0.68821 0.66743zm0.77602 0.56827c0.12119 0.09213-0.0794 0.35359-0.2527 0.32952-0.0681-0.0099-0.1417-0.06189-0.1637-0.11658-0.0535-0.13312 0.29012-0.30893 0.4164-0.21298zm8.3038-3.9481c-0.0513 0.06288-0.15464 0.11785-0.22955 0.12209-0.075 0.0042-0.0329-0.04706 0.0934-0.11432 0.12627-0.06712 0.18753-0.07065 0.13619-0.0071zm-19.67 9.5931c-0.0629 0.11235-0.0104 0.13326 0.1906 0.0756 0.30767-0.0882 0.49626-0.26408 0.43812-0.40857-0.0481-0.11955-0.51311 0.12676-0.62873 0.33289zm7.3004-3.4832c-0.0933 0.0496 4e-3 0.11474 0.26373 0.17586 0.44191 0.10429 0.57024 0.0195 0.44443-0.29309-0.0857-0.21296-0.28992-0.24475-0.45571-0.07094-0.0574 0.0602-0.17102 0.14491-0.25245 0.1882zm0.82167-0.11206c0.0612 0.15214 0.54415 0.4109 0.65589 0.35147 0.17085-0.09086 0.0556-0.34819-0.20525-0.45836-0.20043-0.08465-0.49921-0.01413-0.45064 0.10683zm15.294-7.5622c-0.097 0.12421-0.0994 0.16542-8e-3 0.12082 0.077-0.03717 0.18352-0.14644 0.23661-0.24303 0.11768-0.21396-0.0273-0.13693-0.22954 0.12209zm-10.279 7.023c0.0381 0.25166 0.0943 0.31309 0.28581 0.31182 0.27016-0.0014 0.36157-0.18769 0.29668-0.60334-0.0278-0.178-0.0929-0.24766-0.21005-0.22486-0.3183 0.06189-0.41984 0.20268-0.37244 0.51638zm10.126-5.5336c-0.13856 0.07475-0.23281 0.18324-0.20944 0.2413 0.0464 0.11531 0.59802-0.14291 0.78965-0.36961 0.18512-0.21902 0.0568-0.37665-0.14731-0.18095-0.0995 0.09553-0.29434 0.23462-0.4329 0.30929zm-6.997 3.993c0.1121 0.08521 0.36549-0.04338 0.31805-0.16125-0.0598-0.1486-0.19069-0.16201-0.30142-0.03095-0.0581 0.06868-0.0655 0.15513-0.0166 0.19224zm9.2462-4.1517c0.0565 0.14032 0.0756 0.31262 0.0426 0.38295-0.033 0.07037 0.0624 0.02685 0.2119-0.09666 0.21028-0.17364 0.28654-0.18821 0.33641-0.0643 0.0761 0.18926 0.30614 0.18726 0.66904-0.0057 0.30855-0.16412 0.3802-0.44736 0.0985-0.38924-0.10703 0.02204-0.27605-0.04268-0.3757-0.14398-0.10118-0.10287-0.28874-0.14583-0.42493-0.09736-0.13406 0.04776-0.30127 0.06387-0.37154 0.03589-0.2059-0.0821-0.29706 0.10316-0.18627 0.3785zm-9.5136 5.3057c0.0234 0.05808 0.0838 0.08366 0.1343 0.05681s0.0727-0.09637 0.0494-0.1544c-0.0234-0.05808-0.0838-0.08366-0.13431-0.05681-0.0505 0.02685-0.0727 0.09637-0.0494 0.15438zm7.5257-3.8746c0.0547 0.0414 0.15876 0.04366 0.23155 0.0042 0.0727-0.03872 0.15141-0.02289 0.17477 0.03505 0.0234 0.05808-0.0226 0.14018-0.1021 0.18243-0.12132 0.06458-0.0886 0.20161 0.20378 0.85262 0.20271 0.45143 0.38864 0.75436 0.44477 0.72459 0.0959-0.05101-0.0922-1.1849-0.26983-1.6262-0.084-0.20901-0.046-0.25617 0.39792-0.49229 0.35969-0.19129 0.57053-0.23468 0.78859-0.16231 0.34806 0.11545 0.38025 0.08012 0.18053-0.19856-0.1303-0.18181-0.20708-0.17258-0.68689 0.08253-0.29893 0.15899-0.55918 0.24016-0.58268 0.18177-0.0234-0.05808-0.23085-0.0057-0.46108 0.11701-0.25569 0.13594-0.37999 0.25199-0.31938 0.29802zm-7.6761 4.4584c-8e-3 0.06938 0.0408 0.13382 0.10665 0.14306 0.066 0.0099 0.0902-0.05737 0.0538-0.14784-0.0746-0.1854-0.1407-0.18339-0.16049 0.0042zm8.973-4.4213c0.0534 0.13255 0.48731 0.29554 0.61129 0.2296 0.17787-0.09454 0.0365-0.36793-0.2037-0.394-0.23504-0.02558-0.44924 0.06076-0.40759 0.16439zm-20.39 8.1956c0.0546 0.0414 0.0555 0.0988 3e-3 0.12704-0.0535 0.0285-0.11638 4e-3 -0.13972-0.0538-0.0234-0.0581-0.0243-0.11517-3e-3 -0.12704 0.0223-0.0127 0.0852 0.0127 0.13972 0.0537zm-2.8769 1.9056c-0.0218 0.2003-0.0777 0.25929-0.23525 0.24875-0.31473-0.0211-0.3208-0.20032-0.013-0.3644 0.24989-0.13297 0.27351-0.12181 0.24755 0.11559zm3.7992-1.6914c0.0634 0.15735 0.0604 0.26927-8e-3 0.25994-0.0649-0.01-0.1445-0.0821-0.17678-0.16228-0.0322-0.0803-0.0292-0.19721 7e-3 -0.25996 0.0373-0.065 0.1134 4e-3 0.17678 0.1623zm25.38-13.214c0.0535 0.02261 0.29467-0.05327 0.53597-0.16858 0.37549-0.17944 1.4213-0.59656 2.708-1.08 0.1864-0.07009 0.49824-0.20798 0.69298-0.30655 0.28723-0.14537 0.36149-0.14075 0.39328 0.02416 0.0216 0.11178-0.0281 0.21578-0.11028 0.23089-0.0822 0.0154-0.28002 0.07716-0.43949 0.13792-0.1595 0.06062-0.66101 0.24797-1.1145 0.41606-0.45347 0.16812-0.95438 0.35687-1.1131 0.4195-0.15872 0.06274-0.36186 0.1187-0.45142 0.12478-0.0895 0.0057-0.28576 0.07927-0.43598 0.1631-0.46342 0.25823-1.3915 0.55866-1.4301 0.46288-0.0442-0.1098 0.6272-0.48217 0.76466-0.42412zm-17.411 9.9162c0.12223 0.09284 0.2472 0.71431 0.16269 0.80925-0.0397 0.0447-0.0452 0.14844-0.0116 0.23069 0.0331 0.0822 0.0232 0.16916-0.0218 0.19314-0.12106 0.0643-0.32035-0.19354-0.24746-0.32035 0.0344-0.0601-3e-3 -0.27256-0.0835-0.47234-0.13888-0.34511-0.0183-0.60784 0.20213-0.4404zm-10.872 6.0588c0.0234 0.0581 1e-3 0.12746-0.0494 0.15439-0.0505 0.0268-0.11093 1e-3 -0.1343-0.0568-0.0234-0.0581-1e-3 -0.12746 0.0494-0.15439 0.0505-0.0268 0.11093-1e-3 0.13429 0.0568zm7.4969-3.5306c1.5009-0.49655 1.7309-0.54631 1.7945-0.38827 0.0948 0.23573-0.53279 0.72267-0.80549 0.62492-0.12003-0.0431-0.26159-0.0553-0.31455-0.027-0.053 0.0281-0.17156 0.0113-0.26354-0.0404-0.1112-0.0609-0.31511-3e-3 -0.60852 0.17529-0.2571 0.15552-0.47617 0.22706-0.52491 0.17143-0.046-0.0526-0.17853 0.18295-0.29449 0.52324-0.11599 0.34028-0.22267 0.5893-0.23713 0.55335-0.0338-0.0841 0.31116-1.2968 0.372-1.3077 0.0252-4e-3 0.42222-0.13269 0.88212-0.28486zm17.754-8.7462c0.0583 0.14507 0.0614 0.2156 8e-3 0.15659-0.0547-0.05893-0.10249-0.17778-0.10612-0.26391-4e-3 -0.08606 0.0411-0.03787 0.0994 0.1074zm-15.181 7.9369c0.0505 0.12548-0.31576 0.95357-0.40511 0.91582-0.037-0.0157-0.0275-0.0978 0.0211-0.18233 0.0487-0.0846 0.041-0.18992-0.0169-0.23393-0.0579-0.0441-0.0443-0.17303 0.0303-0.28671 0.16754-0.25543 0.31862-0.34219 0.37067-0.21285zm0.59646-0.17981c0.0531 0.13227-0.0442 0.18406-0.27546 0.14644-0.14467-0.0235-0.1395-0.0503 0.027-0.1406 0.11327-0.0613 0.22506-0.064 0.24842-6e-3zm-2.6203 1.5218c-8e-3 0.1449-7e-5 0.26075 0.0161 0.25752 0.0162-3e-3 0.12236-0.0243 0.2359-0.0468 0.11352-0.0226 0.41192-0.12237 0.66309-0.22198 0.50272-0.19925 0.49522-0.20181 0.48465 0.16557-4e-3 0.14213-0.0104 0.37486-0.0149 0.51705-0.0104 0.34529-8e-3 0.34789 0.21563 0.2176 0.2293-0.13396 0.42989 0.0488 0.26613 0.24256-0.15868 0.18773-0.73533-0.0588-0.61741-0.26408 0.12912-0.22463-0.2832-0.58684-0.63567-0.55844-0.22969 0.0185-0.29388 0.0716-0.33277 0.27569-0.0584 0.30653-0.032 0.39662 0.12276 0.41811 0.33058 0.0459 0.1847 0.52667-0.26512 0.87377-0.13881 0.10712-0.21168 0.14983-0.16191 0.095 0.0617-0.0681 1.5e-4 -0.27448-0.19399-0.65009-0.27237-0.52692-0.27685-0.57046-0.10535-1.0258 0.20723-0.55018 0.34192-0.67353 0.32281-0.29563zm3.7924-1.8464c8e-3 0.12492 0.0227 0.24678 0.0325 0.27108 0.0104 0.0243-0.1047 0.10937-0.25447 0.18893-0.184 0.0978-0.27682 0.2359-0.28643 0.42597-0.0116 0.22464-0.0422 0.26038-0.15361 0.1778-0.22238-0.16493-0.25245-0.33657-0.0724-0.41311 0.10457-0.0445 0.13414-0.13708 0.0795-0.24875-0.0648-0.13241-0.0179-0.21477 0.18357-0.32191 0.19212-0.10203 0.26608-0.095 0.25483 0.0246-9e-3 0.0981 0.0296 0.064 0.093-0.0814 0.0992-0.22811 0.11016-0.23016 0.12354-0.0232zm-4.4648 2.3916c0.0374 0.0928 7e-3 0.23377-0.069 0.31324-0.0753 0.0794-0.20219 0.23164-0.28195 0.33815-0.0798 0.1064-0.33287 0.30951-0.56247 0.45116-0.25452 0.15704-0.46068 0.3745-0.52822 0.55715-0.0869 0.23489-0.12418 0.26634-0.17273 0.14568-0.034-0.0846 0.0144-0.36933 0.10769-0.63254 0.14215-0.40087 0.25038-0.52513 0.66683-0.76564 0.27344-0.15793 0.55897-0.3521 0.63452-0.43152 0.0918-0.0965 0.15988-0.0886 0.20529 0.0243zm9.0446-4.2934c5e-3 0.10259 0.0511 0.16511 0.0998 0.13919 0.049-0.026 0.0697-0.09482 0.0465-0.15291-0.0234-0.05808 0.0738-0.15951 0.21581-0.22548 0.22146-0.10287 0.23149-0.09765 0.07 0.03575-0.10353 0.08564-0.17262 0.19428-0.1536 0.24152 0.049 0.12167-0.37004 0.44787-0.47384 0.36901-0.0473-0.03589-0.18922-0.01131-0.31547 0.05681-0.12627 0.06712-0.22334 0.06302-0.21574-0.0099 8e-3 -0.07221 0.14747-0.16824 0.31084-0.21339 0.18837-0.052 0.27958-0.12548 0.24927-0.20084-0.0263-0.06529-3e-3 -0.14306 0.0538-0.17281 0.0559-0.02967 0.10651 0.02982 0.11249 0.13241zm-12.613 6.7319c-0.054 0.0657-0.13471 0.10415-0.17934 0.0854-0.0447-0.0188-3.9e-4 -0.0726 0.0982-0.11955 0.10899-0.0519 0.14082-0.0383 0.0812 0.0342zm9.2716-4.6777c-0.0513 0.0629-0.15464 0.11786-0.22955 0.1221-0.075 4e-3 -0.0329-0.0472 0.0934-0.11432 0.12626-0.0671 0.18754-0.0707 0.13619-7e-3zm-9.6865 5.2659c0.0117 0.1966-0.13036 0.32483-0.19143 0.17307-0.0208-0.0519 0.0117-0.1526 0.0714-0.22372 0.0731-0.0866 0.11287-0.0698 0.11989 0.0507zm12.758-6.1514c0.10379 0.25803 0.10716 0.39155 0.0104 0.44271-0.0961 0.0512-0.18257-0.0382-0.28641-0.2962-0.10392-0.25803-0.10716-0.39154-0.0104-0.4427 0.0961-0.05115 0.18257 0.03815 0.28641 0.29619zm0.20786 0.51649c0.0403 0.10005-0.21426 0.29678-0.29992 0.23171-0.0522-0.0396-9e-3 -0.11729 0.0942-0.17263 0.10391-0.0553 0.1966-0.0818 0.20574-0.0591zm3.4518-1.1174c0.0568 0.14103 0.0238 0.24368-0.0995 0.3092-0.16143 0.08592-0.18071 0.06415-0.15469-0.17402 0.0164-0.14968 0.0612-0.28881 0.0995-0.3092 0.0384-0.02021 0.10793 0.05794 0.15469 0.17402zm-13.593 7.5572c0.0742 0.1503 0.0786 0.2525 0.0104 0.24306-0.13826-0.0192-0.31479-0.40872-0.2104-0.46424 0.0395-0.0211 0.12938 0.0786 0.19973 0.22118zm17.379-8.3271c0.12327-0.03504 0.32767 0.0057 0.45419 0.08987 0.29829 0.19928 0.55533 0.82071 0.37841 0.91481-0.0716 0.03801-0.16173 0.04282-0.20044 0.01131-0.0387-0.03236-0.0339-0.0057 0.0104 0.05836 0.0446 0.0643 0.0365 0.14075-0.0181 0.16978-0.0629 0.03349-0.0213 0.18748 0.11327 0.42033 0.11679 0.20217 0.16578 0.32029 0.10873 0.26251-0.057-0.0578-0.19659-0.0555-0.31017 4e-3 -0.19415 0.1033-0.19004 0.14322 0.069 0.66813 0.22292 0.45169 0.24894 0.57241 0.13625 0.63234-0.16072 0.0855-0.3811-0.12364-0.42321-0.40164-0.10119-0.66817-0.15661-0.82798-0.26801-0.77258-0.0648 0.0324-0.22378 0.0322-0.35323-3.4e-4 -0.18462-0.0462-0.22513-0.10316-0.18798-0.26415 0.026-0.11291-9e-3 -0.26874-0.0791-0.34643-0.0699-0.07814-0.0809-0.16542-0.0248-0.19529 0.0559-0.02967 0.0721-0.12746 0.036-0.2172-0.0709-0.17614 0.126-0.9054 0.25539-0.94551 0.0434-0.01413 0.17968-0.05313 0.30297-0.08832zm-0.14425 1.332c0.0642 0.07164 0.20269 0.08436 0.30794 0.02854 0.18798-0.09991 0.1871-0.10287-0.0491-0.16198-0.3113-0.07786-0.40475-0.02953-0.25871 0.13354zm2.1567-1.0144c0.0637 0.24554 0.12015 0.46192 0.12547 0.48088 5e-3 0.01894-0.0367 0.02798-0.0937 0.02007-0.16694-0.02332-0.3229-0.52458-0.23165-0.74471 0.0726-0.17523 0.0998-0.14229 0.19983 0.24373zm-0.22427 0.73008c0.0104 0.02727 0.0253 0.2406 0.032 0.47424 0.0104 0.3666-8e-3 0.40243-0.13543 0.26154-0.1564-0.17308-0.16044-0.52124-8e-3 -0.68621 0.0504-0.05455 0.10053-0.07673 0.11144-0.0496zm-2.4281 2.1447c0.13615 0.10344 0.11093 0.24883-0.0464 0.26739-0.0644 7e-3 -0.10145-0.0632-0.0899-0.17146 0.0147-0.13679 0.0499-0.1615 0.13618-0.096z" stroke-width=".10847"/>
    </g>
    <path d="m142.38 95.364c0.14824 0.19367 0.15035 0.19248 0.0564-0.032-0.0539-0.12828-0.1216-0.23344-0.15069-0.2336-0.087-5.7e-4 -0.068 0.0531 0.0941 0.26525zm0.53418-0.20139c0.0325 0.1095 0.14607 0.27744 0.25229 0.37319 0.24721 0.22297 0.79805 0.36171 0.81573 0.2054 7e-3 -0.063-0.059-0.11469-0.1452-0.11551-0.087-5.7e-4 -0.2686-0.0932-0.40372-0.20594l-0.24569-0.20491 0.27059-2e-3c0.24184-2e-3 0.26691-0.0362 0.236-0.32513-0.0191-0.17786-0.0294-0.36949-0.023-0.42588 6e-3 -0.0564-0.0936-0.0788-0.2221-0.0498-0.28229 0.0636-0.29234-0.0871-0.0147-0.2189 0.13583-0.0649 0.17888-0.15606 0.13541-0.28868-0.0587-0.17936-0.0836-0.1733-0.32578 0.0793-0.27508 0.28694-0.43029 0.84138-0.32998 1.1787zm0.98741 1.084c0.12266 8.9e-4 0.29881-0.0718 0.39142-0.16111 0.14772-0.14299 0.12798-0.15894-0.16178-0.13029-0.37539 0.037-0.57404 0.2895-0.22949 0.29174zm0.14561-1.2337c0.17415 0.22494 0.21159 0.23056 0.72183 0.10756 0.30072-0.0725 0.64033-0.23796 0.76976-0.37501 0.1274-0.13485 0.32189-0.24465 0.43218-0.24399 0.1246 7.7e-4 0.20924-0.0773 0.22393-0.2054 0.0172-0.1516-0.0525-0.20715-0.26109-0.20848-0.15635-9.1e-4 -0.27981-0.043-0.27412-0.0934 0.02-0.17638-0.71519-0.20491-1.1535-0.0448-0.59369 0.21684-0.78012 0.64874-0.45907 1.0634zm1.4841 0.85841c0.0824-0.0272 0.15716-0.0792 0.16645-0.11565 9e-3 -0.0365 0.0544-0.19412 0.1004-0.35024 0.0586-0.19902 0.035-0.28417-0.0791-0.28487-0.10575-6.9e-4 -0.19318 0.13891-0.25001 0.3995-0.0636 0.29176-0.0467 0.38716 0.0622 0.35128zm1.6059-0.84525c0.0626 4.1e-4 0.11949-0.0483 0.12617-0.10867 7e-3 -0.0603-0.0427-0.0808-0.10872-0.0463-0.0665 0.0349-0.12326 0.0837-0.12616 0.10867-4e-3 0.0254 0.0461 0.0459 0.10871 0.0463zm2.1306-0.21355c0.18798-9.4e-4 0.25363-0.0237 0.14568-0.0511-0.10778-0.0268-0.26154-0.0261-0.34176 2e-3 -0.0804 0.0275 8e-3 0.0499 0.19588 0.0489zm0.90143-2.2919c0.0671 0.04058 0.47615 0.08081 0.90938 0.08941 0.77638 0.0154 0.78905 0.01146 0.88459-0.27479 0.0837-0.25106 0.14453-0.28688 0.44825-0.26399 0.33059 0.02487 1.0572-0.07698 1.2562-0.17608 0.10473-0.05257-0.12725-0.60932-0.29654-0.71212-0.0633-0.03841-0.25279 0.03645-0.42091 0.16634-0.20654 0.15956-0.43358 0.23207-0.69981 0.22339-0.21672-0.0069-0.37327 0.02402-0.34785 0.06906 0.0253 0.04505-0.25129 0.11187-0.61484 0.14864-1.0651 0.10793-1.1826 0.14813-1.2127 0.4152-0.015 0.13262 0.0275 0.27424 0.0945 0.31479zm2.9462-1.0246c0.0586 0.03557 0.0995 0.11996 0.0909 0.18764-9e-3 0.07392-0.0527 0.06093-0.10851-0.03271-0.11889-0.19939-0.11477-0.2352 0.0176-0.15502zm-2.1857 3.2197c0.21904 1e-3 0.31108-0.0193 0.20448-0.046-0.10657-0.0267-0.28577-0.0278-0.39823-2e-3 -0.11234 0.0252-0.0253 0.0471 0.19382 0.0486zm1.0876 5e-3c0.0769 0.0716 0.21904 0.13065 0.31555 0.13127 0.0964 6.3e-4 0.17013 0.0476 0.16374 0.10447-0.0201 0.17899 0.51226 0.11538 0.73983-0.0885 0.27709-0.24818 0.72152-0.36262 0.61133-0.15736-0.12073 0.22485 0.0678 0.26655 0.50226 0.11106 0.2192-0.078 0.52636-0.11906 0.68293-0.0903 0.15662 0.0288 0.60487-0.0192 0.99628-0.10654 0.39138-0.0873 0.91558-0.15747 1.1649-0.15591 0.26405 2e-3 0.51964-0.0614 0.61235-0.15132 0.0876-0.0847 0.23365-0.15361 0.32465-0.15311 0.18535 1e-3 0.95844-0.59441 0.878-0.6764-0.0283-0.0289-0.25725 0.0649-0.50864 0.20851-0.4918 0.28045-0.62808 0.30666-0.85617 0.1649-0.17164-0.10677-0.0379-0.32044 0.19966-0.31896 0.0902 4.9e-4 0.16922-0.0455 0.17568-0.10221 0.0202-0.17852 0.33479-0.11024 0.36795 0.0799 0.0297 0.16978 0.0337 0.16964 0.0657-3e-3 0.0266-0.14389 0.11944-0.1782 0.42565-0.157 0.43076 0.0293 0.65975-0.08109 0.44203-0.21305-0.0853-0.05178-0.12212-0.33983-0.0958-0.74474 0.11128-1.6894-0.17606-2.8709-0.73991-3.0426-0.15788-0.0481-0.21428-0.15717-0.1903-0.36896 0.0417-0.36918-0.33751-0.64873-0.82224-0.60605-0.18517 0.01628-0.40387-0.02622-0.48602-0.09448-0.1139-0.09452-0.2534-0.09662-0.58662-0.0086-0.48492 0.12806-0.71963 0.0048-0.74129-0.38921-0.0145-0.26303-0.0941-0.29768-0.51765-0.22488l-0.3441 0.05919-0.0216 0.64905c-0.0118 0.35699-0.0399 0.55587-0.0624 0.44195-0.0225-0.11387-0.0776-0.24683-0.12121-0.29589-0.10055-0.10916-0.57074 9e-3 -0.58639 0.14729-6e-3 0.05535-0.14663 0.21938-0.31192 0.3642-0.31619 0.27705-0.34672 0.58084-0.0852 0.84788 0.10322 0.1056 0.10223 0.17601-5e-3 0.27983-0.18342 0.17763-0.084 0.35499 0.19991 0.35682 0.12153 6.91e-4 0.21296 0.07115 0.20341 0.15638-0.0111 0.09837-0.12655 0.1543-0.31589 0.1532-0.2645-0.0016-0.28289 0.01758-0.16165 0.16989 0.0752 0.09446 0.17166 0.31609 0.2145 0.49254 0.0595 0.2456 0.15356 0.3293 0.40069 0.35684 0.17762 0.01982 0.38381-0.01379 0.45823-0.07461 0.26061-0.21318 0.33625-0.10576 0.21368 0.30351-0.10191 0.34044-0.0913 0.41309 0.0606 0.41405 0.24552 0.0016 0.33096 0.30927 0.11755 0.42324-0.25423 0.13583-0.34196 0.11179-0.3235-0.08845 0.0143-0.15467-0.0181-0.14736-0.22317 0.05033-0.13197 0.12709-0.33413 0.23137-0.44937 0.23142-0.17695 2.43e-4 -0.18474 0.01601-0.0501 0.10151 0.13613 0.08656 0.13044 0.10128-0.0398 0.10152-0.10953 5.5e-5 -0.19407-0.04624-0.18763-0.10301 6e-3 -0.05682-0.14178-0.10438-0.32968-0.1055-0.18772-0.0012-0.34658 0.04437-0.353 0.1012-6e-3 0.05682-0.13666 0.1026-0.28935 0.10175-0.15271-9.48e-4 -0.31628 0.04658-0.36334 0.10571-0.10903 0.13684 0.18012 0.62405 0.35121 0.59162 0.0707-0.0134 0.14464 0.0304 0.16428 0.0974 0.0304 0.10406-0.43115 0.34251-0.88692 0.45828-0.0952 0.0236-0.0934 0.0729 5e-3 0.16442zm1.5725-0.48626c0.17952 0.0717 0.38405 0.10023 0.45461 0.0634 0.0706-0.0365 0.11983 9e-3 0.1094 0.10108-0.0144 0.12818-0.0776 0.14936-0.26631 0.0893-0.13596-0.0434-0.3743-0.0884-0.52951-0.1004-0.39291-0.0302-0.3992-0.0346-0.23801-0.16643 0.10773-0.0881 0.22502-0.0846 0.4699 0.0129zm1.3135-2.8823c0.0977 6.53e-4 0.14044 0.04741 0.0954 0.10401-0.0451 0.05652-0.13021 0.10252-0.18906 0.10223-0.059-3.6e-4 -0.10177-0.04721-0.0955-0.10398 6e-3 -0.05681 0.0915-0.10284 0.18907-0.10223zm1.3326-2.7838c0.28587 0.0019 0.37014 0.23734 0.1297 0.36279-0.0666 0.03493-0.13644 0.19993-0.15532 0.36707-0.0283 0.25129 0.0126 0.30419 0.23684 0.30563 0.1849 0.0011 0.28403 0.07524 0.31152 0.23287 0.045 0.25776-0.025 0.33616-0.38268 0.42881-0.20478 0.05296-0.25899-2.48e-4 -0.33286-0.32657-0.0486-0.21444-0.0843-0.57607-0.0796-0.80352 5e-3 -0.22748 4e-3 -0.44853-2e-3 -0.49123-5e-3 -0.04303 0.11763-0.0768 0.27412-0.07573zm0.0178 2.2752c0.11095 0.21659 0.2265 1.2608 0.14694 1.3259-0.11346 0.09278-0.17187-0.04271-0.22015-0.51063-0.0649-0.62969-0.0302-1.0172 0.0732-0.81528zm0.27218 1.708c0.0922 5.74e-4 0.1756 0.08258 0.1856 0.18211 0.0127 0.127-0.0549 0.18061-0.22635 0.17954-0.17138-0.0011-0.2267-0.05542-0.1856-0.18208 0.0324-0.09934 0.1342-0.18013 0.22635-0.17954zm0.76534-3.8732c0.49376 0.0031 0.80017 0.2389 0.49732 0.38267-0.098 0.04732-0.17949 0.17285-0.18035 0.28046-3e-3 0.30994-0.24098 0.30067-0.38393-0.01484-0.073-0.15764-0.1902-0.32517-0.26334-0.37114-0.25321-0.15895-0.10946-0.27977 0.33033-0.27716zm0.69283 3.6238c0.1527 9.55e-4 0.27293 0.04446 0.26703 0.09663-6e-3 0.05219 0.0113 0.16603 0.0379 0.25307 0.0658 0.21316-0.43619 0.18203-0.59337-0.03601-0.15066-0.20932-0.0528-0.31582 0.28824-0.31363zm0.0358-2.8954c0.0626 4.12e-4 0.10864 0.04718 0.10218 0.10402-6e-3 0.05685-0.0629 0.10313-0.12545 0.10268-0.0626-4.12e-4 -0.10864-0.04718-0.10217-0.10403 6e-3 -0.05682 0.0629-0.10313 0.12551-0.1025zm-5.8 3.7224c0.12429 0.07536 0.71599-0.04419 0.72761-0.14696 6e-3 -0.05026-0.0664-0.0918-0.16034-0.09239-0.094-6.01e-4 -0.16512-0.05026-0.15824-0.11053 7e-3 -0.06027-0.0427-0.08077-0.10871-0.04629-0.0706 0.03651-0.10612-0.06855-0.0849-0.25313 0.0197-0.17387-0.0155-0.31645-0.078-0.31686-0.13129-8.09e-4 -0.258 0.8926-0.13698 0.96596zm0.51188-0.71784c0.27485 0.10153 0.35199 0.07257 0.13528-0.05023-0.10733-0.06103-0.22169-0.08935-0.25398-0.06295-0.0322 0.02668 0.0201 0.07798 0.11888 0.11366zm0.18077 0.37589c0.0939 6.37e-4 0.16531 0.04767 0.15902 0.10442-6e-3 0.05682 0.0652 0.10384 0.159 0.1044 0.0939 6.37e-4 0.17902-0.06751 0.18819-0.15392 0.01-0.08521-0.055-0.15551-0.1438-0.15603-0.0888-5.04e-4 -0.23918-0.02979-0.33427-0.06488-0.095-0.03503-0.17869-0.0124-0.18582 0.05052-7e-3 0.0629 0.0639 0.11489 0.15776 0.11548z" stroke-width=".0287"/>
   </g>
   <path transform="matrix(1.0061 0 0 .26374 74.451 81.853)" d="m71.038 53.444a0.32759 0.37436 0 0 0-0.32763 0.37466 0.32759 0.37436 0 0 0 0.32763 0.37414 0.32759 0.37436 0 0 0 0.32763-0.37414 0.32759 0.37436 0 0 0-0.32763-0.37466zm-1.6195 0.37a0.32759 0.37436 0 0 0-0.32763 0.37414 0.32759 0.37436 0 0 0 0.24598 0.36225 0.32759 0.37436 0 0 0-0.01499 0.11214 0.32759 0.37436 0 0 0 0.32763 0.37466 0.32759 0.37436 0 0 0 0.32763-0.37466 0.32759 0.37436 0 0 0-0.24598-0.36225 0.32759 0.37436 0 0 0 0.01499-0.11214 0.32759 0.37436 0 0 0-0.32763-0.37414zm-8.1158 1.418a0.32759 0.37436 0 0 0-0.32763 0.37465 0.32759 0.37436 0 0 0 0.32763 0.37414 0.32759 0.37436 0 0 0 0.32763-0.37414 0.32759 0.37436 0 0 0-0.32763-0.37465zm-11.241 4.7868a0.32759 0.37436 0 0 0-0.32763 0.37414 0.32759 0.37436 0 0 0 0.32763 0.37466 0.32759 0.37436 0 0 0 0.32763-0.37466 0.32759 0.37436 0 0 0-0.32763-0.37414zm-2.2691 0.23926a0.32759 0.37436 0 0 0-0.32763 0.37466 0.32759 0.37436 0 0 0 0.32763 0.37414 0.32759 0.37436 0 0 0 0.32763-0.37414 0.32759 0.37436 0 0 0-0.32763-0.37466zm38.436 0.58136a0.32759 0.37436 0 0 0-0.32763 0.37466 0.32759 0.37436 0 0 0 0.32763 0.37414 0.32759 0.37436 0 0 0 0.32763-0.37414 0.32759 0.37436 0 0 0-0.32763-0.37466zm-1.1224 1.1818a0.32759 0.37436 0 0 0-0.32763 0.37466 0.32759 0.37436 0 0 0 0.32763 0.37414 0.32759 0.37436 0 0 0 0.32763-0.37414 0.32759 0.37436 0 0 0-0.32763-0.37466zm2.8453 0.40256a0.32759 0.37436 0 0 0-0.32763 0.37465 0.32759 0.37436 0 0 0 0.32763 0.37414 0.32759 0.37436 0 0 0 0.32763-0.37414 0.32759 0.37436 0 0 0-0.32763-0.37465zm-4.2938 0.47491a0.32759 0.37436 0 0 0-0.32763 0.37414 0.32759 0.37436 0 0 0 0.16536 0.32556 0.32759 0.37436 0 0 0-0.03152 0.1602 0.32759 0.37436 0 0 0 0.32763 0.37414 0.32759 0.37436 0 0 0 0.32763-0.37414 0.32759 0.37436 0 0 0-0.16536-0.32556 0.32759 0.37436 0 0 0 0.03152-0.1602 0.32759 0.37436 0 0 0-0.32763-0.37414zm-8.0853 0.88108a0.32759 0.37436 0 0 0-0.32763 0.37414 0.32759 0.37436 0 0 0 0.32763 0.37414 0.32759 0.37436 0 0 0 0.32763-0.37414 0.32759 0.37436 0 0 0-0.32763-0.37414zm-5.1604 0.88315a0.32759 0.37436 0 0 0-0.32763 0.37414 0.32759 0.37436 0 0 0 0.32763 0.37466 0.32759 0.37436 0 0 0 0.32763-0.37466 0.32759 0.37436 0 0 0-0.32763-0.37414zm-18.521 0.65112a0.32759 0.37436 0 0 0-0.32763 0.37466 0.32759 0.37436 0 0 0 0.32763 0.37414 0.32759 0.37436 0 0 0 0.32763-0.37414 0.32759 0.37436 0 0 0-0.32763-0.37466zm24.347 1.2103a0.32759 0.37436 0 0 0-0.32763 0.37414 0.32759 0.37436 0 0 0 0.32763 0.37414 0.32759 0.37436 0 0 0 0.32763-0.37414 0.32759 0.37436 0 0 0-0.32763-0.37414zm-13.831 0.21911a0.32759 0.37436 0 0 0-0.32763 0.37414 0.32759 0.37436 0 0 0 0.32763 0.37466 0.32759 0.37436 0 0 0 0.32763-0.37466 0.32759 0.37436 0 0 0-0.32763-0.37414zm1.0583 0.30954a0.32759 0.37436 0 0 0-0.32763 0.37414 0.32759 0.37436 0 0 0 0.32763 0.37466 0.32759 0.37436 0 0 0 0.32763-0.37466 0.32759 0.37436 0 0 0-0.32763-0.37414zm-3.9796 2.7957a0.32759 0.37436 0 0 0-0.32763 0.37414 0.32759 0.37436 0 0 0 0.32763 0.37414 0.32759 0.37436 0 0 0 0.32763-0.37414 0.32759 0.37436 0 0 0-0.32763-0.37414zm-15.446 1.2087a0.32759 0.37436 0 0 0-0.32763 0.37465 0.32759 0.37436 0 0 0 0.32763 0.37414 0.32759 0.37436 0 0 0 0.32763-0.37414 0.32759 0.37436 0 0 0-0.32763-0.37465zm38.816 2.313a0.32759 0.37436 0 0 0-0.32763 0.37466 0.32759 0.37436 0 0 0 0.32763 0.37414 0.32759 0.37436 0 0 0 0.32763-0.37414 0.32759 0.37436 0 0 0-0.32763-0.37466zm-9.8211 0.36329a0.32759 0.37436 0 0 0-0.32763 0.37466 0.32759 0.37436 0 0 0 0.32763 0.37414 0.32759 0.37436 0 0 0 0.32763-0.37414 0.32759 0.37436 0 0 0-0.32763-0.37466zm-3.9073 0.29352a0.32759 0.37436 0 0 0-0.32763 0.37414 0.32759 0.37436 0 0 0 0.32763 0.37414 0.32759 0.37436 0 0 0 0.32763-0.37414 0.32759 0.37436 0 0 0-0.32763-0.37414zm-25.63 0.1602a0.32759 0.37436 0 0 0-0.32763 0.37414 0.32759 0.37436 0 0 0 0.32763 0.37414 0.32759 0.37436 0 0 0 0.32763-0.37414 0.32759 0.37436 0 0 0-0.32763-0.37414zm45.781 0.03101a0.32759 0.37436 0 0 0-0.32763 0.37414 0.32759 0.37436 0 0 0 0.32763 0.37466 0.32759 0.37436 0 0 0 0.32711-0.37466 0.32759 0.37436 0 0 0-0.32711-0.37414zm1.2211 0.5271a0.32759 0.37436 0 0 0-0.32763 0.37465 0.32759 0.37436 0 0 0 0.32763 0.37414 0.32759 0.37436 0 0 0 0.32763-0.37414 0.32759 0.37436 0 0 0-0.32763-0.37465zm-36.027 0.2651a0.32759 0.37436 0 0 0-0.32763 0.37414 0.32759 0.37436 0 0 0 0.32763 0.37466 0.32759 0.37436 0 0 0 0.32763-0.37466 0.32759 0.37436 0 0 0-0.32763-0.37414zm13.803 3.39a0.32759 0.37436 0 0 0-0.32763 0.37466 0.32759 0.37436 0 0 0 0.32763 0.37414 0.32759 0.37436 0 0 0 0.32763-0.37414 0.32759 0.37436 0 0 0-0.32763-0.37466zm-30.18 1.8071a0.32759 0.37436 0 0 0-0.32763 0.37466 0.32759 0.37436 0 0 0 0.32763 0.37414 0.32759 0.37436 0 0 0 0.32763-0.37414 0.32759 0.37436 0 0 0-0.32763-0.37466zm1.8567 0.3824a0.32759 0.37436 0 0 0-0.32763 0.37414 0.32759 0.37436 0 0 0 0.32763 0.37414 0.32759 0.37436 0 0 0 0.32763-0.37414 0.32759 0.37436 0 0 0-0.32763-0.37414zm13.178 0.74001a0.32759 0.37436 0 0 0-0.32763 0.37465 0.32759 0.37436 0 0 0 0.32763 0.37414 0.32759 0.37436 0 0 0 0.32763-0.37414 0.32759 0.37436 0 0 0-0.32763-0.37465zm10.988 0.17622a0.32759 0.37436 0 0 0-0.32763 0.37414 0.32759 0.37436 0 0 0 0.32763 0.37414 0.32759 0.37436 0 0 0 0.32763-0.37414 0.32759 0.37436 0 0 0-0.32763-0.37414zm-7.0683 2.1389a0.32759 0.37436 0 0 0-0.32763 0.37465 0.32759 0.37436 0 0 0 0.32763 0.37414 0.32759 0.37436 0 0 0 0.32763-0.37414 0.32759 0.37436 0 0 0-0.32763-0.37465zm21.061 1.6449a0.32759 0.37436 0 0 0-0.32763 0.37414 0.32759 0.37436 0 0 0 0.32763 0.37414 0.32759 0.37436 0 0 0 0.32763-0.37414 0.32759 0.37436 0 0 0-0.32763-0.37414zm5.07 2.3291a0.32759 0.37436 0 0 0-0.32763 0.37414 0.32759 0.37436 0 0 0 0.32763 0.37466 0.32759 0.37436 0 0 0 0.32763-0.37466 0.32759 0.37436 0 0 0-0.32763-0.37414zm-26.231 0.21652a0.32759 0.37436 0 0 0-0.32763 0.37414 0.32759 0.37436 0 0 0 0.32763 0.37466 0.32759 0.37436 0 0 0 0.32711-0.37466 0.32759 0.37436 0 0 0-0.32711-0.37414zm11.112 1.8495a0.32759 0.37436 0 0 0-0.32763 0.37414 0.32759 0.37436 0 0 0 0.32763 0.37466 0.32759 0.37436 0 0 0 0.32763-0.37466 0.32759 0.37436 0 0 0-0.32763-0.37414zm-19.567 5.2472a0.32759 0.37436 0 0 0-0.32763 0.37466 0.32759 0.37436 0 0 0 0.32763 0.37414 0.32759 0.37436 0 0 0 0.32763-0.37414 0.32759 0.37436 0 0 0-0.32763-0.37466zm23.779 0.03514a0.32759 0.37436 0 0 0-0.32763 0.37465 0.32759 0.37436 0 0 0 0.32763 0.37414 0.32759 0.37436 0 0 0 0.32763-0.37414 0.32759 0.37436 0 0 0-0.32763-0.37465zm-2.8288 1.8852a0.32759 0.37436 0 0 0-0.32763 0.37414 0.32759 0.37436 0 0 0 0.32763 0.37465 0.32759 0.37436 0 0 0 0.32763-0.37465 0.32759 0.37436 0 0 0-0.32763-0.37414z" fill-opacity="0" filter="url(#filter42098)" stroke="#000" stroke-width=".665"/>
  </g>
  <g stroke-width=".26458" aria-label="Ada  tress">
   <path d="m24.444 185.39 0.31695-1.6674h1.6812l11.424-18.907h3.2935l4.079 18.907h1.9568l-0.31695 1.6674h-9.6325l0.31695-1.6674h2.0119l-0.86816-4.203h-7.7308l-2.5494 4.203h2.4529l-0.31695 1.6674zm7.5241-7.5379h6.3803l-1.6399-7.8686z"/>
   <path d="m59.901 178.79 0.27561-1.4469q0.26183-1.3643 0.26183-2.3289 0-0.8406-0.20671-1.378-0.42719-1.1438-1.8741-1.1438-1.5158 0-2.3702 1.2127-0.8406 1.1989-1.4607 4.3546-0.37207 1.943-0.37207 3.1419 0 0.75793 0.1378 1.2265 0.38585 1.2127 1.8879 1.2127 1.4469 0 2.3289-1.1438 0.89572-1.1438 1.3918-3.7069zm7.7583-14.841-4.1617 21.442h-4.8783l0.35829-1.8604q-0.8406 1.1438-2.0119 1.7088-1.1576 0.55122-2.701 0.55122-3.1144 0-4.4924-2.0671-0.92328-1.378-0.92328-3.4175 0-1.0335 0.23427-2.2462 0.7028-3.6105 2.8801-5.6637 2.1911-2.0533 5.3054-2.0533 1.5434 0 2.4805 0.565 0.95085 0.55121 1.3505 1.695l1.3643-7.0004h-2.0946l0.31695-1.6536z"/>
   <path d="m79.869 173.32q-0.04134-0.82682-0.82682-0.82682-1.8466 0-3.6518 2.2049-0.8406 1.0198-1.5021 4.4235-0.49609 2.5494-0.1378 3.5416 0.35829 0.97841 1.6674 0.97841 1.2816 0 2.0808-1.1438 0.81304-1.1438 1.3091-3.7069zm4.6853-2.136-2.4116 12.54 1.8328-0.0276-0.33073 1.695h-6.1185l0.35829-1.8604q-1.5158 2.26-4.203 2.26-2.6596 0-3.8447-1.7501-1.1851-1.7639-0.57878-4.8231 0.59256-3.073 3.2384-5.7326 3.1281-3.1419 7.3174-3.1419 4.1341 0 4.7404 0.8406z"/>
   <path d="m109.72 172.41h-2.1222l0.31695-1.6674h2.1222l0.88194-4.5475h4.8782l-0.88194 4.5475h4.0652l-0.31695 1.6674h-4.0652l-1.7501 8.971q-0.23426 1.2264-0.23426 1.8466 0 0.37207 0.0689 0.53743 0.22049 0.46854 1.0198 0.46854 0.88194 0 1.4194-0.59256 0.53743-0.59256 0.81304-1.8328h2.0533q-0.55121 2.2049-1.8052 3.1006-1.254 0.88195-3.8998 0.88195-3.0179 0-3.9136-0.95085-0.57877-0.60633-0.57877-1.8741 0-0.68902 0.17914-1.5847z"/>
   <path d="m135.83 170.58-0.85438 4.3684h-1.5572q0.0413-0.28939 0.0413-0.53744 0-0.7717-0.33073-1.1989-0.44097-0.57878-1.4883-0.57878-1.5985 0-2.7974 1.4056-1.1989 1.4056-1.6812 3.8998l-1.4469 7.4552h-4.8782l2.5218-12.981h-2.2324l0.31695-1.6674h7.1107l-0.49609 2.6045q1.006-1.5296 2.3289-2.26 1.3229-0.74414 3.0317-0.74414 0.42719 0 1.0198 0.0689 0.60633 0.0551 1.3918 0.16537z"/>
   <path d="m145.97 173.93q0-2.0257-1.7088-2.0257-1.3091 0-2.0808 1.2402-0.7717 1.2264-1.4745 5.0987 0 0 0.30317 0 4.2168 0 4.8645-3.3486 0.0965-0.52365 0.0965-0.96462zm-5.5948 5.9531q-0.0827 0.46853-0.0827 1.4469 0.0138 2.9077 2.8388 2.9077 1.5847 0 2.7285-0.84061 1.1438-0.8406 1.7226-2.4391h2.2875q-1.0749 2.4942-3.073 3.6656-1.9844 1.1713-5.1539 1.1713-3.8034 0-5.4432-1.9982-1.1438-1.4056-1.1438-3.6242 0-0.95085 0.22049-2.0671 0.7028-3.6794 3.1833-5.7188 2.4805-2.0395 6.1185-2.0395 2.632 0 4.4511 1.0335 1.8328 1.0198 1.8328 2.8801 0 0.37207-0.0827 0.7717-0.86817 4.4648-10.404 4.8507z"/>
   <path d="m152.85 180.87h1.5572q-0.0138 0.2067-0.0138 0.39963 0 1.3505 0.81305 2.1635 0.81304 0.79927 2.4529 0.79927 3.2108 0 3.5967-1.9982 0.0551-0.26182 0.0551-0.64767 0-0.37207-0.35829-0.78549-0.34451-0.41341-1.7226-0.7717l-1.9155-0.50987q-2.1635-0.565-2.8525-1.4607t-0.68902-1.9982q0-0.46854 0.0965-1.006 0.46853-2.384 2.3427-3.5416 1.8879-1.1713 4.892-1.1713 3.0041 0 6.2838 0.88195l-0.73035 3.6931h-1.5572q0.0413-0.26183 0.0413-0.4961 0-2.5218-3.1144-2.5218-3.1281 0-3.4864 1.8604-0.0413 0.22049-0.0413 0.53744 0 0.89572 1.695 1.3505l1.9017 0.50987q2.7423 0.73036 3.5002 1.6536 0.75792 0.90951 0.75792 2.0946 0 0.48231-0.11025 1.0473-0.48231 2.4805-2.4805 3.6656-1.9982 1.1713-5.7326 1.1713-2.7147 0-5.9669-0.82682z"/>
   <path d="m168.74 180.87h1.5572q-0.0138 0.2067-0.0138 0.39963 0 1.3505 0.81304 2.1635 0.81304 0.79927 2.4529 0.79927 3.2108 0 3.5967-1.9982 0.0551-0.26182 0.0551-0.64767 0-0.37207-0.35829-0.78549-0.3445-0.41341-1.7225-0.7717l-1.9155-0.50987q-2.1635-0.565-2.8525-1.4607t-0.68902-1.9982q0-0.46854 0.0965-1.006 0.46854-2.384 2.3427-3.5416 1.8879-1.1713 4.892-1.1713t6.2838 0.88195l-0.73036 3.6931h-1.5572q0.0413-0.26183 0.0413-0.4961 0-2.5218-3.1144-2.5218-3.1281 0-3.4864 1.8604-0.0413 0.22049-0.0413 0.53744 0 0.89572 1.695 1.3505l1.9017 0.50987q2.7423 0.73036 3.5002 1.6536 0.75792 0.90951 0.75792 2.0946 0 0.48231-0.11024 1.0473-0.48232 2.4805-2.4805 3.6656-1.9982 1.1713-5.7326 1.1713-2.7147 0-5.9669-0.82682z"/>
  </g>
 </g>
</svg>
